<mxfile host="Electron" agent="Mozilla/5.0 (Windows NT 10.0; Win64; x64) AppleWebKit/537.36 (KHTML, like Gecko) draw.io/28.0.6 Chrome/138.0.7204.100 Electron/37.2.3 Safari/537.36" version="28.0.6">
  <diagram name="Page-1" id="Fc7U0pPD9r9OIFH3dabT">
    <mxGraphModel dx="1678" dy="1849" grid="1" gridSize="10" guides="1" tooltips="1" connect="1" arrows="1" fold="1" page="1" pageScale="1" pageWidth="1100" pageHeight="850" math="0" shadow="0">
      <root>
        <mxCell id="0" />
        <mxCell id="1" parent="0" />
        <mxCell id="KsgwyFIU3VjcIDYPL1_L-1" value="" style="shape=image;verticalLabelPosition=bottom;labelBackgroundColor=default;verticalAlign=top;aspect=fixed;imageAspect=0;image=data:image/png,iVBORw0KGgoAAAANSUhEUgAAAXoAAAQRCAYAAAAnq0OuAAAAAXNSR0IArs4c6QAAAARnQU1BAACxjwv8YQUAAAAJcEhZcwAADsMAAA7DAcdvqGQAAKNcSURBVHhe7d0NYBx1nT/+T/pcHstjeVAeSrYllOW0wmmCUgGDJOQ01SP4cObqeSZ3yEHy418PCvH8EUXOnpfQU/glyln7O/VnUMh5IUEqYFESFa0PoYRmQ3mShwKVlBb63Py/n+98v7szk5nd2d2Z3dnZ96sMmf3u7Mzs7O5nvvOd+X6mYkogAACIrBnqLwAARBQCPQBAxCWbboYf+m/a8tNumvHGhHiUqTWngg4dVUlLPtBGNZd8WJUBAEAYyUDPQb5i40qqPnVSFXsz8sICmlq+DsEeACDEZNPNkxu6vAf5uccS1T9AdPJyes8pk7T5gdvVEwAAEEYy0M/YuZX2T82iQ0ecSVR7D9HybxPNPkpOYDHvBKKGh4lOei9NzZxHOw4eTYd2Pq+eBACAMJKBfs+hOfT6gWNp3/n/Rvv/PC5KZxOd849ygqR5J4og/xDR0TGaemAF7Xjml7Rvai6V4tWZQ60VVFFhDBfezuckDBO3X5gsr6hopSFVPs1Qa9rn3eYPAFAMRo2epmjejN1UsXc7HVywVJ5opWOq5ATS/IVEfyWC/FFn0dRDn6BdO7bLIF+SJm6n8cYpuYOamhqkc9v+lnQsTjwxTC2D+rkeqjOKTSbo9gtFAO8nalEl06SZPwBAMchAP3fGXjpq5k6q+NXnaf+LI3TwpRGis64iOvuzIsirmvyRi2SQp3M+R4d9aIBo1ny+9oZmV+yXMyoZldfRdckIHqNzatSoVEPnxNSoo0q67lERwHsa1WMHaecPAFB4MtAfnJophhm0Z99B2v3Hb9G+kZuI7v8Q0eQWoiseFEH+zGSQp5Mvop0bP08VB96kBbMmaVbFQTkjR6J2e2GyCeN2aq24UNVuh0zjzP5Y1ZzVa1tlG4lTmROv07EEPTF8Li0WBzD8uvHHh6ktZrzOnyYX8/wBAIpDBvp9U7Np+4Hjac/UfFm4+9B8OvTa74guXJtsrtFBfscDrTTzsBPoyNl7aOfBI+VOwpkI3rE2Olc1hXyH+qhXPZMeB+oY9TUlVPPHFPVwDXloDbWdO2gtc+J1OmGotZ4e716lmmhUbV2+zp8mF+v8AQCKQwZ6rpXPq9gtB26OmZpzDB2sFzX5o5dMC/JzT7uYjli+hva+/aN0QOwgeCfhaGKcHq/pplUqylVed7N7u7bZxH3UN9xCN19nqwbHzqGa3nprTdt0xJA8Oeo03TRGrf9L5yToUftypDpqbBmmvvtyjfSZ5g8AUDgy0HM7+1GzdsqBm2MO/4u/J9q/mw4+8FHaf8z5tH/GkbTjJy00c87hNOfYStr16Bdo71ajTaRC/r8AKq+jR0Vt+zv0t6kmGVVm1MLVyVOn6Sw4CP8t0XemMgbhc3Nqc/E+fwCAQpCBPqliFs0++1M0Z8cf6OCPl9POZx6lyV+vpcl7P0T7n76PZie+Ra/f8yHa/QejEUYeBczYI8enqVxM5w630RoVaCdu/5Kp6YZPUg7TEwn1cKg/9VzlFdRU00tfcqmRV173KCW6a+jx8fS1bdfpZNPOzZQ2BosjhS/16hOz9vMHTkzTeJk/AEABqUCv6uV87fysw2nWicto/9s+TLOW/TPNPauBZi84k46uvoEOnHMdzTjxfDryktvpiJPOoSNn7ky9dpo66hlsod56o2nlb6nJ1HRTSdfdnHrOerkit5VzG3nMeE7XyuW168bjWNu505t2tAzTTYw/TmLByWl4MJp5OFirMnlu4dGcgrX7/AEAikPmuvnPG99Pf3fmRqLz/j+a2r+Tps76BO38w3dobuWH6MD2J2juyw/QgbP/kXY+1EYzjzqdjvrL62jquftp1/iP6d7nzqPP3PYzNbt0OJB+ic5J5BZAAQAgN7JGf3Ztu5Gg7Ik7ac/8Stq74wXa9/zDdOBPP6P5c4jemPyzvL5+/nmfldfcT735Eu167Tl67IUjqeqydjkjAAAIJ0ua4rENa+nAG8/Jk5uMT9IeIuMae8aNNHNn7KG9U/Op4sgz6dzLPpdF5krU6AEAigG3EgQAiDjrVTcAABA5CPQAABGHQA8AEHEI9AAAEYdADwAQcQj0AAARh0APABBxCPQAABGXe6Cf6Kaamm4qerqusKwHQJiV4u8Ev23fuAd63simDIzG0EpDhdr4jsuvoW63BZvXy891nLYe6gYn2XBbt1zX08/3lw3LtshhO3jl5/uzrLMPn182fHsfE9RdY34PqaHG9QdRYLbtLNfLz8/RjXkZhViek2nL5c9LxKoHi7Q+mmm90tfoq7soIW/qYbq5R2UbDQ+3UUHS1Uxb/jC1uS04yPUyr8cgUX22H57buuW6zoX8DMx4uYkuqpbbQ93opRQE9fkVTCW1Dav1T25/4/Gw6w+ikIaoNdZHTQm1jmIjx8cShd9uRftdNFAT9dGA/lJNDIhHTdRwabG/NynZN9047TW5LLk3T1Pr9ot5ebF2GtFlcr3E3rRZlI20U0zXLPxU10gtI2Mk75lied+pmuJEd40qEwOvk9u63XxTals6zUu9rrtVl6vc/Hp+bs8zy/zEoJfjpzTLn7YNjMLp3xPLPPh9F+jzm7ZcwbJ+qkzf3yDde5BM9zMQQ+tQwO+DOa0vcytXHD+bvMVpSTKi1VEP36xZbWPje9pKreqoRG6b5LiYXE9nvHj6Y8Gyzsnt7tPvKW+V1NBE1KcjfWKMqKmBKs3vw7I+1u9+6nn9WfH2mf655SN9oFcbUG8Upy+NsTcfow5Vw5hKiH1bs/VDypl9+XKj8PLaKa5uOi5rOGpyg6j9rE/Vevyu8Ux0d1JvdRXFbOuR6Bqlev7WiA+suT1Og2p7DMbVTkGyrdvKE1S5y7yY2AZjjeq98o1cOm3b1vH5TNvIR07Ld9wGab4nyXnwUUKhPj/BslyXz6Cux7T93N4D/zDrSbxho1wMPXXBvg/374xbuZL2+5krvsdyL9Xzb9S8LLORUapaL5Ypb0bUTKTH7d9nF5Vtw8ltOzUYp3Z567oAfk85qlwSpxE+ihGG+nspntrrCS7fm8olFFeVxomBPoq3EPXL1UzQGKnvaL7E++UYmn3TjXoqaWILjZL6kHkQG3hE13jzZV8+Hwbx8kS5vul4QaiNxe8v1tdECYf1qBS79OrefhriD09uD2OnWNfjoYnDbV78wPxeY1XTA7bT84XcRk7Ld9oG6b4nQa+r0+fH5eblpvsMNLf3IA/VC7S9Nbf1zfQ+cvl+elDXo36jjf3GtrEH/OomauCNzt8R87h80gNZ41Xbvb6XaHSLe4BOtw3Mn3k2y8+EjxTlMiZoy2gLNZo3qtv3Ru4gR2mLeCOJsTg1rqqiUY70PH18ifEdzZd4vxxDs2+6caJmlnaHUMrM7y9jm5s4bJXTNlK//GD9PQTzRBw6yuasonHZBsX6nmT1+WVQ8t/1gL+ffAQ0NaiCnk84yJvPAQR5hJozFbSHxE4/3jj9O+HyvRH7GhpLDFH/qKjBc1v/qNhu4vcbt+wp8pd/oJeHH+3Jm4AHTi4vdeKDD3kcg5pfRxVubO9brkeL+IDFl7JVNsDxDypBXdXiw3/WmCbJvm5u8zIeZk+2Q5tODhWa0zagLL8nQX9+dl4+A7fvujwZ5/Legnofbuub6X04fTb5fk84EFuah7hGnWXTg2k7yXVW40n6KECY9nzQvyeP6hrj1F7fPj1Iu31vBD7aoM5OGuU2ffGPH/b3E1X50m6T4kONXnxhxB52VN/omwd9giFfYuNYzxHwSQyxPG6jixllzeKQZ9revbKNOlSbYXCXn1nfd4zbPfkElPhQxcqp9Y1RX9N6ajtdvYSZ123dq6rQZV45s26j5AnrfMmaFR928ueSpibotA0qs/ieFOTzs/PyGbi9B6Ot2Fwu416g78NtfTO8D8fPRj2XK1kTNd0Qn2vf67M4chLbaT23o6vXT/tN83aMp2KB5fmC/J484gqW+De9Mu72vRH48xA/zia1F+OHvaJ2r3dqfsEdpsoBXznS30hThfiyRxFvv86qVNs+QInxp40eQmfIdAlZBV8QgiCfgyHjksn6UerKpoYKEDKo0QMARBxq9AAAEVfxxhtvoEYPABBhaLoBAHrggQfosssuU48gaiomJycR6AHK3K9+9SsZ6Hfs2KFKIErQRg8AEHHJQH/YYYfJAQAA8SBaLDX6l156iX75y1+qRwBQzhAPosPSRq8/1Pe85z3yrx8OTR2ib/z8G3TX7++iN+a9QQtOWEB79+ylN55/g06dfyrdsPwGajyvUU3tr6gu+8CBAzIxUi64A9WsWbPUo9IwMjJCv/vtJjl+xFEL6B0XVFPF1EH52KtDVEEbBu6VtdQZM2fQhz78YTrllFPUs/7YuHYt/eGuu2j+zp10/ALxee/bR8+/8QbNP/VUuuif/5nOa8z9u3bw4EHavXu3euTN/PnzaebMmepRek5t9LnGgxkzZiSTd3nF68nvMQrmzp0rf2dme/bsUWPFkdfJ2M2bN8sPdRruTSj+7Du4j7p+20U/efMnVHtZLf31qX9N88Q/3gjb9m+jbz/+bXr2l8/S55Z8jtrq2ozXelSuy+YvzDPPPENHHX20XJaklptkf2zy+uuv0xlnnEHz5s1TJZm9+MIL9NhjvxHvuYLmiC/xiSe/nQ7xzkY9L5fFyxQj/B7lXy41/pPjM2bNoD899yzt27tXTlNdU0PHHXccvzKju/v66Hvf+x6dU3UOnbfsXVT/4auct78LXocDhw7QFz9/nQx+7OOf+DidG4/L8Uwyfd4HRUD/7de+Rm/ylSuXX06nfvQjNPPww0js62nfyy/TS9/+Nk0cErsasXO5/LrrjNdm6Xe/+51c99mzZ6uS9Pbv30+vvfYavfe971Ul6fl5Mva///u/adGiRRT3uH3/8Ic/0FNPPUUf+chHVIl3XGn57W9/qx4J6jPx4pD4TLZv306XXnqpKsnerl27kttM79jeeustOvzww+W68c7rDbGz58f8vWf8lx8vEJWBQkkGet0exyvpFb+vPXv3yBXnH4LxI08Nt/zkFvr28/9JNbU1VLOgRgapDx/zYXp+1/M0WjEqX/P9575PL254kb7/ke9TzZk1as6Zleuy33zzTXpBBN4lZ59tLN+0XCb/8mP5SD02GR0dpZNPPll+0bx64Cc/oYcfepheePEFumj5xdTU/Fk6Yt5c9azAizT9NdbJWLbYN4j3W0E739pLvV/vpj89/xxPSfVX1NP7LrpIjrsZfvRR2rRpEyXGE/T20xfRRR/4IM0Q0XPWTA52xo8qI1F7v6//HjryyMPpT88+Q4eJ981BMJtAn+nz/sm//Au9sG4dfeB976XjLnmvWLODNHVAvG6fsZa8TbZ997s0IIL+R7//fTqjOvsku4+KbVFfX68eefM///M/dFGGbazZA30u8UB79dVX5TbeK3bqZ555pip1xs1DvPPiYMg7h2zxa3fuelN+x6Z9NjyBbdyMyx968EFavny5KslOb28vPf744zRnzhy5E66rq6MTTzyRnnzySfF9O1KWc6Dn7cE7Pd6WP/zhD+WRGW8bPqK84YYb1NyCZammZNsmV6E2rhzERkv+FcNzrz9H/2/0+3To3EO0YPYCeuLNJ+iPr/6RTjvyNJo/Yz5t3rGZxt4co8XHLKY3lr5B1/7gWjVXb8pt2fvFUe1Trx6iiVdEDWH3oeTyzF9sXg/51/bYPmSLayr8hd23b7+opXKgraBXJnfSNjHw31deF+M8/Nn4+9Lrb9BLYvylP79BL2x/g/702g6Ot2I+h+R8eDjE0TMD3qH9VPwQjzjiCDr51FMptriKKpcspTMqF4thScbhzJgYzorRa6++RNteepFmix+e16YMs3Sf9+vPPUebxRHHuWKzHvWOt9EJn/wbOnzpafTWk0/Q7snNdPily2ne+95Hhy1eTEtFEO27NrvvmhkHT6942lzeq1mubfQnnHACjY2N0THHHJO2uUl+D8T3acuWLRl3COnMFF8u83c/OejPzDbMVAOP5+ORRx4Rv4l9suLE7/mPf/yjfN/8e+EdFx9R8RE01+y5nCtZPJ1uMuTp/bL3xRfpMXGUPP6//pf8jdol3ynvbXhlsiE3rNpgFTyIx/KvGB6Z2EiTR0zS/sP20y9f/CX9/sXf0+PPPy4PoXe+tZP+8MIfZNmmVzZRxYkVtH3Wdnpxx4tqzpmV27I3btlHP/zNHvrJE/vE9IeMZToMcp0cyvXA9F+v+IvLP8i3iWDL5x5micB35skLaJEY9F85nHKM+HsMnSWHBfJvpSg786QF4nV8qGzMhwdZTfZgadU5asyoHe/Zd8A07E877OW9ow94e7l93k9t3EhHigB+xJx99PqzD9P2raN07Aeb6cDFS+nIFZ+iE6rfR0+PPEi7Nv+BThSvmyl+/DvEjzIXe/bskzvbTHganjYfucQDM26WO+qoo2Qzo5tEIiGbEVm238kk/ixsn48edxp0gNfjr7zyigy45uHHP/6xmnl6vDO98MILqb29na655hp6+9vfLoO42/C2t72NrhU7+v8lgvFHP/rRrHbc6XCQ/21DAx3zF39BO3/3Oxr7p3+aFuwtuzQ+6ZLNiRf5hdcb2jYktidoz4I9tOflPfSVE79Cdy6+k75d8206fv7xtPzM5dQb75Vln9z/STq07xDtPWwv/fEF73u4clv2/gNTtHDBTDr9+Fl0xDyxLNMXlge9Psw8zvRjHra8fIC+/uCbtHbDWzT6pwNqivR0oOeBv0AzRY1+zqwZyWG2GGbxIL5NYh/Ar5A19v2ixsYBee++g3TgoHg9D3o+HgO9xrPl7Xv04fNMw3zbY+tw5Pw5xovzZN5+9s/7NREMj967m2bO30OH7UvQ/nsb6dlf/JDO/dRNdOqF9fTT29rpiEe+RDNnPUsV4n0fJg7ZX8ihJvfrX/9aBt/du8V3a89eeUKed5waj3MZP8fT8LT8mnxkGw/Mli5dKtvezznnHHr55ZdVaQrXdLmp5oknnqC/EAEqV/J7ob7/8jPhcdPvQg6q3D7waxYuXEjveOc7LYPXowt+vfmoiR8//fTTcuemh2effVYOz4kjP24W42nkuqp1yNceEeR/JYL8ye+Jy239rk//Le17PkGPix2POdgnl5TLdbPJlea/vOFMw9Th4kt4JE9kTJvJocNEAJgz/ZDDTTkue+/+Q7Rb7BxEvEyug9PA3B7PnU10othhzJ1bQc//2VuNl4OIbnI5IIZ9Bw7SxAuvW4an+O+L4q8atr70Oj390iQ98/IOemabOMIRrzlwyJiHccieXaBn/ApettdhP28oH+ht5/R5zxc/pqN4MVyBFn8nd02JcvkyadacKZp/yhTNOdl4PE9MP9f0A/SKA/euXW8mhzff3C2bRTioG8NuWWaehl+Tq1zigRm3nXPTBTdb8E6dd0IaP+ZAz01yHBj5bz7kZ6M+DxnUTZ+TDqhy4HKHgZ/TzTk85ILnw230f/3Xf+04cA1+xYoVluX64Vdi3rz+p5y0iHZt3077tj5DVfUfpj3PPEkPf+YzMtjzYHlXWbfRiyG5UcVfvZF5qF5UTbPFPzqa6GMTH6P3//r99P6fvJ9efvNlun/ifnr/L8RjUXbbntvkvOYePpfedtzb5LgX5bhsI9CLQGkL9Mz81z6uHzN+Le8s9oojBK8sNXquqYsgetxR88QwXw3z6Fj1+FgejpxPx8hhnjEcMU++Rs8jlxq9JF6ze+9+23DAocwY+GjCD+k+75g4dD8kgtmuPxO9+tosOvZj36fTav6axu9ZRa/8/of0/v/VTQvqxaG0iJl7xXyOnCe2lTiEzxYH8h073qCdO3eKYZf8+8Yb1sH8HE+brn3ci3yvo3/HO95BExMTdNZZZ8m/2tatW2Xtc9u2bVRZmX+Wf/nZqM8jGdzVYzmoz81pYObmHB7EE7LcKz0f8zz1OK/PHnEUx8PuPeJobK/R/PZucaT0nfXrZeVFTGgZsrn8eYGYz+QLL9D2V1+iN8QRAw87t0xQ5aUfpBefG6d7PvlJuvsTn8ivjZ5XyvzlN7+52jMuMy5l40oFL4XXna9s4+3A43xUzX/5ne4hOumkk+jcY84VDzwqw2VzcN4ja/Si1qiWyZz+2sf1wK+VgV7sNLwyB3quie8/wDscEWDFF9YYjDZzDrqp9nPrwLXrfAM9b+sFDk00bk04fjXdiA3n+nmf9sEPys97l6jRVxyzgI6vPJeevKud9t//b/Ry98dp+6Yf0oGTLqTXn5Yft/y8jzk38+fNJ+7uv/9++vnPfy4vH+RtxsF7cnKHHHjcHujtz/Nr+LU8D54Xz9OrnOKBjT4py1eYcEDnWjzP9/jjj5dHdbxuuVxpY8efg/xczH/V58WDnEaN2wdzgNeD8QpveB76r32cB/6e6+Y2bpM/cEAMB41+MLrvgH3goxyvzvu3f6OF4khh88820K43XqO3RKDnYefmLbT8vcvp2efH6cU/TVhr9Nm2yVm+9DzojSXG5x6cQx8/9eM0+yhRu+WKBQc+EVt++dIv6cnXnzSqN1y23zhMvD52vVgZy+qkVY7LNjfdaLx8/ddpYPyl0gMH+j1iPtkF+tTVMrrp5oXtO63DazvpRTX+4vZd9BIPf95FL/Pw+i7xGiPA6/nwPLPF679vv1i+x4GPIvyQ7vOeEjX0U666io6YPZueu/c12rB8Gb20vpt2vkb0+HcO0E/e/XF6bPnf0CwRM/nzPu3kk+X19pn86U9/Ir5Gm2vlHCD4ypTh4WF5meXPf/4I/exnP6OHH36IHnrIGHicy/g5noY7mfFr+LU8D54XzzMb+bTRa+edd16yeYYDPbdV886O2+355GS+zJ+L/JzU52Iu58E+bbrBK/4+MvPr7OOMvyuzZs2Ugd1xEM+bH2eD3+/5X/86Hfney2jsl7+gfW+9TntFoOdhz+NbqP6Cd1Pduy5IRRj+EvKQLX4zesOaNzDXcrrf0U01h9fQ/EWiSsu1WBHcPvazj9FtT9xmBEERCw87+zC6quIqajqpSc4vG+W27Df3HKI3dnPbs3ONnpnHObBy2ygP/IPngQP8G28dlPPyakrsHHheOlBzjf6wObOtw9zZNH/uLDE+S/6dJ/7qYe7sWTLoHhTrreejfyTZ4Je8pY4i+K91ODBt4CMNv/B2dfu8l/3Hf9BRIiCeJYL+7ond9NQjIsjfa+zP3xLb/jwxHC1+WxVih3DavffS4Zdfbsw0Da758rz5N8nXY/NJwwceuI9+/ON76Ec/6qO+vu/T97//Xfre9/6vHHicy/g5nuYnPxmQr+HX8jx4Xtk05eQaD+z4ahO+koUvQ+TmGl4HHuf+EUuWLFFT5Ud+FiLgmT8bXa7/ug1Oz2fLPh/zOP/jyz/NgZwDfzK424I8D9ni9/7ub3yDjnrfB+nJP/6eDh3YRftFoOfh0Og4HdycsHaY4jY5PtTyuhfnrr5cw5MbVyzM/APQb3j31G76hy3/QIPHDtKBSfED3P0WVRyooDknzKEFBxbQqr2r6MLdF2b9oZfTsj///16gF18/QNt27BNB8gAdd9gUnXLC0fI5Y2kmskD8T0RFHUzNQfWl196g7bvFOs+YRSeKo45Tj51NX/3YqepZZ/fecy/dNzAgx4897gS6uGEFvblzl3xslVqOXiT/4eVzB60HftxHb+3cKcuvbLqSPpgh4HGP2N//7vdyfOl576QrVjTRXNMPIbU0bXrJPvE5ffGGNjpsvhG0uEcwd2DLpsOUl897SgTmLa2tdOz999PrXIsWj/eLaU8UgfbQ0UfTnlWraPd73+vp8z4oDu13vbmL5s/jNj8D986d/u7S4zXjq1+03Xt20xGHH+kYTJw6TGUbD9xwjZ6Xyc03fJUNd/rj7wS34eeLPxuel9vnYh5n5nE2NDQk37cZn5c410Pz2lVix93Y2Eif+MQn0i5zl3i/8ghQD/y8aX3F/9TPVvxfvBfuJcyXamaLT7r+4uqr6c8/G6IzTnk7VRwUOw7xOVaI73xeuW54Ix8UM3f6ATDz3/E/j9PdL91NW/dspTlTc+jd4l9jZaPsVPHYY4/lFGzLZdlXr3+Zrqw5mfZyb0vxRZg1QwziUDAtl6jAlzweOsTrV0E8i989PUmrPmjsNNzc86Mf0cCP/0c98keT+JFcXp/+huXmQD9r9hw6J34e7dvDbV/ezZ47jx4b+Xky5UOugd7r5/3n8XHa395OL5x4Ik2JIE/vfje9Q2y/WYODnj9vbsM9JD6n+WrnxP793/9d9sLMBgcrvmZb2y0qG0atkQ8zrfzMdWPH2/sXv/iFvGyRtxEHMr7+3I8jBhnoxd9kAFUDs4/bjya57Kc//aljoDfvIN04BXo9MONvBb351pvJE77y+6PXlR/z3+S0Bu5fkEuzFgf6jTLQD1LlUfNp3/g29YyYvznQZ2uu+NHwF1K+AbGi+i9z+8vM44yv98062JbRsq/+v6/S2xceL3vE8hd17swpOmye+4lG7tTE337jgzVG9IcsT4wemsErQ4fPmUHbtm+nb3zqBPWssx/98If0P//trROJV1d97GNUd0X6Lv3mQM8/Tv0DzRZ/PlpOgb7An/f+/ftozpy5lnxE//Iv/0K//72xLRh3RuJmGTNuEuEemRrXmP/3//7f6hEHXG422S8vfbTzM9eNGX9fOzs76Z//+Z/pN7/5jWy+4TQB3PW/o6NDBup86Nfrz8Q+MP7LTY7cbMRNYrydGOdteuzXj1G9rcLB5ze8BPqmpiZ5yeQnP/nJacvjgdeJv7NvieXyuPnqHnOFQb9G43Mr2QZ6DvIPiyC/feP9dO5MMa8/vS7LufGS55xXG71+Q3rQ9LjbX/7w9Uk5Hs8Fz8s8MN4763Hz3w0bNiQfB7Vspsfd/ua67KPnc7v3HDpMDIfPnytqemJcBHqnYf682eKvnma20UY+ZybNmzs7eULo8Pnz6HCeRkx/lJh3Jvxl5fX1c8g2aPM21D+SbId88bLNg6bH3f7y+8zpu1YxQ16RsnHjxuSwePFieS22Ht4tjhS4KcQ8cJl5Gn6NeR6/5QygpvVPJ5d44IRrx3yOiE/GcvMdNwfxtjj22GNls4kfeHubBzN+zNufLznlnDOcVoM7MHFnpk2//wOdffaStK9PxymNh31ePDh9J5M1fPW8efpscZB/8HOfo9c2/oTOF7/vI0WQP1KUc++Et047nt58+/H5tdHzCR7+0Mwry8wrbP7LG5w/dN6j6i9+hTiMfPKJzVnXqu3L5g/vK1/5Cn3wgx+UzSLvf//7ZRlfafBf//Vf9IEPfEDuff1YNtcIeafCNSpuS6uqqpJfYr4qgmsY/KUS21UeOnPt4MMf/rB8Ptdlr7l/Fx17nPjA9hgBY+4sUaN3u3RQfJr8BeR/clxMP0t8+Hv376e39hwQMUTU5tRnMm/2DNq548+06vL0HVbu/kEf9d97r3pkaP//rpc/Vs0euPXj//f979NDDz4kx//85z/TUlGjYx//5Ceo4a/+So67MdfotZ1v7pLd63n+5mXqx3I4NCUvKdSddM44/fRkb8dcavSF/p6/9dZu8Xv0nmLYi9HRP4rvKZ8M3SPnbRdEGz2/fz4S4e3BJ4avv/56Wf5//s//kb9NLr/pppvo6KPTNx2mw7833ub2YMmDxjV57rzFNWWOA3wO5JeiJn/KSSfJ7wV/RsnPSbzuV7/6tfjtZq7Rf5Q7Q4kdqrlGrwdeHx74G8rLl4Gdm81UuZ6O6b/a5ieeoNM8ttFzkN9wzTW0/eH76f3iSG3+c6nmmm1nnkKfe2sPJwPKr41e/wDsG5nZx/mLz2+Yg6BxPa1487Nm0Zt799HbTzpRBuds2JfNV5Tceuutsk2Ss8fx8OKLL8o8FLwD+Md//Ec5nR/Lvuuuu6ihoUEuk2sJfLjMwZ4DPS+ztrZWdv/mLyF/kXhduNdcrsvu2bibjj5mAe05YLQzzuNAf9j0w2/Gsc8IePxXfHnFCF9S+eZb+8UHPltsA67h8kdeQTMrpmj3zh3Uunz6D9+Mg/U9P/yRemRYdcM/y8D9rMplwu/zVNvhJq/rT+6/n3728MPy8bZXXqEzTjtdjv9N86dkTvh07IGePz9+nRcbHthAifFxuS3GJxJ0/rJ3yfJ8An0u3/M333xLtu/z5115+ts9fd58zTU3s+gmFg5SXCPndbDs0NTA7OvDA3e84eyVfN36M888Taee+nb5/ueZM48qfrbR84lj3sbcFs9X13CK5W984xvyqIPxyVhOScwVIW6i4OXytfbvfOc7k+/DK25WM7fN2wfemfB74pw2XIu/9NJL6NePPUbHHnOsPOLhnRGvj94p8zbb/MQYnf+uZWoJ7rjieOWVV9KnPvWp5PIYf0/0wJ8Pb4tkkBd/7U02elzj2KErJpk8JOLdU//5n3TlmW+jI55OXT7757NOo7/ZvZcazonTbhGnLMe1/IFm+6HKlbStqHnFeZw3Nr/ZV199jR4XtZrnnn9etkG+JT7c444+MutAq5mXzbVr/mFwjmd+D3ziq6amRn6xeYPvFT80v5bNtYLvfve7NCSC2F/+5V/KZXENX6eR5XZIvqyMPyzObMc5r/NZ9lGHzRLvYwYdeXgFHX0EDzPo6MNn0gLbwGVHH248Z/ydQYfPI5pVcZCOOmqueN1MOkrM4yhRzn/nzRPjYt6Z8A+AA5h54C/w5scfp/577pXD2NiTyWn5R8NtoXztNn/uB/nSSjFwTVu/nqfLFn/e/Lo//uGPNHTfoBxefOFFWWYf9DeQXzN7lvNOMRvm75omyxQeN3/PRx/fTImJp8S6TNFb+/bSKSce7/nz5vm89tqfZYDigS9P/L7Y2d54441yWL16tawJ33zzzbKdmwce54HL+XkeOIc/v9aYj5FN8dAh730Lso0H/J245ZZb5BF0n9hJcw2agysHcx3kGR/dcp587i3L35F169bR3XffLdvt+buTDesn4oy3J1fKjjjicHrw4Z+JIH+MPLLiz4p/m1w54+v7+eqgiaeeFjtqvjA2M/6e6R2tpr8T/Nc8ntwZyRKDnoYHnhevJw/2eabzotgZH3/EfDpu+w7ZL5OHvZVn0DW791G9CPL/JD6Hz4uj8bza6DVeeV5ZM/NjXnmu4fDGfNspb6MPXHqpqOGIWqr4wE8VATEf5mXzBuIvFrfJc42b/3Jtmz9kPhHk17L5y/mZz3yGdon3xLU3/iJzUw03Keh10R8eT8s/snyWffR8btMTH+JcEZznzqA5Im7NnslNMtOH2TOnRGCbojli4Br7QVGrn3cYt93PkK81D5zDm+edCScjOyC2oXngbS3LVeDmE4g6uJsH/jElg7v4HujX55TrRv0AXtm2Tf4oeeDvVbbi552nxrJj/q5pbt/zk08+ia6or6P9IrCeKGqP2X7XuEMRByEeGH/H3ve+i6i//z4aGnpAVCy4w9TPRU3/UTnwOJfxczwNT6tP6PE8OD/6Sy/xYb11/d1kGw/4s+nu7pY7FQ7gvEz9l3c+dm1tbTKo886At9m4OPriWv0XvvAFuR298vIt4oreLLGzf+7Fl2ipOPLmJixeBscGXi536uIKGzfDvvTyi/Q+jzdr4d+3E/N3gseTg1gPy2M18HbgbcA74q1bn6YTT0x/cYRZ4w9/SG+ceDL94qwz6JCIKzsqF9EXRE3+L88+h64TQV4uk48k1PQSt8npwzVPxEqa8Uqb8WPeGBxouVs2N3Mce9yx9BtxKMedbE47LftrRZMcltXc3CzbFDngcu2am2t4433wg5fLcr+WfbQ4auArKPjSKm5f5PZHruWzK664Qh5d8GHpaaedJgPaqaeemteyj5w3k/brvj/im82dnl7ftXfaMMnDm3tph/j7hvj71j7xg5khauxyW1m3F+N58rwz4Vrgfg7mpoF/KPu5O7cY54EDuj3I88C3T9TTcBMGv/b9l1wi2xaL5XkRiLPi8F0zs3/P+Xd03LHH0a9++xs68rB5WX/e3OTHV8c899wLcuDmH553LLZYHCXy+YYz6Iwz+O/p4u9pcjDGjed4vLIyJl/Dr9Xz4cdz53pPC5FNPOBzYZxigYP1f/zHf8hlcdPe+973Psc0B7zjWblypfx9ciVp7dq18oQt7xi4Gcmrg+L7xEfU/Hvk1/H68qDHufzxJ8ZoLDFBly5fLnd+vFPi9eSKCTfb8Gf3vDja/vkvfkGXqd+xF9y3whP+vojB/K3h7wwPvJ24JYKvouKd++QOTvbGp1K9OUJUID46MEDjO96khxedRv8pKp4nLami68UOgAO8lhzjN83B0G+8UTkocM33KHHI9NSzz9IR8+eLL2P+OS7sTj/9dNkW/q53vUtuRA6wHIR5I77nwgt9W3YsFqO/+qu/Sl6CxT8I3fmDAzy383GTDR+q85forMWL81o2pyeumDFFb+7hHp9iWx6ooD0HZrgPB2fQ7oMz5XScMuGtvQfFIF5rG/hcH887E27+MtfmeeAgzsFbOyD2GvYgz4O5Rs/fA37t82JbZNOE4BeuuTGuddqDdb7M3/P5h82niWefEUduR+T0efPVUZdcslxUGi6XA+8o+Dt38cXvp+OPP1YMx8m/xx13jGUwP8fT8mv4tXo+PE+vJ3izjQccWPkz5t8f15L5s+dgar6O346zOnIzDr9uQASrv/3bv5Wv4QsYvOLX8m/OPHDa42XLlsk4cMEFF9B7a6qpsaFeXtbJ+LPS30mu7T8pjip+8eij9KEMFwfY8U6GtxF3AuPzEjxwXwfe4XGTGbe183ka/qbZg7zG3xden0d+/oiMG0sWZ3dhCNPBfuyYw+kEcST3/9mCPJt5ww03fFGNy72dPtzzQp4sEiup9076Ddgf86HJ5I43aN/BKTphwdHiECn7zgB2YVr2+eefb1kuD8yvZe/fvYN2/PkVqti9nWbve9234QjaQacdfYiOOCz9tcxni8Pd3/7mt/Sy2KHxjouHd75rmcxKyLcDlPd/Pf54+aXlwK4Hfv8v/OkFevnFF2UNnntmcm9PrrnwidC/yNAz8jVxBMgn9MzO+4vz5LznifnwSca3ve1UWRO0e1ocAutmj9dFjfEkscPnIMInzc+/4Hw6q7JS1py9yOa79rqo0b+57wC9TQQVP75rjGulvAyuHXMFgk+m8s5An/DTA5fNEUeMs2fPkUGDa9m88+FzRpnwZYf8efI20rKJBxzk+LPiz5avqOHMlHw+wdw2b8frzOfR7rnnHnkUzIGRtyHX9vm95ornyzs08+ejB41r0rwz2/badrHjf51qL/Vek9e++c1vyu3FOzk+6cz9HHjg98EDn4Tmyibn9uF14uXrv3pd+PWPDj9KZ5x+hpwuV3PENjv/4810bsNfWd6nZrm8kvGb94r3ZPYagn0hvLfaJ2p7r+/cRUvOOpMWqr1qvspp2fxl4BqCDlx+4PXlyyO5lusl4HGirI6bbpY1Ew4i57/7L2n+3HmyOYZr59xef1D85fdtxidLn3nayMb358nX6YTjjpeB80ONH6bPXXONLE+HUy8MPzqsHhF98lN/o8bSe+inD8qaJdsqlv8X4n3ye972yjaqq6/P6kbU2Xze28WOvSp2li/fNd0cxIGTE5f9wz/8g+dLEbk5pKenR9TiL5FHurzNOci44WBlv7ySeY0HvPP9u7/7Ozr77LNlz06+4TY3zXjBydj4kkt+LX/P+Qod3qHlit8nB1nzZ2b/vLjZ5Y1db9FRhx8mjgByO2fDnw83G2nmZehxvjiET/zyOuntz8/x94WPKPgcBZ8b4KPmIOV1HT2UF/4xM/4B8ckj83X0bvgLrWuJHAC4OYFxDS5d4DHjSyx1fhTeydh/tE5kM5H4IfGP8acP/pTqLq+jGTNnyGDCPz4v8yg2Xn8O9DzwtuMaOgdsfm/8vnh78F/G25LfE//lz4dfw7Vx3t78Gh5427lxCvTZxgNeXz4y4J0Rb+NscFMPt9dzgPd6pFUK+LuvPyM7/pz4d1AIeV1HDwDRYA/0DPEgOiyBHgDKk1Ogh+jwduwMAAAlC4EeACDiKn7yk5+g6QYAIMLQRg8AJYuv14fMUKMHgJLBOffNONBzFkpIr2J8fByBHgBCj5PYIdDnBidjAQAiDoEeACDi0HQDACWhHJpuXvvW12n7+m/S1L5Ucrl0KubMpeOaP0vH/336vFEI9ACQ1if/xvn2jd/9r/+rxgqjHAL9lov+gk785N9QxezMd35jUwf20yv/9V1a8sgfVImz0m26eXYdNTWto2fVQwAIv42PPEJr1vwb7d+fupcBJ2Bb829fo9/+9reqpHxxTZ6D/P43/uhpqJg121Pt3xroOXiKvePijo2qwLCxQ5SlC6rZBF29DNNgWxwAhAzX3s1DrsaeGKPf/+EP1NXdJYM9B/mvfe3fZR73Tb/7nZqqxEx0U01NN02ohxllMf3Mo45XYylOZZlMr9G/4yq6ass3aJ2O2iIwf2PLOyjtLSJOX0l9fSvJuL+/B+9YTRvGx2W+8PENq2nLZxHsAcKGm2x0s40ed2vG8aql5bN04YU19Ic//JH+vevfRe3+azT6+OPyRiOf+bu/U1OFiDkou40HZOZRJ9Axn7yFjlj+cVVCcpzL+LlsODTdnEUfqCcafNiI9Bu/dSstqRcFyrPrmky18SZjh6Br9OrvOj4C8Fpb550EB/tvqCMCS42/g1Iv30gdyXIx31+rYraxQ5SpdQGA0OJ8+f/Q2krV1e+hP/5xlDY/sVkE/vdSy2f/3vP9CYqmso2Gh9vI/Z5Z/jr4xqu0+48P0fx3XiYD/OHvvVKO73ni5/K5bDhu2TNWfo6W3Pot2ihr86vp7y9WTwinr+wzauI8fHMJ3fotWyT//a301Af081fRD3QAT+f0M2nJ75+iZziY14odyzeN129YvYU+K/cUz9K6ps8SqXIeOv/SeKncMcin+mil50MKAPDCqckm31o93zhl185d6hHRzp07RFkBbhZvr4Xrx+pvd2vqloOtQ3IC6m5up5GRdoqJspqbb1Kvt5WvMwVdnpeaR0VFDXXrhZnLY+K1qjiTNx/9Ib312H0ywB92fj3t/t0DtGvj99Wz3rnsQpfTB676AX2Wg+7nbE0y5hr3Z39AtOVpayB/h9gxLFfjZ5yVvsnH7tmnaYvp9adfXE/v+MFPxQ7nYRok03w1sVOprX2KPjfeKdYYAArBHPSzpdvkdXNNTU21rNnrNvuiEUF7rHFK3rVrarCFejs5oFdS2/oucfTRRQlRPrxSN5e4lQ9Ra2yMOngePCSaqK+Z58Pl7RQf1OXiteoVnoidg1X2d0dzPVZa/verRZC+ij5gjqAc5GsHqX6Dqllv4Gl8IAP8WXSGeuiZ2Cl8M1nrB4Aw41vqfe3fu5JBnptr/vEf/iHZZt99++1qyiIQQXtVnRqPVWUXiLWJLTRKvVRvrrmPjFGCy83zzwI31+iavK7ZH7H8Y+KZ7IK9e6MYt5071ZTfUU8Xqyr+sw8P0u+N0Tyo5ho+cpBNOLeSbg2S87/qA7T89IupnlLlZmes7KNv0mepCQ30AL4zn4TNt8mG2+CXLXtnMsjzY91m/973vpcuFLX7kqdq+bLmLoceyiG+S3zCdX784mRzDTfj8Pi8c96X9ZU32Z39EMH/c0tupVrVdLPqqSW51ei5yUU3/yz+Bp0ljhA65R5lOXWqq3D4udpbl9A35ROn08o1qXIezCdjl3d+k5bcWotgD+Ajc9u8ecjHZbW1IrC3WE688vg//kMr1dTUqJIAcQ1bjU4M9HlrKze9xsJeXrmE4iPttEa275vI8j4aUO31XpfLJ1xf/+4XLG3yPM5l2Z6MRc9YACgJfvSMneiuoVi7EWarW1qIRqto/Xqi5mai9fqKGj5xano81FpB9b1i+ptWEz10Qvpyfq35ZCvX8Ll8qJUqeGIu0svVyzN58j1n00ktrbIzlBezjzqPXu7tobN/+aQqcYZADwAloWxSIPzNJ2WPVy+8pkBAoAeAklAWSc3u+gZt/05vdknNVrbS8X93tSpxhjtMAUDJiHqgDwruGQsAJQuB3pvsrroBAICS42uNnveuAAB+W7hwoRqzQo3eG98DPTY6APiJe+Ej0OdHBno/a+LY6ADgJwT6/CUDvduGzAY2OgD4zUug77ytiHlySgACPQCEmtdAf+faf6Xr2/9ePUNU/e5lVFO9TD1KOeX099CLz/5SPXIX9ulOPaOaXngmczIFnh8CPQCEmtdAf9jM7XR9WyrQQwourwQAiDgEegCAiEOgB4BI4DZ5cIZADwCR4HTiFQwI9AAAEYdADwAQcUW7vPKmm25SYwCl58tf/rIam+6ee+5RY+DmIx/5iBrLzOvllR3Xr1ClYOch0G+lO2qX0fjnJ6m71hhf/RjRBbduog1XL1LTGLIN9Ol+LABhlem7y4H+/PPPV4/A7je/+Q0CfYF5aLp5isYfW0lX1IrRDWtp9dK7aXLyblq6ei1tMCYAACg67gHqhd/TcQ9VL4q53Kza6Dfct44uWHyWGDuLFl+wmRJbjXIAgGLzkjaA+T2dlzQErJjL9RDoa6n7bqIrFyygK9etpM9zcw3X7GkFXW5tuQEAgBDyVqOv7abJyUkxdIuwrx5vuJoQ5wEAws9DoN9AbQvabO3xfFLWXlYCXnuE7rjjEXpNPcxavq8HCNIzd9GKFXfRM+ohgJZVG72Vj230HEC/+EX6ohrueKSIodQpmOcS4Md+lHw/cvjRmHqixGDnFk4P30inn356arjxYfUEwHRpAj3X2hfQggVX0jrxj9voFySHZbR66efJdnVljsboR19/nM69RgfFq2jhq6+q50Li+Ivo6qsvouPVw0xee+QO+uIPiK4yBfqr6AnxTgHy98xdK+j0lUTrnn2WnlXDOnqAEOrBTVE7TBnXIotA/8Un6JwvfpSqjKdSuDb59YfoFfngRLrkmqvpIhFtOZB+/SGjNFlOYto+onMXPkQPjcZFkOX58bx/QKNqyvhll9C23+tpVNlVX6SPmhfMyxTzaTIHdl3WRNTX9yotFHMclYtPrVPKa/SIMQNbuWJ5T2o95fxT841fdQ2d8PDXid+iXL8TrM/LV+r1dp2fy/u0TO+07eQTanp+L8Z6sBMvuYaaqC+17U+8hK7JYgcYFcW9jv4ZumtFO1HXvfSZM1SRxk038qnP0Bk8vvwW2iSfWEZf2GhMzzuJ5bcYpclyMl7XcPYtdMv3PiF2IF+hi9UUQcB19IXnoenGqNm3mRvkN7TRgto7xDN+qKJz4qP0g2nNG1zTf5Uu1rXia86lx/uMJoTjL7o6WVP+4lUL6aGN6nWvPESvnsPlHOQ5SMlqdXLaj/I+KDkNvzZOow9n2SzxyjY6ocl4/TWXED2k1inptSfo8VcW0gmO0Y/f00O0UK3TNZdsox/o96zny+v0A95R2NbPtFxjmh+JuaWbn9P7dN+mztMfTxc1XUInckAX5Vef8wT1PbRQbFJjuqsWvkohO/aKvmcepIFNZ9Mie5C3eJhuXD5B1+oa/8YGGmg32u7P+My9yaOAZ9edTbf0qOOATbfQxGVcHmyQh+LwEOhNHaa02mvpVrqX7vepjb7qoyrAiEAi/3Kweu1V2iZqsHIHwAPXQl9RgYVrpbr8B6IKuu1VI1iJgLRc18454JLpsWae5oQTRJ02SyeeS+eoIH78OefSiXqdzE48gU5Qoxb8nkzLl68fVU06er68TuZxfo6ZlktV54i6+zZ6dUu6+Tm8z3Tb1Mt2Of4EeVTxgy/yToY/N4ejMAjesko6U406emYrPUnfo5W6/Z5r9psm6Gn5nKi96/KV3yN6cqtx8nbZF6gVET6yPAR67hy1ju4z1+i33k/3PraUYn5fX1n1URGArqK4KVhxTVIGJTmoZglzm76oVmcdrIPEwfCVx+mJrA4TCshpm6qnMquij8rXnENPyL9GwIcCOmMRnb1pgB7MdGmNCNwbdc1dDqKmLptzBqhhoyrb+AWKUmJfv3ueBtFD1Ysglush0C+iqzfIHlOpk7HL7qUVm9Q19fniwG1uspG1XlEjlgHzIdKtMham2u1rTzyu2pttjj+HziWX1/tELjt+ji1QVtFybtL5ujUIjv1IPLa9J+fXezD2BI3yNliS5fzSbdN0TEdSP5JXRHHAv4YuOVEcVYR1hxZZF1PrF4huWX6j5eTrwzeaHsudwS2kW2UsljXQparZ55kHB1QbfjT43fM0iB6qXgSxXA+BntVSt+wwpYcNPl1xI3BA3vaDVA2Ta+tNfIJPBBNRW9/2A1XOA1/md/xFdPHCh+jrqqzv1YUuNXqjfdn8+h+Nq6cyEcFQz39ardX03NcfP5eusZzJNfA5BNlenpzHF+kHxAHY+p6+zu3dDq93ZF4nPvUgT4JmOz+XbaqedcTbW51DueOJWbwHU6/9Oj1+bpPzCWcIFLezb/zCk6mmGTGspMtMbesX01dEbf3JlannT+fr68/4DF179i20XJW1T5wdqRo9uPN21c3WO6h22Wp6jC6gWzeJIP9UGy346mLaZOsdm9tVN5ARH/XIC3nK7wqXMEL2yvzgqpvC83bVTSs31UzS3StVkc8nYwEAIDger7oJ4MQreJdlhy0AADMPgb6Wrlhpu+oG2SsBAEqGx56xqTtLGVbS3TqTpUm2bfQApQpt9LlDG33hFS0FAkBU4Z6xmSHQF1aaQM/pie+jKyavoPtkYjMXK++myW6jbo9ADwB+Q6DPX5o2er52XjfPcFON+Tp6PdxNK9fdh3vHAkDR+d3zNIgeql4EsVw03QBAqKFGnz+PPWO5GceUAmFBLd2Ba+gBAEqCtw5TtVcS3W1qstm0gu5dVoK3EgQAKEMeO0zZ0hQvupxWXODjrQQBACAwHgJ9AdMUAwCA7zyejOU2evMllvl3mOKTJwBQvjpuuE6NpYeTsfkr2lU38oPx+EEDQDi8+OKLdMopp9COHTtUSW7W3rkOgb6APDTdcG0eJ14BAEqVh0BfS9feutnaRg8AACXDU41+7erHaJ35VoJyQC0fAMLD756nQfRQ9SKI5Xqq0VtvI6gHn+4ZCwDgA7/vyRrEvVu9CGK56QM930IQNXgAgJKWJtDzLQRX09K7VQ3+bqIr24oU6ie6qaammybUQwAIr7a2NjUGYZEm0Nt6xNZeQYFmqnQK5kEFeOw4AAKhgzyCfbh4aKMvoso2Gh5uo0r10DdBzRegjNmDO4J9eGQI9OvoymQbPfeMNT8uQJu9peY9RmtqKqiigoca6uZC9Xx3K5e10pAsqlHTpJnOPF8et08vi03zQe0fIC1zUO/u7lZjCPZhkSbQu11to4cCX3UzMkpV66doamqKEl1E7c0q+I6001gjl/dQnXhY2TYsp5HDYJza13D4nz6dYYhaY2PUoadPNFEfz1cE/+b2OA2q8sH4GCXUKwDAnQ7y5mAPxRfuphuz6iZqUG0tlQ1NVD2igm91F61KRW5rDb2+l2h0i7FDsE/HJrbQKPVSvZ4+1k4jPN/KJRSX5cZRQl2PeecAAE7swR3BPjxKJ9B7wUE+1kdNCV1D76KMXQrEDiCha/Ry4KBeRz1yvJH65U7ACPgA4MwtqCPYh0NJBvqJgT4aaWl0rmWbav5yOmPUGdfcR9pJt+4kiR1Gq2ys54CfoK7qUdqCRnqAUPO752kQPVS9CGK54Qr0IujGdDOKvRZtei7W10SJHocwX9lGHfHUdM1j8Qw1ehHIRa1/tF4vUwx84lXsAKg9pspi1Ne0ntpwiQ5AqPnd8zSIHqpeBLFcpCkGAM+Qprg0RauNHgAApkGgB4CsPfXUUzkPUHgI9AAAEYdADwAQcQj0AAARlwz0fPY63wEAoo2vuIHSkwz0fPlSvgMAAIQPmm4AIBL87nkaRA9VL4JYLgJ9qRtqNXrwtiIbD5Q3v3ueBtFD1YsgllsmgX6CupO57PWQe6Iynau+RievD8iQzJ9fQdYYPkStcv2N3PlD/b2ytKUxiPya1mUBQGmKfqCXaYtj1E5OWSpzMUEDfbwnraYmnT0tEENkxPAWssZwnVlzmNoq3abxi3lZqggASk7kA/3QmnaZwbKlw37rQF3LN9VWdTOIvKPU9KOA1iEuEzsNecQ0Qu0xPa3ptXrQ1XB7OQ/iNcbdrtTg1Owy1E9GDLdm6bQcTehpzDn17cvlxzzO62nO1a+G5KIdpn/QfuRify/JFzttK/UUABRdxAP9BG0ZNcZ6kxkq3ZpshqiVb1TC+emHl9AaPgoYaUneZYqHnrpKamgyToBUdyWM8uE2SnDQrqfUHalaxAS9ndamlUF+blDUvQV9tyudL1/fHMXEuUnGejThOO/efvn+9HPijcsbsFQ3NVAl3ytXraNedm+/sTWmTx+nUfOyXN8jN+84bSs5NwAIgYgH+kpqG+Z88uqhJGq/shZeSUviqkgYaq0Xz1RT13pR87fXlE0112nNNqKWy/uH5LRikI9lXnxb00qylj4oA6HOly+DMJcnuTTJTAyQsXiHecu7ZfFzVRQzvV4H32FuezHXyPluWjyFsWLTp28YTS0rkeY9Jty2FQCERRmcjOVgr2qashoqxJdYA+uAEchaBlVbdF0PJcx7B1HLlc0XlkBrPGWtVZsGUdNP7jBU84u1lp6mrd+t2ca8Y7BNk+45ZtTIxa5MHononZ99B5Sa3jy/RLr36LatACA0yiDQaxPU3ckBS9TaLTePHaH2dlGuatmavsm4sW8wgvH0GniqaWjU4RZU1sBur4FP32kY3NbTpdmGZzbBNzMXz1V30Xqxp7Iul6WW3cF7Mr1sxx0QMy+L0r5H5rStACA8Ihvo9UnL1BCj9vigCEipK0hiVaomyu3yOsrbTjjW93JzhvGaStXWMyLvPsUncflowWgbN8rU62TTkC2wp6uBc7mmgzDvgPhkr5xnKw05NttwBVo8z80w8twCn3C2LVeKkfFWVfOKS7NNKs6bl5XmPabZVgAQHmV8hyk+iaja5RMITgDZ2LRpkxrL3llnnRXIHabuXPuvnjobcU9RP6fjHqpeOi8Vc7ll1HRjpoO8qMfqdnkAKGlegiPze7qI9IzdQG0L2sT/zbbSHbX2slKiOwLhMkAAiL48avSbKbFVjQIAQGilCfRca19ACxZcSevEvysX8LgeltHqpZ+nqxepSQEAILTSBPpFdPWGSZqcdBm6a9V0weGmFQAAyI+3ppsNbabavB6CbaMfHR2ljRs30qFDh1QJAADkwtvJ2Cs3062b7LX6bgqqTs81+e3bt9NLL71EjzzySI7BXqfY1YNOXpZtuQtOECavl7eNAwCEjMeTsUspVsD2eA60F110EZ188sl5Bntzoi3zZZTZlmfAycJkZyUAgPDxEOhr6dpbN9N9Bb6WcsaMGT4F+yBMUHdzO42MtFNM7JRqbr7JqNHLmn0rtaqUvUZaYz2uX2pOFayOGtQRgZG6OPcbogAAOPHUdLN29WO07srCttEzDvYXXnghzZkzRwb7sbEx9YxXqWyL1kRb2ZbbVVLb+i6q5rQDovY/vPIEVS6MjFLVenFEMNhCvfXNRHq800iL0Bobow591JBoor5m1eSjUxfnfEMUgPLGPUC98Hu6iNwztpa6LW3zwbfRa1yDf/TRR2nfvn2yZl9VVaWe8SLVKYpztcfbm1Wbe7blWdJJymJVYkdgGufnZCrh1M5E5pwZGaMEPyd2GpYcZgCQFb97ngbRQ9WLIJbrrY1+6x1UK2vxtXQHd5Liq3Bq76Ag+0txkOfmGq7Jc5DnZhyu4edGJ/Wyy7bcB+oowNih8IAaPAAEy0Pk3Ep3tN5LKzZN0t0rVVHttXQr3Uv3BxTpOQDmHeSHWk3t4pyNMU5LuHadbXk6ujbuVeUSio+00xo0wgNAAXmInk/R+GOFv+rmuOOOy68mH6uiUX37wFg7xQdVzTnbcjeVbdTRYjTD1Kx7VRVmUkc9ia7UcnjAZZkAEDBPaYo3tC2g+66YpCvuq6XEtRvo6qfaaMFXF9OmDVeTOf77naaYa/YcDAEgXMKYprjj+hWqFOw8VZVruzfR4q8uoCvXPUarly2gBVcS3W0L8kEofpC3d6LSQ4bOVAAAIeKxTcSe9yb4K27CwXwljnlADnsAKB0eAn0U89EDAJSPHM5yashHDwBQCtIE+uLno+dmEgAAL/zueRpED1UvglhumkBf3Hz0oUlTjMyUACXB756nQfRQ9SKI5XpruilwPnquyeefppippGII1ABQxrydjC1wPnq+hNGXzJXcw5VaxL8+GkCkB4Ay5fFkbGF7xjI/0hRPDPQRNa2ixvgI9elIb0kJbAw69cFEd02yzPFaeUuKYVM6YUu5GHAEAQAh4iHQFycfPcsvTfEEyTjfUEl1jS000jeQCr7JlMBiSKYQ5qwGw+o6eS6PU7slKQ2nGObUCMbzia5Rqpd7CGv5VKLLyFQJABASnppuipWPnmvwOacpls02Kk1wXSO1jJiab8wpgXUKYWaumdf3Eo1uSe0cOMWw6XWVDU1U3dtPQ7ZyAICw8VSjL0Y+eg7y+WSw5GYbfQeoiop66iVT840TDvIxsWtIZFkzT4yJOQMAhJfHyMm9Y821eZWXPiAcaPNLU8zNNiPUoptTeBi0Nd840TcKEeSOwhg12FIMy+dbGqnOfrQAABAyHqInd5ziLGam2vymFXTvsuCabrjpJK80xbLZxtacogPys+qxHacdjusjgApqHovbavTWFMOx9jgN9vACRDm358dUk0+sHTV8AAgVDxGU89GvpCvM7TSLLqcVFwSbAiEej9Py5cuzD/JMBO3h4Tay5h3jBGXD1Hap7TnTtHU9qSOA4Z4eo9w8Lx7XRwjmO0PV9SRfx0cOFF9iWzYABM3vnqdB9FD1IojleoiiZ9HiC9ZZr7rZej/dW4CbkXANuRQMmS7VrKgnVdMHgELyu+dpED1UvQhiuR4CPadCuJvIfNXNsnH6fNmkKs7MfCSAe8ACQNh4bBexX3mDIA8AUCrSBvqtd9TSgto7yN4Uz7cWXNBWhB5UAACQtTSBfivdfy/RrT3TbxlY2303rVx3X+AdpgAAIH9pAj1fbeN2wpVP0AZ31Q23dTtxKw8Ed6BCzhoAiIA0gT5dME+3E8jPunXr6MYbb6QDBw6oEgM/5vLvfOc7qsQLH9IUZwr45rQJ5kRnQ62pK3F40JnTAAAKLE2gX0RXf34prZ7WMYp7yV5Jm2+91vcTsgcPHqQnn3ySfvWrX9HNN9+cDPb8lx9zOSc24+k88SNNseM1+Sb8PKdLqO6ihLriRmbB5Mssk1fiTNEg9ad2AgAABZT2ZCzVdtPkpsX0VUv6A6OX7IYA7iM4c+ZM6uzspHe/+93JYL979+5kkOfyL33pS3I6L9KlKU7GffNjc+1c93B1e95ce7cwsmZ2JayXWdb14LJLACiO9IGeLbqaNlgurZykIO8iOHv2bBnMdbBvamqyBPlZs2apKTNJk6bYUaZ0w25pim34KGIkTkvQNRagoPzueRpED1Uvglhu5kBfBBzMdbDftWtXDkFeSJem2EmmdMNuaYqNh1bVVRRTowBQGH73PA2ih6oXQSw3lIGe6WD/6U9/WjbnZBXkhazTFPtFZrlENksACI/QBnrGwb25uVk252QnQ5rikTFKyOnUDoFHbAHac5pi46FJHa3qImqPWdvwh1rd2vQBAIIV6kCfs3RpiqmN1nP7ujqpmkpHbE037DlNMZ+g5RO38ujBCOZ8S0LZhq+WwUM9Oe0UAACCVzE5OTm1bds2WrhwoSrKHc9n8eLF6lF6nbfdTh03XKceAUAp2bRpkxrL3llnnUVr71zn+fc/Pj7uGp90zJHx5PoVqhTsolmjBwCAJAR6AICIQ6AHAIg4BHoAgIhDoAeASPC752kQPVS9CGK5yUDPZ6/zHQAAisXvnqdB9FD1IojlJgM9X76U7xBZ5sRmmk5wZst3I28Unpx2iFpN19Inp7UkR6uhbvOMTemNayxPAADkBk03+ahuoZbRzlSgFgG8c7Q61dFqqJ9zFaveuQnqktNOUHdzHzUldI/dOLU3qx0DB3lTeuPhNmRGA4D8IdDnpYoamyiZQ2doTTvFm0SBVtdD3HnWkKAxp6yWsarkjmGof3RaemMAgHwh0Ocp1tZB8fY1NCRr8120qkE9kaTuclXRT43yxiSV1DbcQWMq1UJFTNTu1/ONTYaov3ckmYKBB9yUCgD8gECftzpqbOmles5V3+F0JyoO7NwU00j9qj1+qFW2zxjNOdUiuOtMadSSuiuVzKuDRGgAkD8Eeh/UreKblLRQY9o2F94hjNDYRlXzl9PyTkC33cuJUiobqKl6lLbYywEAsoRA7we+b6y6X6zZRHerKYBz00w1VS23pjuWmTZl271xZNCpX4A7VQGATxDovUrexIQHb00qlUs4L71+DTfXDFObCOjmdMeyjV6dgK3rSVBTX2xaOQBAPhDovZA1dtV2LgcRgLls2KFN3lxe12N6zVTqChzL/Dj4q/Jke769HAAy8bvnaRA9VL0IYrkI9AAQCX73PA2ih6oXQSwXgR4AIOJwh6k0NiF9D8A0y0SowB2mSgtq9AAAEech0G+lO2oXUNuG1PiCBQuo9o6t8lkAAAg3D4H+KRp/bCVdUStGN6yl1UvvpsnJu2np6rUkYz8AAIRaVk03G+5bRxcsPkuMnUWLL9hMiXKp1D/dTZ9u6Kbn1UOJy06qoHetsl5R/+gqUZacdoi+zNPoQU+rXyuHGvre00axazl7sFWVV9Cne9FdFgC88xDoa6n7bqIrFyygK9etpM9fvcio2dMKulyMlrXzW+gjY52WQP2tsWo6Tz2kB/uJvjtFv32ZhwRdL6edoO/9Ux/Vjqjy78bpa//EOwa3cp6PCPKfJFor5zNF327BBfYA4J23Gn1tN01OToqhW4R99XjD1VTucZ7TFL//Q2K/t8GoYT96RztVfsiUpvjSHrrpUjVOCXr6N3E6/Uz1UFtUldoxmJnKH71/lK4f6aEL1WMAgGx4CPQbqG1Bm609nk/K2svK02ktHVT5hTX0qKzNd1Gz3BOaiZp6Aze59NP7X+ZgXUmfGOigp6tVE021qMX/Rxu93bV8iH72f0foa7pcDF9+UM0aAJL87nkaRA9VL4JYblZt9FZl1EafVh29/1O9dG21qM23c2C24wDOTS6N9DPV7v7oqnrVpJOg688XQfwOo+3erZzTF+tmm9+OdNHEJ1vpUfUMABj87nkaRA9VL4JYbppAry+lvJLWiX/cRs+XVRrDMlq99PPEzfVAdOHVXXSeCMbvTzbTOOEdwgg9Paxq/nJa3gmotvufu5SbT8iyMxuo9vxRetZeDgDgIk2gX0RXb+B2eZehe1obRfk6s42+LZtlrJ7vbTUFam6CqaYza5ZQ5W/aab1ufnl6gDZw2/37XMrPNI4YvqWvtEmWGw8BADLx1nSzoc1Um9dDmbXRiyDcqNrI33WSt6aTt59FprZ1bpYZpk+IwH2TbH5R5dwWL0+0upWLI4Y1Car9cWxaOQCAFx5y3fDJ2K/S4k0bMjbVINcNQPQh103p8XgydinF0B4PAFCSPAT6Wrr21s10H66lBAAoSR6bbvjKG7uVdLfuQKVErekGAJyh6aa0eKrRdztddWML8gBQPjhY5zpA4Xlro996B9XKK21qSWYn5qtwau8g9JcCgLDwu+dpED1UvQhiuR4C/Va6o/VeWrFpku5eqYpqr6Vb6V66H5EeAELC756nQfRQ9SKI5XoI9JyPvpyvupmg7poKqqiYPtTcfBPV2MparVmLBfX6mm4xZjLRbXltTbd+dohak+Wt4pHmpVwM01cAAMqcpzb6K1aus151U1ZpiiupbXiKpqbEkOii6uouSvC4GIZXnkBkeszPj9bbgv3EAPVRi/jXRwPmSJ8Yo/iget3UIMXbm4lj/VBrPZEqT3SNUr2amVs5DfUny6emEtQ12innAwCgeWqjr+3eRIu/yvnoH6PVyxbQgiuJ7kaa4ukq22iYg31nqvY+MdBH1LSKGuMj1GeO9HU91FOnxilGVbK5bYj6e1uoUZVXNjRR9egWMS+3csEynwSNjcRpCdLVA4CJt5Ox0/Le4IobV5VLKD4yJkIumyAZ5xsqqa6xhUb6BqzNN5qs9TeRmMzKMi+TaeW6eamfGqd6KBn3AQAEb4EeuW5yYw7gdY3UMmJrvpGGqDUmplrfRrlXxHXzUiP1V9Sg6QYALDwE+g3UduVmunWTuUaPWr2riS00Wl1FMR4V1fmRkXaKyROl9dRLtuYbeSK1k6oSw9TmFOVN87JwKxd1+caWERqbdggAAOXMY9MNct14w7Xzdop3cO2cm21GqCV5olQMg6bmG3nVjT3Ic6DupX51nlXuKOJLxLzcynk2raYaPLflV1PV9D0AAJQxD4EeuW7SStbYeeDAPWWcHJXNNl20ytxgbmq+kcFa/GuP6dcal1jW9QwS1RuPY+1xGlRnWt3KK5eQaR58ZY7L0QEAlC1PTTdrVz9G665EG728qmbY1JbOj3VtXQ6mIGufVqqjHjVNZduw6XXGMCxfzNPoMvOJVZfyuh5VZgypK3AAyovfPU+D6KHqRRDL9VSjR64bAAg7v3ueBtFD1YsgluuxjZ4zWJpr8yrnDQAAhJ6HQM83CeceUqba/KYVdO8yXF4JAFAKPAR6znWzkq4wt9MsupxWXLCZEqjVAwCEnodAfxYtvsCW62br/XRvWSc6AwAoHR4CPac/uJvIfNXNsnH6PE7GAgCUBI8nY+1X3pRTkA9jmmIxJBfkNj0AgMFboE/eYUoP5XQiNhxpit3SEbtODwCgeAj0fIep1bTUfNUNt+TgVoLTBZamWHBMR5xmegAAxUOgd7jqBrcSdBdomuIM6Yjd0hoDlAG/e54G0UPViyCW6yHQ8x2m7JdSlvvtBT3yPU0x0hEDuPG752kQPVS9CGK5HgL9BrpP31kq2UZ/Ja0T/64su/Z6DwqRpljU5R3TEbtODwDlzFON3jnXjR5wmWUK186DSFPMkzulI3afHgBA8xDo+aKbWlNtXg+oyUsFSlPslo7YbXoAAK1C1Mqntm3bRgsXLlRFdpzQ7D66wkPNneezePFi9Si9zttup44brlOPAKCU7NixQ43lZu2d6zz//sfHx13jk445Mp5cv0KVgl2OJ2MBAKBUeGq6OUtU0q0nY9F0AwBQKjxddbN29VK6GydhAQBKEppuAAAizlONfvp19IVpuuFLEgEAvPC752kQPVS9CGK5nmr0xbhn7OjoKG3cuJEOHTqkSgAA3Pnd8zSIHqpeBLFcTydjC33PWK7Jb9++nV566SV65JFHsg/2thTAPMikjg7lqdS+bul+Xcot80I6AgAILw+BvvD3jOXgedFFF9HJJ5+ce7C3pw/WGSXN5XLg5GCcLCyV7neK+yDJ/PFpypv7qCmhy+PU3mzLNw8AEBIeAn1x7hk7Y8aM/IO9lhjLkBqA0/6m0v0aPVg5C6RbuU2siry1lgEAFJ6HQF+8e8ZysL/wwgtpzpw5MtiPjY2pZzwwpyaoH6UunYvAkrKAB90cM0pbklVyzg+vHzuVcxbJDhrTKQk8Z58EACg8D4G+ePeM5Rr8o48+Svv27ZM1+6qqKvWMB5ammybq000rjk03ddTD0yRzycSoXd7Yw62cTHd2SlBX9Qi1r0m16gMAhInHk7GFv2csB3luruGaPAd5bsbhGn5OvNyQg+8Oldwx8C0DVbpfp/KJbuoc1QnLuHafurUfAEDYpI2cMmulwy0DN7SJWn1bcFfRc1D1LcizoX7q9ZynnU+0tvNtoWxNMaZyueNop2QlnjNVqpo+AEDYpImeW+n+e4lu7bma7E3xtd1308p19wV61c1xxx2XX5C3tNFzVt8MbehDrcnmmb6mBA3rJPGO5dykY9wIXD7HbfQJh1v7AQCEQJoImu52gXyCNtirbuLxOC1fvjy3IG9ubpGDCsJc7hbw63qS0yeDPHMrtyzD5Q5RAFAwfvc8DaKHqhdBLDdNFE0XzAtzz1iuLQMAeOF3z9Mgeqh6EcRy0wT6RXT155fS6mkdo7iX7JW0+dZrAz8hCwAA+UvfLlLbTZObFtNXLekPjF6yG64OuDoPAAC+yNwAvuhq2mC5tHKSulGVBwAoGTmc6SwcPtEJAAD5CW2gR5piE86UKZOpeZTt9AAQaaEM9FyTDyRNscQZKVV5zc10kx63DTXmbq4O88uYmhjBFgBCIpSBngNpYGmKZcoCo6yajqdP87iaptr0Gss182xajhxcOw8ApSG0TTfcUapwaYpzZdyUJFn7lzV/rukb6RJGVO9c+bzlqEAdDahaf3dr6kgheeRhnj4m5qWKHedjLzdPDwBlL9QnYznY+56mOFf29MayWcZIhUDta0TI1zcj4Zq+OGpYnzpCGG5LUGtsjDr00YA5m6aY71ijKh9soV555CF2ICJYx/UNT+TRB+Nyp/m4TQ9QPvzueRpED1UvglhuqAM91+B9T1OcK3vTjU6lUNlG67tGqV7mwlnv3JwzsYVGqVdMo3YSXOPW2TTFfJP7IH0DE57eXK65zcdteoAy4nfP0yB6qHoRxHJDG+g5yBc0TXEeKpfE1Vga9h2Fzr+TLb/mAwBlI5SBngNY4GmKud1ejeZniIx7kAxSvL3ZeiWO3rnY0xpnIqfvowE1r4mBPmNd3ebjNj0AgDBj27ZtcoT/5jv4hZslgklTbJw8NcpGqSub2//Z2+jliVCeH89c3aWKbxIeU7cmrGyjjhajmaWmO2ZNa8xD2ksv9byMaZvH4qrN3ZYeOTkft+kBAERMFbXnonQ/7bztduq44Tr1yBmvGgcuAAiXHTt2qLHcrL1zXcbfvzY+Pk4LFy5Uj6y4grl48WIjnly/QpWCXWjb6BmCPABA/kId6AEAIH8I9AAAEYdADwAQcaEO9EU6TwwAJcjvnqdB9FD1IojlhjbQFzVNscpBk1dPWgAoKL97ngbRQ9WLIJYbykDPNfng0hSbIKADQBkIZaDnwBxcmmKTyjYa1jlrAAAiKrRNN4GkKVY1eCMtcCsNmWv05qMAc5pf+9GB0/SmdMET3TXTpwUAKKJQn4wNJE2xKDfSApuTgbml+U1X7pAuWAT/5vY4DarywXhwidQAALwKdaDnGrzvaYqd0vmmSwvsVu6ULpiTi8lyI99NXQ8ySwJA8YU20HOQL3qa4nQZLs07EjmoxGZyvJH65U5AJTgDACiiUAZ6DpyBpyk2c0vzW9dILabyJLd0wRPd1Cob6zngJ6irepS2oJEeAIosQ/ScoO4afWmiMc5NFcl7pAaElxFMmmI3adICm8pTJ2lFuVO6YLEDEBOrsjR3nAIAKKAMETRBYyMt1MgNzUNrqD0+KGrbfIMNvkdqsOLxOC1fvjy3IM+XTU5rVlHl5oBvflzXk5x+uKfHsZzv6Ur6JuP2ZcjpddONMQwjygMUjN89T4PooepFEMv1HEWH+nupuoobP2JUVaAmCa4ZF9uQvBRTDfIeIzi9ChBGfvc8DaKHqhdBLDdDoOemC5JXl9T3tlAH11C5Zk9N1FAmldW6HlOtHfdnBYASlLlGn2y6UEGOH6dt7wYAgDDJHOiTPUBV78+hVvT4BAAoIRkC/QR1N/dRU2KK+DykVLeKusjhksMA8JEEAADkJ0Og56tu4rSkCO00RU1TDAAQIRlPxja29FK/+VrKApyM5Zp8XmmKNW5m0lfM8OCYqxgAINoyttHX9SSoqpOvuhkxOg5l7HyUPw7K+WaulFkkeV2TV8xM0SD1IyUBAJSdzCdjRUhvG04Fy0JdYsgdpXIP9hM00EfUlbCuazLJmCXFsMpHw2U1phTG06ZDKmIAKE0ugX6IWmWw47860JmHwiTr4mCfU5riiQHqcz23YE09nOgapXrdpGNJYYxUxAClxO+ep0H0UPUiiOW6BHruys/BztqlPzUUplbPNfjc0xS7JDGzpR6ubGii6l7VpGNOSYxUxAAlxe+ep0H0UPUiiOVmaLrRNfvC4yCfcwZLWzbKnCEVMQBEQIbIWUerukatV90UAAfV/NIU83pzIklrEB5qFY9tKYZlSuKWxum1cqQiBoCIyFijX9M+Qr3mdLwFqMXyMvJNU1zZNmy0v5vWu544oIsAbUoxHOP2dsdEZdbp5IBUxABQgipE7bko3U87b7udOm64Tj1yxqvGARUAwmXHjh1qLDdr71yX8fevjY+P08KFC9Ujq23bttHixYuNeHL9ClUKdhmrypZLCZNDYdqlEeQBAPLnoemGLyXktugW45LCRBdVO7VpAwBAKHls/K6kJXE92kBNo53JzkMAABBuGQJ96m5SsSp99U3xEp0BAED2MgR6Tn8wLK8q4atYGvu5fb6TqmypBYJSpPPEAFCC/O55GkQPVS+CWK7HphuDcVs9I/AHraTTFKu8OWjdAigcv3ueBtFD1YsglpvxZGwxesZyTT60aYoRxAGgxGQI9MXpGctBGWmKAQD8kbFGX4yesSywNMWqRp5KRzxB3TUVlKrs81GMkZJ4ejpivrUiJzdrp5goqxETWfsZpFIZAwCERcYafTGzVwaTpliwpCOupLaOFurVhy1D/dTb0kFt5JSOWEy7vouqVbKz4bZKeZI6uV0G49Q+LTkOAEBxZT4ZyzXgZI2Vh8K12XMN3vc0xcycjpjVNVKLSlU81N9LLY3iSa/piM3bp76XaHQL2u8BIFQyBHqjqULfpMOotRLVF+BkJAf5wqUp1vfGHaL+3hbiOJ86mkmTjpiDfKyPmhJq23CvYfUUAEBYZIic3DlKBz6lbhV1kQ+53tPgoBlYmmI1blcnXjBaX0+jXauMmrsI4q7piPkGJGqUqlM3Spcpj41RAIDQyBA9dU1XPZSC7xnLzSDBpSl2wakdqqupSUdtt3TElW3UIbYJz7dmoIE64saJWZ6ueSyOGj0AhI5DBOWrTkzBsZdsV93UkygKXDwep+XLl+cU5DXLiVIeOO+8CNTDw200bT81tIbaKVU7N2ryqdfyiVfN6DhmlOlx+binx5i32zIAIDB+9zwNooeqF0Es1yGKul1pYx4Kc9UN71gKRZ6E7UBwBihVfvc8DaKHqhdBLNeluqx7xFpr96nBva27VHHN3PFGUwAAJc4l0HOtnmvtbrX7wtToAQAgfzk0gBcn/w0AAOQm9zOdBcBHDwAAkJ/QBvqSSVOscucE3YEMACBXaU7GOp2E5SH4yyu5Jp9XmuJpaRtMScsyBWbz874GcSN5mpEcTXGavy6TKZbNTWRoMgOA3KQ5Get0ElYPwZ6M5cCcb5pizmfDicfk+ia416sK9pmucQ/qGnhOtEYt4p/HXsV1PTTY0kudKh3mRHcn0SBOggNA9kLbdMMdpfIO9hoHbw72naKmbK+xm2v+XJ583t+UxJwegZpWUWN8hPo85o+o6xmkeHszdQ91U3NfkzURGwCAR6E+GcvBPqc0xU5kojNTjhpuComZErZNS0jmZ0piIz8+p1eoa2yhkb4Ba3ONK5Wzp76PmtajMxdAOn73PA2ih6oXQSw31IGea/A5pynOZGILjdrTFWdiPgLIJiWxbLZR6RU4JXIWmTUrl8TVGACk43fP0yB6qHoRxHJDG+g5yOeXwdJGBnZTjvrEWHaZJjnI55iSWGa1VE1Axslsr8034qiDb4fIRw/NqrkJACBLoQz0HEh9DfK6mcacy8ZrzTrvlMTcbDNCLZac/qr5xiFvvpxvfIlcz+QJWJkaup1w8yoAyEUoAz03jeSbpphvF6jTB1dUdFKVqIlbc9nUUQ/XlGNqGrEjmBa4K31ISSybbRzuaCUDvFiHRBP16XUQQ6yviRK8okOtctx4nXG+YLQel1cCQPYqRA2zKN1PO2+7nTpuuE49csarxsGvIPi69f5GI5UxAKS1Y8cONZabtXeuy/j718bHx2nhwoXqkdW2bdto8eLFRjy5foUqBbtQ1ui1oIP8UGuqJl3BbeF5BXm3TmbZXYYJAOC3UAf6oJlvGpJ/JzC3TmbDxp2pAACKpKwDPQBAOZjB7V9+DgAAEC4z+CSHX4PfuOkDAMALv3ueBtFD1YsglhvaphukKQaAbPjd8zSIHqpeBLHcUAZ6rslHLk2xTDtsWideoXTrCQDgk1AGeg54UUpTLLNe8uWben3EMEj9Rucnt/UEAPBJaJtuopOm2Mhc2ZWwXr5Z1+NwOad5PVURAEC+Qn15ZSTSFHMKhJE4LfF6iDBtPQEA8hPqQM81+EikKTZnzQQAKLDQBnoO8pFIU+yQoTIt+3oCAOQplIGeA2l00hSru0TFrJknh1qdMlE6rCcAQJ5CGei5aSQyaYoFbttPdI3K+RjrU0H11GicjM24ngAA+amYnJz0rfupThnqBdIUA5SuMKYpvnPtv3rqbMQ9Rf2cjnuoeum8VMzlhrJGrwUd5JGmGCA6vARH5vd06BkbckhTDADloKwDPQBAOUCgBwCIuFAHem76AACA/IQ20CNNMQCAP0IZ6LkmH5k0xU7zsJc5pTAGAPBJKAM9B7sopSlOJ20KYwAAH4S26SY6aYrTySKFMQBAjkJ9MjYSaYqZJc2BGHS6hWxTGAOAK+4B6oXf0+GesXniGnw00hSbmpF4MO9UkKkSwBd+9zwNooeqF0EsN7SBnoN8JNIUp5NtCmMAgByEMtBzII1OmuJ0sklhDACQm1AGem4aiVKa4nTSpjAGAPAB0hRrSFMM4FkY0xR3XL9ClYJdKGv0WtBBHmmKAaAchDrQBw1pigGgHJR1oAcAKAcI9AAAERfqQM9NHwAAXvjd8zSIHqpeBLHc0AZ6pCkGgGz43fM0iB6qXgSx3FAGeq7Jl1WaYjHWXYOrcwAgGKEM9ByYI52muLKBmsjUK5eTm4kS3esWAMBPoW26iXaa4kpqaCLq05E+MUbU1BDszgUAylaoT8ZGJk2xg8olcRoZM9ZmqL+X4shVDAABCXWg5xp8JNIUO+Gkar18J6kJ2jLaQo3IvAAAAQltoOcgH+00xXXU2DJKW4YGqC+OJGYAEJxQBnoOpOWQpriuMU7t9WK9UJ0HgACFMtBz00ik0hRb1sWUa553NuIf4jwABAlpijWkKQbwLIxpiu9c+6+eOhtxT1E/p+Meql46LxVzuaGs0WtBB3mkKQaIDi/Bkfk9HXrGhhzSFANAOSjrQA8AUA4Q6AEAIi7UgZ6bPgAAID+hDfRIUwwA4I9QBnquyUcmTTFftmm+dl5enaMe29aTE6dNX3enaU3zk/M3Tc9vdNo8eMDVPwDlKpSBngNTZNIU1/XQYEsvdaooO9HdyddxUh0HfHNKhalBiqskZ5Z1HySq552NysBpJFkzrhCS2TT5slA9rRgGifPn2OYhB1z9A1CuQtt0E6U0xXU9Ioi3N1P3UDc19zWZEqnFKZW0so56nK7jl6kazFk3tQka6CPqSlgvC63ryfcyUQCImlCfjI1OmuI6WtVF1F4vavDr9dECJzUz0ivI5hYXfATQa07GpvHNSkbMOwobS9oFMeTbBAUQctwD1Au/p8M9Y/PENfiopCnm/PN2yQ5bjf3GPHXANwXpmDgCSLg1JTntADR7003Qd80CKDK/e54G0UPViyCWG9pAz0E+OmmKxdEDt6XzUUCzQ826rkfMc1DlpxfMQdotQMsjFA/ZNwGg7IUy0HOAi1Ka4uQJ2LpV1EXtJFt8eMdhbrKx74gyUs1BMfMVPXwRjvUxAEAoAz03WUQmTfFQq2x+MZqIjHb/0XoRjPkG4aP1av14+eb2ewfyiEKfHDaCOZ8zSHSNGu38aqgndRMTexs9Lq8EKFtIU6whTTGAZ2FMU9xx/QpVCnahrNFrQQd5pCkGgHIQ6kAfNKQpBoByUNaBHgCgHCDQAwBEHAI9AESC3z1Pg+ih6kUQyw1loOe2bSdu5YFK5r4BgDDzu+dpED1UvQhiuaEL9OvWraMbb7yRDhw4oEoM/JjLv/Od76iSNMypCtSQ7JuEwA0AZSZUgf7gwYP05JNP0q9+9Su6+eabk8Ge//JjLufEZjxdRuY0AtmkKQYAiJhQBfqZM2dSZ2cnvfvd704G+927dyeDPJd/6UtfktNlxVOaYlPqAHO5ucesZfrU9fGW9MU4WgCAkAld083s2bNlMNfBvqmpyRLkZ82apabMUoY0xTKVgKzyu6Uv5vIx6kgeJTRRHycoE8G/uT2evPnHYNwpdzwAQPGE8mQsB3Md7Hft2pV/kHdiS1Nc2dBE1Zw90i19MZeTyh/Pg8w7I4I670BkuXFEgBt/AEDYhDLQMx3sP/3pT8vmnLyDfNbZIR3Yc7zL3rS6R2wj9cudALJHAkC4hDbQMw7uzc3NsjknPw5pimVTjkoZLMi0wy2NVGfL855MR2ybPmmim1plYz0H/AR1VY/SFjTSA0CIhDrQ58VLmmJ1NQ5PE+N2djmBNX1xKh2xdXo58IlXsQMQE6uyGPU1rUduGwAIlWgGer7KxtLEYkosZr680jKdqW1d3vHJKB/u6XGZXgyyXDfdqOkR5QGKwu+ep0H0UPUiiOVGt0YPAGXF756nQfRQ9SKI5SLQAwBEHAI9AEDEIdADAEQcAj0AQMQh0AMARBwCfdaGqNWWFK3GfPdvLnNIbCZvRD6t3DQvG8v0LsnUAAC8QKDPgpGlsp561WOpuoXifc1pgy8H7U5qUR2vDI7zUqzTT1B3cx81JdS1+tyZi5OpyecAADJDoM9CZduwKZulVkWrOkTwnZYbwcABvbMqQcOrqlSJwXle7tMnxaqmvQYAIB0Eej/U9dAg1afuYqVw0G6m9Z57yzpPX0ltwx00plIyVMRE7X49bpwCYOd3z9Mgeqh6EcRyEeh9UrdK3dhEPeYml4G+ERrReXBkWuN2irm0yaeb/q7WeiKZH5+Tpo24Hj0AlDO/e54G0UPViyCWi0Dvl8o2Wt/UR2sG1GNZE0/lwJHNNJzm2PU2hi7Trye6a1Tnx+dpRLAf7cQJWQDwDIHeR5VtHUTtplsP+sGeHnligPpG4rQEbTcA4BECfRbklTK6SaWiglo3qieSOMVxixpPb9q8XFtjbOmRuY0+gbtYAYB3FZOTk1NqPG/btm2jxYsXq0fpdd52O3XccJ16BAClZMeOHWosN2vvXOf59z8+Pk4LFy5Uj6x0zJHx5PoVqhTsUKMHAIg4BHoAgIhDoAcAiDgEegCAiEOgB4BI8LvnaRA9VL0IYrkI9AAQCX73PA2ih6oXQSwXgT5rIUlTbF+OnMacwljMu6JV/B8Ayh0CfRZkJ6ewpCmWPWbHKCGnEVMN9Il1IRpLFmyh0eoqiqmHAFC+EOizEK40xXXU2DJKW9QOJjEWpw6xHqOpAqKmBmS5BAAEel8UKU2xiPnUN8CBfYK2iB1OrK5RHF0MyOacof5eiiMhDgAICPQ+KUaa4sqGJqOthhOd0RIR/GMi3HNzjgj8oy3UiIQ4ACAg0PulGGmKuZ2+t5+GEmMUl1G9kjj2b5lIiHCP9nkAMCDQ+6jwaYqNdvrOzlGqUlFdTE59zZ00ivZ5AFAQ6LMgr5QJWZpibqcfoSZq0FFdFoygfR4AkpCmGACyFsY0xXeu/VdPnY24p6if03EPVS+dl4q5XNToASASvARH5vd06BkLAABFh0APABBxCPQAABGHQA8AEHEI9AAAEYdAn7USTFNseb1tfQEg8hDosyA7OZVcmmIR8GUnK51eYZDiyYkAoBwg0GehdNMU65QJrI56epDtDKCcIND7IdRpinmH0Ev1/Fr3PAsAJY97gHrh93S4Z2wZCXOa4roe1WzT2G/MGwEfIsjvnqdB9FD1IojlItD7pRTSFIsjD26jb+HXqCIAiD4Eeh+FMk0xX3FjrsHjXrIAZQeBPgvySplSS1Nc2UBNo/XGa/XrVRs/AJQHpCkGgKyFMU1xx/UrVCnYoUYPABBxCPQAABGHQA8AEHEI9AAAEYdADwCR4HfP0yB6qHoRxHIR6AEgEvzueRpED1UvglguAn3WSilN8cfE/PXrrANSFQOUDwT6LMhOTiWVpvg9tEqnVdApFVSKBa+J1gCg9CHQZ6F00xQDQDlDoPdDqNMUA0C5Q6D3SZjTFANAeUOg90sppCkGgLKEQO+jUKYpBoCyh0CfBXmlTKmlKQaAsoc0xQCQtTCmKb5z7b966mzEPUX9nI57qHrpvFTM5aJGDwCR4CU4Mr+nQ89YAAAoOgR6AICIQ6AHAIg4BHoAgIhDoAcAiDgE+qz5kaaYUwir6+IrWsUjza1cc09rDADgBoE+C7KTkw9pioeSuWumKNE1SvWqt5RbOXNcNgCABwj0WfAnTfEQ9femEo5xYrLq0S2ilu5Wrh67pDUGAMgEgd4P+aQptt1AJMmtHAAccQ9QL/yeDveMLSPe0xT30xtqCgDwj989T4PooepFEMtFoPeL5zTFjXSUmkKSt/xzSCnsVg4AkCUEeh95S1PMqYV7qV818/C9XkfifNMQt3IAgPwg0GdhWmrhHNMU1/UMEqm0w7H2OA32GGdg3crZtGU7n/sFAJgGgT4L8soX3RQjhp7PtNGw/Y5RdT005XQXqUrztGKHkJxPKre8e7nDss1PAgCkgUAPABBxCPQAABGHQA8AEHEI9AAAEYdADwCR4HfP0yB6qHoRxHIR6AEgEvzueRpED1UvglguAn3WipCmWC3HKLctDwAgAwT6LDimCi5EmuLEGMVV+dTUIMXb0y8PAMAMgT4LRUtTXNdj6iAVoypvTXMAABICvR8KmaZ4YoD6qIkakAQHADxCoPdJYdIUD1FrTIT59Q4pFgAAXCDQ+yXwNMV8oraTqhLDlO4AAQDADoHeR4GlKZZX3SDIA0BuEOizUKw0xTLoi3/tMVxiCQDZQ6DPQrHSFNuXy0PaE7wAZcjvnqdB9FD1IojlItADQCT43fM0iB6qXgSxXAR6AICIQ6AHAIg4BHoAgIhDoAcAiDgEegCAiEOgz1oR0hRbysVgT6oDAJAGAn0WipameKg/WT41laCu0U6kKQYAzxDosxCONMUJGhuJ0xL0lwIAjxDo/VCQNMUT1F3DTTf91GjpTQsAzO+ep0H0UPUiiOUi0Psk+DTFOhtmI/VX1KDpBsDG756nQfRQ9SKI5SLQ+yXwNMUaZ7kcobFphwAAAM4Q6H0UVJriie5WUw2e2/KrqWr6HgAAwBECfRaKlaa4conYfyRTFPOVOchLDwDeIdBnoVhpiuU8k+ViuTgTCwBZQKAHAIg4BHoAgIhDoAcAiDgEegCAiEOgB4BI8LvnaRA9VL0IYrkI9AAQCX73PA2ih6oXQSwXgT5rxUhTnGKdDwBAZgj0WShammLFPh8AAC8Q6LNQtDTFwvT5AAB4g0Dvh4DTFHuaDwCACwR6nwSXpthtPminBwBvEOj9EliaYrf5OOTTAQBwgEDvo6DSFAMA5AOBPgvyqpsipCkGAMgHAn0Wipam2MwyHwDQ/O55GkQPVS+CWC4CPQBEgt89T4PooepFEMtFoAcAiDgEegCAiEOgBwCIOAR6AICIQ6AHAIg4BPqsFSNNsbmch5q02TIBAMwQ6LMgO0wVLU1xi3hKX2M/TMhvBgBeIdBnoZhpigEAcoVA74eA0xQbeqleNd1YmooAQPK752kQPVS9CGK5CPQ+CS5NMTOnRhikeHv6piKAcuR3z9Mgeqh6EcRyEej9EliaYrsYVXnbkQMASAj0PgosTfFQa6pZaGKA+kbitAQnYwHAIwT6LBQtTXGsikZVOS8/PuiS2RIAwAECfRaKlqaYX5ssF8tFlAeALCDQAwBEHAI9AEDEIdADAEQcAj0AQMQh0ANAJPjd8zSIHqpeBLFcBHoAiAS/e54G0UPViyCWi0CftWKkKRaGWlU5ct0AQHYQ6LNQtDTFHOTlU8ZzaZOkAQDYINBnoVhpiof6R6krgd6wAJAbBHo/BJqmmHcAI9Qe0006FdOWAwCQDgK9T4JNU2y6u5Q4ohitt7XfAwCkgUDvl0KlKa5soKbqUdqC87EA4BECvY+CSVNslHfqs71IUwwAWUKgz0Kx0hTX9SSoqU83AfVRE07MAkAWEOizULQ0xeJVqWagYcLVlQDT+d3zNIgeql4EsVwEegCIBL97ngbRQ9WLIJaLQA8AEHEI9AAAEYdADwAQcQj0AAARh0APABBxCPRZK3yaYiNrpi5XAxLeAIBHCPRZKFaaYvv1+9wnq7pqWnIEAABHCPRZKFaaYgtxxNApputArykA8AiB3g+Bpim2GlrTTtS1CikQAGz87nkaRA9VL4JYLgK9T4JNU6ygNg/gyu+ep0H0UPUiiOUi0PulAGmKUZsHgFwg0PsomDTFCmrzAJAjBPosFCtNsVgydTejNg8AuamYnJycUuN527ZtGy1evFg9Sq/zttup44br1CMAKCU7duxQY7lZe+c6z7//8fFxWrhwoXpkpWOOjCfXr1ClYIcaPQBAxCHQAwBEHAI9AEDEIdADAEQcAj0ARILfPU+D6KHqRRDLRaAHgEjwu+dpED1UvQhiuQj0WcsmTbE57TAPNdOyXOaTvhgAwAsE+izklqa4hQaTKYaHydyxNd/0xQAAXiDQZyGXNMVufE9fDADgAoHeDy5pig29VK+aXXQTTxDpiwEA3CDQ+2R6mmJWRz3JZptBirdzE08A6YsBANJAoPfLtDTFdjGqkm0+/qcvBgBIB4HeR9PSFA+1pppzJgaobyROS1xba3JMXwwAkAECfRayTlMcq6JRlXaYXxcf7EmbZjj79MUAAJkh0GdBXnWTbHOfop7PtNHwcJu1dl3XQ1O6rFI8b57eKT7zNMl5mNv0zTsFt3IA0PzueRpED1UvglguAj0ARILfPU+D6KHqRRDLRaAHAIg4BHoAgIhDoAcAiDgEegCAiEOgBwCIOAT6rBUjTbFmWjYAgEcI9FkoVppi5rhsAAAPEOizUJw0xeqx47IBADJDoPdDIdMUA4Ajv3ueBtFD1YsglotA7xOkKQYoLr97ngbRQ9WLIJaLQO+XQqUpBgDIEgK9j4JJUwwAkB8E+iwUK00xm7bs7M79AkAZq5icnJxS43nbtm0bLV68WD1Kr/O226njhuvUIwAoJTt27FBjuVl75zrPv//x8XFauHChemSlY46MJ9evUKVghxo9AEDEIdADAEQcAj0AQMQh0AMARBwCPQBEgt89T4PooepFEMtFoAeASPC752kQPVS9CGK5CPRZK0KaYrUcPR/L8gAAMkCgz4JjquBCpClOjFFclady5hhPAQBkgkCfhaKlKa7roVQnWZ0zBwDAGwR6PxQyTTHnzKEmakASHADwCIHeJ4VJUzxErTER5te3IdkZAHiGQO+XwNMU84naTqpKWNv5AQAyQaD3UWBpiuVVNwjyAJAbBPosFCtNsQz64l97TM1LDLjEEgC8QqDPgrzqJtnmPkU9n2mj4WFbe3ldD03pskrxvHl6pyjP0yTnYW7TT+0U7MvlIe2JXIAy5HfP0yB6qHoRxHIR6AEgEvzueRpED1UvglguAj0AQMQh0AMARBwCPQBAxCHQAwBEHAI9AEDEIdBnrQhpik2s0wOEQ1tbmxqzciuHwkKgz0LR0hQr9ukBwsQe1BHkwwOBPgtFS1MsTJ8eIHx0cEeQDxcEej8EnKbY0/QARdTd3a3GrEHeXB40v3ueBtFD1YsglotA75Pg0hS7TY92eggXe1AvZJBnfvc8DaKHqhdBLBeB3i+BpSl2mx456SF8dHAvdJCH9BDofRRYmmKAEoIgHz4I9FmQV90UIU0xAEA+KiYnJ6fUeN62bdtGixcvVo/S67ztduq44Tr1CABKyY4dO9RYbtbeuc7z7398fJwWLlyoHlnpmCPjyfUrVCnYoUYPABBxCPQAABFX1KYbAChfaLopnKIFegAALxDo84emGwCIBL97ngbRQ9WLIJaLQA8AkeB3z9Mgeqh6EcRyEegBACIOgR4AIOIQ6AEAIg6BHgAg4op6eeU999yjxgCgnHzkIx9RY5nh8sr8FT3Qn3/++eoRAJSD3/zmNwj0BYamGwCAiEOgBwCIOAR6AIgEv3ueBtFD1YsglotADwCR4HfP0yB6qHoRxHIR6MHdM3fRihV30TPqYShlWsdSeA8AAUOgBwMHxNNPp9PVsOIuhEaAqECgB+FhunH5ADVsfJaefZaHdXT2xNPqOQAodQj0oJxNi85Qo3QxfeUrF6txogdvTNX0b3xYFVqOAG4UuwpVpptJ5POqXJTctUKPK3LaG+nGFXq+PI2HZTBz+fJbaJMqtk6/gnBQAmBAoAfhYrrsE9+jlRwgk1FW2XQLTVymavrrPkHfW8uBnI8AbqGz1xnlG7/wJK3k152xiM7eNEF8LPDMgwN09ieIHpCze5omqJLO5FGzTU9SZZea78p2Ij2ebhm28mc3foGWyZlx+QRdK49IuLyBBtrRNg/AEOhBuvgrKkBe9oBRI9YBf9kXqFVX7s+sNILqM1vpSVP5GZc20LLvPSBCLe8wnqStIro+PXE2XdZaSU9ypOfpz15EyQMGbVkDXcqFPF/zOD/ntgxbeRKXk9pZ8cA1fbXTASh3CPRgdfFXRMBfR5+QgTt7Ik7TxNMP0wNPihr8GZdSw5NiPk9P0NmX2SNzAMQOYKOu0cvhK2LXAwAI9CBqw3fRCnOTjaw1OzS1aLKJ5hbqUS/hZppNn7hMBlWuedPatfRkw6WiBn8G8cMHHiCqdJ2ZC7dlyPIBelC1ychyHrFNDwApCPTA0VnUvFeqk5jc7DFADV2fmd7UknQxfWXjF+jJlcb0y285m9bpk7ci4HLkbZDtMMbD74navXqYBbdliPJ1Z9Mty43y9omzVRu9dXo54Pr5suJ3z9Mgeqh6EcRykb0SAAoK2SsLDzV6AICIQ6AHAIg4BHoAgIhDoAcAiDjcMxYACg4nYwurqIEeACATBPr8oekGACDiEOgBACIOgR4AIsHvnqdB9FD1IojlItADQCT4fU/WIO7d6kUQy0WgBwCIOAR6AICIK9rllTfddJMaA4By9OUvf1mNpYfLK/NX1EDv9YMGgGjJ5vePQJ8/NN0AAEQcAj0AQMQh0AMARBwCPQBAxCHQA0Ak+N3zNIgeql4EsVwEegCIBL97ngbRQ9WLIJYbnkA/0U01FRVU0z2hCgQuq+kmU0nwnJap1q2idUgVGIZaRVly2iFq5Wn0oKfVr5VDDSXfnls5G2pV5bbtAQCQg3DV6KtbKN7XbA16YSHWrWW00xKoO0erKXnwNNRPNDhFU1M8JKhLTjtB3c191JRQ5YNxam/mHYNbOc9HBPl6npXx3HBbpZw9AECuQtZ0U0WrOkTQW2OtObOJ7ppkLTdZA5a171ZqrTHKW4dEAE2OG69LX6O21aTTqqLGJqK+AeMFQ2vaKd4kCrS6HuqpU+OUoLGROC2xx+hYVWrHYGYqH+ofpa5EDyVnBQCQp/C10YuAOUj1qUCtVLYNq9qyqgHrncHIKFWt57IW6q1vJtLjnVxDHqLW2Bh16NclmqhP15xzEGvroHj7GhqStfkuWtWgnkjSO5p+apziYF1JbcMdNBZTO5qYqMWvbxOlbuVD1N87Qu26XAz27QAAkK1QnoytW9VFozJQm5hr5vW9RKNbjOerm6iBa85cKzaP83MTW2iUeqlevy7WTiMjY6K+LVS20fDUMGXXMlJHjS1ifmI+8Q4OzHYcwHmn0kj96mhhqFW2w4iyBHVViyCudlBu5UQtyWabqYTYDvWtIvwDAOQulIGeg/D6pj5aM6Aec5DnWq9u0xYB0NuFRUJ1FyV04JRDfs0ivBOqFsG4Me1MeIcwQmMbVc1fTss7AdV2/6BLuf1Qo7KBmqpHaUuuhyAAAEI4A71Q2dZB1C5q4OpxsuYuTAz0pcrTqVxC8ZF2cmjyV0cI2bTRK/JIYPrOYqK71TQvboKppqrltuVPDFAft91f6lJeaRwxdOoZJcuNhwAAuQhtoOdacc9gizEqgmtHvJ1iqgmmeSzusUYv5iGbP1TTDQ9eLtcUQVgvq6LCW9OJ2KeY2ta5WYabhWzLl0clvJNwKxdr3JOgpr7YtHIAgFwhTTEAFFwQaYrvXPuvnjobcU9RP6fjHqpeOi8Vc7khrtEDAHjnJTgyv6dDz1gAACg6BHoAgIgrjUDPV8gUOueNX0p53Z3k+37Cuj3c1qsQ6xumbRLWzwfyEp5A7/QFC+OXzpRwTA4Zuq7ypaB0yavUbH6Nxyt5ioK3uWVd1fr69FnI7dHUIDubWdNaBJzAzfa+7Msyr1ehFXPZdmFaF/BPuGv0fM36sFMP1OKQgcmUcIyHQepPG7QTY+J3c/EJ1o5bg0T1Ya41OXUy8+mzkNujoVJuy1hfk2k5gxRvjwUU7DkVhqnDHS9rTPaPTtLrVQzFXLZdmNYF/BPuQG+pRY7RGpWwzJrUrJu6OV2wqiW7Jz8zT2fkpElVxjnFsGlax45UE8SVHXvCsboe9djxddxxKk5LTlcPtbpGauFUDA7rb8xHr7+p5m8pFwNvF4fX55z8LRO1LMvbs6xT6r1b1sHyGrU9KodoTbvYljK/j2b0LaC+geT7Sr7O8tiaDprX3315ZuaOZ2JZqQx0gl4v93kNyG1sDHqbefuuqTL7dEmpZdvfm/kzTr7Eh22R+fNRDyEySudkrE5eJmpkHA+SaX1H2mmskcuNgOue/Mw8XSW1dbRQb796bqifels60ue9yaWXqpxvo7EjMJno7qTe6iqK8QPLenHNs53iKt1xomuU6mVUsZZbUkB4fv/pkr/ZWDqM8WDa4STxOjkkjBOBqLk9njzqGYyr3EJMbw/OQWTq6ZwkezKbpp+Gd1A6R5Ax9MTSLC9J5Sji9+K0Z0uul8u8kttYDKZt5u275rKdjClN3xHbezN/xo5y3BZePh/1EKKjdAK9KTBUNjRRtQ4I1TpnjMI1Hh2gLMnPbNNxrbrXaHYZ6u+lFp28RqY4cEl2poOzE4fXWeZrCp6yyUI3g5jXSwbA1GP5PnkdbeUWnt9/muRvdmKeGfMDuSWM42Aty42dQ/KIR7Bsj1zwzpZs79dleeZaKzcH1fWo99LYb5SbAn5yvdzW3byNzdvMy3ctXWI9IbVNOLV1phxKJrlui4Ejg/t8ILRKJ9B7wT88z8nPjFpe/xAfrnr4gcnaZh+pdPQeTNCW0Wqq0nsGc/DMtq07MeYtt09W798HjjuEOuqR45zBk4OLEVAs28NtW8odWpqdqSPn5Zlr25abt9T1iLLB5E7e+jm5rbuDbLa1647T9h3Jm5dt8ZnMn0+J4h6gXvg9He4ZGxC+MmDE7RAzi+RnMh1yfT2Ndq1KzUvW0uztqKyOxOTUHrP++Ida1WP762SNy6F5Ih0ZAFPJzpLvU7bpe9zJZPH+82Jb1ySxHVrlRuCgwymYVfZNy/ZQ29LchCG2omye0umfTbXe5PvgbJ5kW6bb8sz4szE32Zh3KOb1cprXszyRCy/b2m07Mcs2iVFVNVc85DNWPm+LzJ9PafK752kQPVS9CGK54Qr0puaNabUpe9OH5WSakm3yM5kGuNrzVQZcM5Lt5mr+PNST8w6Hf5BixtnV3PnHJ2qGOtlZjNtS5fsU5dwGnLxRiSmrp1m27z8v1nWVA5/YE4FNrKgqi1Ff03rZnGXfHnJbNvWZPm+jvVm+XfE+1pu2c+p9VFLbeusyWxPOy7Pgz3m0Pvma1I1ebOvltO72E+ma523tsp3EM9ZtYntv+jP2fVt4+3wgWso7qRlfE99ZlWov9xHfOLy/UQUuv/F69zfSVCAzD0ba7cE1bj4/XIRLaQP9nDII0zYp9HYIIqlZx/UrVCnYRauNPkvy5JPjnaLy5bHdPwv8Q9Q1N1n5LaEgn3F7WGrHTs1mQfH/c/KumMu2C9O6QBCQphgACg41+sIq6xo9AEA5CE+g5zZJcy89++NC8GuZxVh3AAAX4avRFzFIWq88UGkC8lmXTO+Fn9ft7uarjLJMnAYAkE74An1l8RKZWRI6yeuKW8S/bDpJ2WR6L/w8d7SRHWpMvRjllYa6c81UxsRpAADphLxGX6BEZhJfeZDKZWPU7ldRY3yE+nSkt9fQzY95XK+Dvgba7Xl7H4GkDInTAMCV3z1Pg+ih6kUQyw33ydhCJjKzJHQyAi7X7usaW2iEMyrKcjdpko5J1udTycps+Cgi28RpACD53fM0iB6qXgSx3HAHelMX80ATmQmWx+bu4F7SD6RLOsZszyeTlRkPrbLO9QIAkF64A70XHOTzTmRmTejEzTYjyZQL9dRLpuabIMm8KHmcEwAAcFAygV4G38ASmZkTOnGzzQi1mPJ8cw7yZPONY4Ipa4Cetg7yeYdkZcZDkwyJ0wAAchDyNvpU0qggE5lx4E1eVimDvkOTDwdyckswZU06Nn0dXJKVyaMRzk/O628E82wSpwEAeFF+KRAcEpkVM7EVQDlCCoTCKv02+ixNT2SGhE4AEG1lF+j5lnLWmnsd9STv+AMAED1lF+gBAMoNAj0ARILfPU+D6KHqRRDLRaAHgEjwu+dpED1UvQhiuQj0AAARh0APABBxCPQAABEXqkBvTjdc0z2BxyX2GADCCTcHB4CCQ8/YwkLTDQBAxCHQAwBEHAI9AEDEIdADQCT43fM0iB6qXgSxXAR6AIgEv3ueBtFD1YsglotADwAQcQj0UcJ3rKrpNm55WCxu68A3fFHX3LcGdV/EML9/Lch1LMT7D8M2hqyFJ9A7fYG4jIODLTLwHaEqktMOUasKIHLQ0+rXyqGGkv153MqZKRi5dgBymsZpnvb3I6cxL4/XO6B7wdqXXQyWdRDvtX6UuvgG7nxLxc581m2Cumv0trYONeteVdMAgFn4a/TVLdQy2mkJ1J2j1al7sg71EyVv5J2gLjmtCAbNfdTEgUXe3DtO7c0cXNzKeT4igNfzrIznhttS96BKcpzGZZ7yhuDWG4nzSo8lC7bQaHUVxdRDX1W20bDpVolFYV4Hfq8UpyX8IO91q6S2YbWtxU6jurqLEvrzWHmCmgYAzEqg6aaKGpuI+gZU3XBNO8WbRIFW12O6Y1SCxkZUQDGLVTnfMNxUPtTPNc70d5ryMk1qnnXU2DJKW9QOKjEWp46OOI2mClI3JDcxpxVIe3SgH/O4np5vNJ7ueZcjCPdltlKrqj23DqVq0vKgyfZ8slxLroOozcv16jVueL5sBS1zXDfre+3mo7Ycj3gG5GuNIblOTssys72fae9XT5Och2ndzOX6M2CZlqnJZZu3iZ43r4Mad1q2ep3jtpJHnsYyLZ+vXo5Zxnkbg+XzletmLuMj1DTvEYqqJNroY20dFG9fQ0Piy9c52kWrGtQTSfpH2U+N8raAXOvroLGY+pLGRI17Pdci3cr5vrEj1K7Lp32pmds0bvOUMV/toCZoi9hhxeoaKd43IH9ofO/a+LQ9Eld4h43aqj46WDNtRUyMIBrXRzRcw1XPGKzPJ7pGqX76G3Nf5sgoVa3nshbqrW8m0uO66UU/L1/H09iCjVRHPeaad99ymifLed3GqEMvN9FEffroaqSdxhq5PIdbPCZfK4bkuqZZllna9+u2Ld0+A4/LZKajPz7yi7cQ9csNKSou/L1xXbbgtK04SMsjz2Fqo25qbo8nj0IH46mjTIOXeYvB/LlL4nvfIcqMFRWz6afelg5yOhCG4iuRk7FcOxY1Qv5CWm7srenD+UbqV7WKoVb5TRdlCeqqFgFaBS+3cqKW5I9BtiM7Bi3nadzmWdkgjjy4rWZigPpoiVjLmPjZ8g9NBP5RlxuSm2tX9b0kDgGcgwOTzT9ix+cWDW3P8/pU9/ZPf19uy6xuoga1x6o2j/NzTJcxsRNrIXEE86x6nIlszlG1fB7EZzuim7rSvadMzK/V65puWWbp3q/btnT7DLwuU0od/fGRX+OqKhrlAMrziIvvjduy+YF92SI4x+QORgV+3onI9TC+q3U9tp2n13mbP3eNP3M1rbzpPu6wH1olEujFd2oV15RcgmMS/2BGaGyjqvnLaXknoNruH3Qpt0fSygZqqk41uzjS06SbJ//I+IeQGKO4XPFK4ti/ZULX1Gw44PIRgW7vn1ZDD0AxlqmJQKLb140hhxq8V4VclpbFMkUcFXUCcdQ4Kr4X/N0aNX9vsiCWOWg5cuOb3/OyuRLEOx2nCkyujApY/xAf7Wb6bUIxlUyglyfxHH4oE92tpkDNX7hqqlrOh8LtlKysc42a2+4vdSmvNL6wnXpGyXLjocFlGtd58gOjptbZOUpVKqqL2C8O4Ttp1KF9XjLVkvkwPtneazuxK8vlIX8fqdMX1umZfD61bvL5lsZp29B1mdngQ3eez+nqcSa2dXMkjzR8CExelpWJ27Z0+wyyXKY8+uvU3wujQtDfT8b3xm3ZxsNpYm3DNEj1xlVhYhu2yu8sB3w+4rRVYLKctx1XwEbr62m0a5Xn1wTF756nQfRQ9SKI5YYr0IsvXEwf6nr8gYvvqandnJtQhqlNBG5uFx6tV+Wyxso7Cbdy8YXtSVBTX2xauZnzNO7zZFxTG6FUIDUKRhzb53ln1hFPbYNmcRgvP0pRvp5rafZyXja3qav3nyrXrOsW47ba1Jlrg9syvTB/XnLTZ3M1jW278eB0otAXfizLbVu6fQZZLpO/yGIP0aS+KPywV9TujYduy3ZX1zNI8fYY1QwcyT8QtQ4x6mtab2tHz37eFvLItjq53sXkd8/TIHqoehHEcpGPHnLDtW0+X1nsyzihuPjqns4qSmT5PUA++sIqnaYbAAgdeRLW8QIJCBMEeshN3h2fIArqeqZM/VggrBDoAQAiDoEecsNt9OlOLmZ6vpDCtC4ARVCagd6PH+60eaS6vNsHfZlaqpu4c5ml+7i9jJkSosmBr3WeNg8eQtaV3LytzONO7M9n81oACERpBvpA2od171oxJExd9sUw3JagVnnZpHp+apDiOjuZuVPMIFE9BzJev+Q8jEstZb4R2YFWz2OKBinVA9HasYYvEeUnQijTtrc/j7Z8gKILT6BPUxOclpRJP6f+OiZe4uf0a/Tr1FO5MXegqqMepzNQ3CXcsZv7BA300bSEaNO6o6c1ZEnHLN+n5T2ajiZyTEbmmNxMrHt3M3ffN66Zr7n5puTnQjRGa5LzUdOrzyS5rZOPbfPpfjBzUqxM70VPI5fPg+noyVzO6QdUsXX6kB05AQQk/DV68cNMm5RJBA7nJFZOiaZyZfSKlR2WUpFpmonuTup1Sj3s2NPWxNJRTAzTdkoc4HQ+HWPoqUuXjCq3ZGTOyc3Ekc761BGOJRWwaT5iE6dSPjuyzaftUm9JsYqVaAxKjt89T4PooepFEMsNf6DnLtrpkjKJwDEt8ZJboqk88GVkMjg09hvBOBlUU0E61tfk3nEkXe55e9ONfR68oyDb+0mbjMqUkMuenIuZUh4kk5FxtDPXdjMlVGOm+cjluybtcuElKVa69+K2Ddw+fy73nGgMSo3fPU+D6KHqRRDLLYE2+rrskzIlxnLL1+JFXY9Yl8FkgLIEabcgL/OJpPKhhNKzIsibz0PkfRTkRRGSYtl3qoVIbgZQZOEK9E6Ju0Qtc1pSpkypcGVbuY+BlWu65iYbWWNMU0Ofpo5WcdNGzLqTGmr1sNNinE+EbAmy5M4j92RUSeZkZKYaenL7axlqvp6Xb5tPXkmx3LaBbceafC+26S3k0YzHzwOgxIQn0Fe6JO4SP85pSZkyZkgUOwVToinLyTgzS9t4mh+5TBtbr6bj+Ymar7q5iCMOGrJZgOdvzJfbv2UbcnJ5FVRPKjBa1oMH+0lCo33bnCCrdSiPZFTm5elkZGL7uyY34+fUOQrLfVlN85HNVpmWb56PfoN5JcVy2wbWzz/nRGMAEVEeSc34+vX+RppCX21jJxSmZGQ5JsWC0oakZoVVAm30uRkyXXIpa60I8qGEpFgAwYtsoE9eJYMTblYh68CEpFgAwYtsoAcAAAMCPQBAxCHQA0Ak+N3zNIgeql4EsVwEegCIBL97ngbRQ9WLIJaLQA8AEHEI9AAAEYdADwAQcQj0AAARh0APABBxCPQAABGHQA8AEHEI9AAAEYdADwCR4HfP0yB6qHoRxHIR6AEgEvzueRpED1UvglguAj0AQMQh0AMARBwCPQBAxCHQAwBEHAI9AEDEIdADAEQcAj0AQMQh0AMARBwCPQBEgt89T4PooepFEMtFoAeASPC752kQPVS9CGK5CPQAABGHQA8AEHEI9AAAEYdADwAQcQj0AAARh0APABBxCPQAABGHQA8AEHEI9AAQCX73PA2ih6oXQSwXgR4AIsHvnqdB9FD1IojlItADAEQcAj0AQMQh0AMARBwCPQBAxCHQAwBEHAI9AEDEIdADAEQcAj0AQMQh0ANAJPjd8zSIHqpeBLFcBHoAiAS/e54G0UPViyCWi0APABBxCPQAABGHQA8AEHEI9AAAEYdADwAQcQj0AAARh0APABBxCPQAABGHQA8AkeB3z9Mgeqh6EcRyEegBIBL87nkaRA9VL4JYLgI9AEDEIdADAEQcAj0AQMQh0AMARBwCPQBAxCHQAwBEHAI9AEDEIdADAEQcAj0ARILfPU+D6KHqRRDLRaAHgEjwu+dpED1UvQhiuQj0AAARh0APABBxCPQAABGHQA8AEHEI9AAAEYdADwAQcQj0AAARh0APABBxCPQAEAl+9zwNooeqF0EsF4EeACLB756nQfRQ9SKI5SLQAwBEHAI9AEDEIdADAEQcAj0AQMQh0AMARBwCPQBAxCHQAwBEHAI9AEDEIdADQCT43fM0iB6qXgSxXAR6AIgEv3ueBtFD1YsglotADwAQcQj0AAARh0APABBxCPQAABGHQA8AEHEI9AAAEYdADwAQcQj0AAARh0APAJHgd8/TIHqoehHEcismJyen1OO8bdu2jRYvXqwepXfTTTepMQAoR1/+8pfVWHrj4+O0cOFC9chKx5zO226njutXqFKwK1qgBwDwAoE+f2i6AQCIOAR6AICIQ6AHAIg4BHoAgIhDoAcAiDgEegCAiEOgBwCIOAR6AIgEv3ueBtFD1YsglotADwCR4Pc9WYO4d6sXQSwXgR78V1ExfQCAoinzQD9ErSII1XRPqMe58ms+EcBBfWpq+oBgD1A0oQn0E901IhZU2IZWEUKhZHAw56AOAKESikA/1FpBsXairsSUiBN6SFBX9ShtQSU5LxUV/1sOhVas5QLAdMUP9BPd1NlLVN21ntoqVZlUSW3Dw7YyyFXRAy+abwCKpviBPjFGfO44vsQtok9Qd00FVbROb8ThI4GKmm4xhW4jHzKm1U0/8jn1elXm1o5uaTqSr7OyNy1lbo/Xyw1X81PRgr3YZmjWASiO4gf6WBXx1aC9/W7hUNTsO1p4AlvAHKJ+cSTQ0tEmpjCMtNfTWIdq+hkUrxlpp1hFM9F6VZboImqPkX2fMSLKmmm9MQ03GZF4nWkiDvKWpiU1n1I6+To19S9qDM0qAOWm+IG+so3Wd4lQ31svgo+oATvU3KmukVqolzrNgXWoX5S0UGOdeixUdyWoRz+Wr7E1CVUuobj4M2pr+OfXDacmUjuWTjIWN0Rr2kds8zHWeaR9TZraOjc98Y6hh0yrWFTmYM98D/ZcY+eauxim6ItGmXosnwOAogjFydjKtmERB4zacqKqU8QF3USimz3qqJEr6H0DySaVIVmdbwwmiMqjjBEaS4jxiS00Kv7Ym5Yql8hdRsmdLOZgH2jtngO6GCpEoJfBXj0GCJrfPU+D6KHqRRDLDUWgN0sGfW56MdXi61Z1UfVIHw3wQ3kCt5q6VhWgrizPIVRTVUw91sw7gxIUeO1e4GBvGKJW83kP8fnV8JHbUKvaoYtBP+9UBuCB3z1Pg+ih6kUQyw1doE9STS8jOpJWNlBT9Qj1iUg/MdBHI9VN1GCtZPtMBXe3gO62Ayghgdfuk+poVdOYsZMW+POLqza3lkF13mM9UbMK7E5lAJC78AZ61WRSnYykldTQJEJu3xpa0zdiOQnrN7kjoTjJ1hqXdv2JLbJBx5imxBWidl/ZUEVjxuEYDfTFLedWpMo26oiLI7YX1WOmyxDpAfJS/EAvD9XtlyBOUHdzuwi2LdRhupC+sqGJqkd6qXfEehI2X5aTqhPd1CxPvq5S7f+iNipPvDark7PCtGmchPPySjeB1+7FEVnV2ABNTAxQXzygcysA4Kj4gb5uFXVV91K9bpeVQ4zaqYsS9itWuIbH7Tk+n4StFvPs1Ms2rqM0XYXDix0m44pK92miIrjavTgiqxqjNWtSzTZWQ9Q/2kQNp6iHkiqL3mYGKKiKyclJ3y6J2LZtGy1evFg9CgCfxIv1UVMCPWa90oHaHsC9sAf5bObhuFz5+Y1Rh96B89Fcfa98Suy9aZDLncrUIyhP4+PjtHDhQvXISseczttup47rV6hSsAtvG72DwpyEBc332r04Ihs2B+66HrEMdeJVlzuVAUBeSijQq45LTQ2BnYSF6TjYmwM+B/u8Az4AFFQJBfo66hG1vCi2i5cC32v3AFAwJdV0AwGqUKkK0kDtHsLM756nQfRQ9SKI5SLQQ9ZQu4cw8rvnaRA9VL0IYrkI9GGia9XmIaRQuwcoHQj0YcFBfUolADMPIQ72DLV7gPBDoA8DHeRLlFPtHgDCo7Q6TEWVKdDbgySn+k1lgcydpead7VFCFjuhaetvq/EDZAsdpvKHGn3IJfO6lwin2j1q+ADFhRp9GKRrusmzWUcH2Yw1a13L97EJCbV78ANq9PlDjR4Cg9o9QDgg0IcB16K5Rq0Hpsd9rGEXi70mj2APUFgI9GHBAV0POsBHIMhrqN1D0PzueRpED1UvglguAn0YRSjA26F2D0Hxu+dpED1UvQhiuQj0YCjgEQRq9wCFhUAPRYPaPUBhINBDUaF2DxA8BHoIBdTuAYKDQA+hgdo9QDAQ6CF0ULsH8BcCPYQSavcA/kGgh1BD7R4gfwj0EHqo3YMXfvc8DaKHqhdBLBeBHkoGaveQjt89T4PooepFEMtFoIeSUtDavU4sZx4AShACPZSkwGv3HNR1WgjzgGAPJQiBHkpWYLV7HeQBIgJ3mIo4HfjsNeCo8bNG73Sf3uT2w06g4HCHqfyhRg+QDTTfQAlCjT7iyqFGb6/N5/1e09XaUaMvONTo84caPZQsDvDmIM8BPupNVAC5QKCHkuR7Ld5MN8/ogelx1OahBCHQQ0kpWC2eA7oedIBHkA81v3ueBtFD1YsglotADyUj0Fp8OgjwJcHvnqdB9FD1IojlItBD6BWsFg8QUQj0EGpFq8UDRAgCPYSSvRYPALlDoIfQQS0ewF8I9BAa9lo82uIB/IFAD6GAWjxAcBDooahQiwcIHgI9FA1q8QCFgUAPBYdaPATB756nQfRQ9SKI5SLQQ0GhFg9B8bvnaRA9VL0IYrkI9GGiE2eZh4hALR6geBDow4KDuk6cZR4iEOxRiwcoLgT6MNBBPmJQiwcIB9xhKgxMgX5a7dfh/qW5MAfYiiyPEqZy2An5XYvX88OOovzgDlP5Q40+5DjIc7AvFajFA4QPavRhkK7pJs9mnULWhO21eObXclGjL1+o0ecPNXrIm1MtHgDCA4E+DLjGzjV3PTA9nkdtvhDstXgEeYDwQaAPCw7oetABPsRB3qkWjyAPxeR3z9Mgeqh6EcRyEejDKMQBnqEWD2Hkd8/TIHqoehHEchHowTPU4gFKEwI9eIJaPEDpQqCHtFCLByh9CPTgyr9a/BC11nTThHpEE91U0zokRkR5RYVYDg+t4pH9sYuhVqowzW+otYJquifEbGtIzlYS82rtNM1PDakJAMoGAj1M438tvo5WNY3RgIrMEwN9FG+sEwG6k6oSU2LePPQQ2R7XGZM7qiY9vyHaQi0Ul6V251OPnNcgtbQMGvPtSTdXgGhCoAcL/2rxVpUNVTQmI/MEDfTFScR5ilURtcdSNXf743TiHY00tmZI1OL7iRrFCwHAFQI9SP7X4m0qG6hqbIAmJgaoL94oa+uVbcNiGY3Ur5pqErbH6QO+OEqo6qTYWCO1xVQRADhCoIfAavFWldRQNUZr1hjNNil1snkl0TVK/TKy2x+7kzsKt6aYiS00qkYByh0CfRkLvBZvw803o71Gsw3jk6j6JGmsr4n+st/6eJVLDHdT2dZBVK/mEeujpmxnACXN756nQfRQ9SKI5SJ7ZcTpQG4P4EHX4t2Wmyu/5welA9kr84cafZnhgGkO8hw4fQ+eokbNOfRlHn0xLocw0etkHgAiDIG+jARdi5c4aE5NyRumyDtjiXE5hCWYqvWbNiDYQ4Qh0JeJwGvxTAfRsAr7+gEEBG30EVeQWrxmCqR6ucnl5Rlk7e8jF0733/Vr/SA4aKPPH2r0ZSKwWrxXHEQ5mIZV2NcPIA+o0YN/0tWKw1BjDvv6gSPU6POHGj0AQMQh0IN/dPOHHpgeD0NtOezrBxAQBHrwFwdMPegAGqYgGvb1g5z53fM0iB6qXgSxXAR6CE7YAygCfKT4fU/WIO7d6kUQy0WgBwCIOAR6AICIQ6AHAIg4BHoAgIhDoAcAiDgEegCAiEOgBwCIOAR6AICIQ6AHgEjwu+dpED1UvQhiuQj0ABAJfvc8DaKHqhdBLBeBHgAg4hDoAQAiDoEeACDiEOgBACIOgR4AIOIQ6AEAIg43BweAUPN8c/AbrlOlYIdADwCh5jXQX/uPK1Up2KHpBgAg4hDoAQAiDoEeACDiEOgBoCz87ne/Sw7lBoEeACLPHNzf+c53qrHygUAPAJFW7kGeIdADQGQhyBsQ6AEgsszBvRzb5jUEegCINAR7BHoAKAPlHuwR6AGgLHCw10O5QaAHAIg4BHoAgIhDoAcAiDgEegCAiEM+egAINa/56MEdAj0AhJqXQA/poekGACDifK/RAwD4LV2NHjLzNdADAED4oOkGACDiEOgBACKu7AL9Sy+9pMYAAMoDavQAABGHQA8AEHEI9AAAERfuQL/1DqqtvYO2qocAAJC9sruOnk/GnnzyyeoRAED0yRo915rvaFtACxYYQ9sG+ZxRo1ZlCxa0kS5OMte45bR6mq10R60xvvWO2uR8FyyopTt4YvU6Y5liOstjY5DroOfv9jyTy02VL1DrY1muKgMAKEdG081jq2n8ikkStXuavHslrfsqB8YN1LZsNS292yjfdOtmujIZXZVFMVr62Dg9JUa33n8vLV1JdJ+c5Ckap8V0Fk9y9QZjvnLeS2n1WjWP5DK7qdbymKfT62DiYR0nN91KF/C0Ivi3rl5Kd6vl3r3UWEcAgHJkBPoLbqVrZbQVzlqsgmWCNpvKF12+gi5Yd5+tVl9LV6zcTAkRkZ8aX0pXXLuYNnOk59cujdEinsRc475yHdHmhBHAzctkTutg5mEdk3gHROvoSnWEUdutdiYAAGUo75OxIubS+FMb6L7Noga/6HJasVnsDJ4ap6VXiNDKQX7ZvbRik63G7RexnMfUqFUtdcva/BV0n9zJODQ7AQCUCfdAL5tlVpNuaeGmmcdWXjGtZsw1ffrqV2nzistFDX4R8cP77iNazO027IIVdLms2qt5GKP+qL2CVj52L91vb4AXO5g2eTKAA/4muvUC46gDAKAcpanRiyApauCbrzSaXZZxm3e3QwOI2CFw9F6hojk/XCdq9/Lhoqvp80tX0zLVdNM6vtTfGj2vI7f7L1NNQ8tWGzsSXonVy4yyBcvo3hU9dLXa2QAAlJtoXV65oY0W3HcFTTrtkBRcXgkA5SbvNvpi22C65HLBleR81AEAUMZw4xEAgIgr+Ro9AACkV7G4ctHUjBkzaGpqSg52FRUVaozk8/ox/+XHhw4dkuO6nB/PnDlT/tXT6/nq6ezL0Y/1ejDztDzwODO/9lv/uU6NAQAUVnNzczJmcbzjcU3HLB23dJzU7M/za3kapmMcP6en02WMpz1w4IBleeZpmXn+hw4dov8ffG0qGgOKM18AAAAASUVORK5CYII=;" vertex="1" parent="1">
          <mxGeometry x="651" y="79" width="273.42" height="753" as="geometry" />
        </mxCell>
        <mxCell id="KsgwyFIU3VjcIDYPL1_L-2" value="" style="rounded=0;whiteSpace=wrap;html=1;strokeColor=#FF0000;fillColor=none;strokeWidth=3;" vertex="1" parent="1">
          <mxGeometry x="671" y="630" width="190" height="90" as="geometry" />
        </mxCell>
        <mxCell id="KsgwyFIU3VjcIDYPL1_L-4" value="" style="shape=image;verticalLabelPosition=bottom;labelBackgroundColor=default;verticalAlign=top;aspect=fixed;imageAspect=0;image=data:image/png,iVBORw0KGgoAAAANSUhEUgAAAZgAAAIiCAIAAAB64EmMAAAACXBIWXMAAA7EAAAOxAGVKw4bAABreElEQVR4nO3dBXwTyR4H8JW4tknqXtpCqQDF5eHuzuHOIYe7Fi2uh7vb4W6HHoceUlzr7hKXfZumkrapAEEW/t/PPV6b3Z212V9mZjcNrXyFyggAAFAZjfyfl0+F770ZAADwOcI+vlPKZTTDL3KZ9PtuDQAAfLbsINNqtd93OwAA4LN9oyBTKRVKhUKr1ZilNBynMVksBpNlltIA+Hq+Us2HYgtc/tlBRuh0n12ukMsX8C3jU+KVSkVR8ygVciaTyeFJGEzmZ6/IQKVUSjMzyALpdMYXFgXA1/aVaj4UW+Dyp31huZZcYY2y1cqUr3ji6l+R0aFFzabVabk8AZ3BQAjiC9fIYDBQHj9BDoN6gAK+Us2HYgu8nh1kKIp+aol0Gs3PuZynS3mJleOL0NfpmanFFEJO0u+GmZBFoVnMVSAAX8lXqvlQbIHL/9NaZOmJKWmJSRpEhyM0Ok4TqmhuHuWEzoLUl5EZGWklLQ25A35NX6nmQ7F5Shtk8kxZ5PtQuUKmU2q0Wi0dY6gRJDE29mXIR9dynjijhK3Ux6dZdwSaY4ASvlLNh2ILvFKqINMo1RGv36RlSBEdgmAIHaOryAYegqi0aEJ0LM7ExY42Ja/6s7a4mALNXB4AX8VXqvlQbD4lj5GplaoXdx6rCAWi0yEYDSFQtU7DwBlqFGWSy+mIzJhkDpfDtuTzOXwUwzEckUml6vy3Ws2/Hyg0ygAFfKWaD8V+2hiZPFMeEvxGRagQgo5gZEZhBI7rEJoa0WAoyqLxuHS6QiVPiYrn8YVtq3cRSOwEtthf+/emaaUSGzHZDw2NDNXoQw0tpg01Z/pEd1eXAi9+DA0LXLC0mH0pcW8B+AEUV/NJ40cNq+jnY/j51r93N+/YW4oCSy720xVX7J4ta0tcvvfgPz6vWPIyJy/2ApPIQCBjoaRi85QQZDEfI5UqHU7gBEYjCFSH0bOKIFg4R8jneTqUoSHa8JiIxLREHi6KjpFhHKUlS6RDeJXKVWzXs6UmWXn28rG/b19DP/2wEzqtRp5B4/BNToXWGKCE4mv+2BG/ly/rlftr1YCKOo16695DJRRYUrGf4cuLVUtT6DzLzyh2zIjBG7buePX2Q+4r5DEZNqhvicUaoxU5BUHSk9KVMpUDijrS0fcEmqAlZyLINh2DI7S2sGrRoombo/vLR8/lSpVarU6OjmJVYTwPuR+rtrB1tqIhjJDnHzEa5u8Z8Pe/14vajznT9KF79uKVuKgIMrmMJ0kkkvlzZ6MYFhhksl2GFhVm1laSlk0bV65UQSyy1Gi1Sckpj548/ev4KYVCaXL+72LV4vkxcfGLV6wp8DqPy12+cO6xU2cuXrlG/rpkfmBqalrQslXfYROBeRR5BZMp5lOuLINBP3rs+KNHj/73vzrNmzUTCPhapRRncosr0OwxVopily5fkZqSYnKShaXlxPHjPqNY8tIeM3ywpYVF/17d9x8++uT5K/LFiv6+Pbt0tBAKU1JTly1bXmyxeYprkaUlpHFUqjqYgo9qQ3UsnFwQY1iIbMWWdmyOqFb9hlb2YkJFk6YmS+UyaXraw7vnEpnJyGtEwLMQ8a35Ip2Ts4PIWoBk56SJnTH0KMkUC4mMITPLeBLO4pZxdyN/0MjIdpmg4H4UccAr+PlOGDVcpVJdvXY9MjKCw+E4OTu7u7oqleZPsU7tWltaWmzdWWJf4BMolIq4uLjMzEwzlgm+o6JqPsnZ0YHJZBw5duzq1WupmXLf9KyHPAmE0D81WswjmSUU+wXbWVyx4eHhyRnyAhepgVST+5hrwWWLL/ZjaPiGrTv79/rNzta2c/s2NJyG4nj71i1sbaxjY2O3bNv2ISQ069o3XayxnMF+k9tOIHIdFoXjEVo8BaGxuFyRlROKcdMzNUpd4tvgWLG9dZlq5dKTk0JiPmYqZeHhL7metuRyGZmp5H9SVSLvBZ/FZqAm12y8Hp2WPEAoli9VUQzPmWrqI1qmBhBFlhbjRw6Ni4+bH7QwI1NOGOYhu8TknqA0876FYRhWs1qVN+/ef3axJt+ntBrt3PlBOhRDEQwxGmAAVFV0zd9/5DgD0QY/e5aWKcfoTLLGl7LAEi+oz1GKYskr1GSQoSj+2cWSPUqyLUammIuzc5uWTcl1kPkeFh5+6NDhl6/ekKFTIBbyFWukuBYZm0tLp+keaphqBEPZAibXLgMTamg8lCaTpaZevv2vpYTnW6ssKkboLK6tgKG1zdc3TExKJv/LXm9J9xjRQjtr/GvhZU0+l9KscUMul7t+7vw0qQrJOrgEkhcDLBZz77aNM+YEOdjbdWrfhux4Tg2c/zEklMfj9uzWuWrlADabFRIaduDwsRevXhsWsbG26tC2VflyZSViUaZU9vhJ8O79h6QyGfmOEThtkpVE7Obq0rxJI3LOyTPnfPgYSqZbu9YtGtWvSxaekJh05vylS39fK263C8nayB3kWk6dvWB4hey2N2vcoHWLZuTqklNSLl25fvLs+aw3bYTsPk8aO7LXwKE9u3VpULc2+Vq/3/9gMpnke1rVKgHkxpOx+O7Dx137DkZGRZs8Att37x/cv/fSlWvvPfwvdxuGDepfu2b1gcNHf41m7K+mmJr/8NETnUZFvtFiDGYlf79K/r45ixSXJ4aab/ab9qUpFi1iOCf3xaKu0+KLffriNY1Ga9Oiqbubvgf2MSTkxMmTj58G40wORqMXs7XGihsjIy8DlU6HIhqUxkZwtsxCQrOwwglURTYBder3Hz9eu/FvfExIXEZyrcZ14z9Evpd+0CJF/BWNr9CjL7zNARUrREZGhkbFFnO827dp6eTocPbcuYz09JjYWDqDMW/mVDLCdu/ek5aW2qhxk1lTJ86YG0Re/+TMdDrdSiI5fuJETEyMm5tbvz59yIb/xm27EpOTA2fPWbp44cOH/x366y9yTrLVTZY/dFC/OjWrHzp85MPHDz4+PmRGkLFy+vzFovei8JnPaYvnTPLzLS8Riw8eOkT2NytXrtyrexcmi3no6AnDbDiOjx81gsNm79q9R65QkK9otJqyXp7Xr18PCQnh8/n9+/WbNG7kqAnTTB6B+4+D27Ro0rBB3Xv/PTKsjtzlmtWr3rl7R6lSwS0VMyj2EGI0/Qd3/H3Lt2zauJyXR0Rk5L0H90su0NzPl373YsnuF5rbICW7UBiOM9lFpVhesUaKbJGxGRxPTy9CiUXHx+o0OoZOjsmlBFusYrLobJFGR7a4ou4+uBUb59BzUJ+ynk7bdq3VSov5W0AlDk8WngEt4ueiXkHIdtPrt2+JYlfk6eE+cfKU1HQpORt5wJo3aUhe1dNnBr79qL8B/PLNO6+Vyzu2a20Yho+Kjg5atEhH9vJQ9O2HUF+f8j7e5cjXNRptfGqGjiDkKnV8qmE8CyWbxA3r/W//gYNkcpG92pdv3tvb2nZs1+rcpcta7ef/cREGnbFoyRKy90H+/Ozla7L73KZFs2OnzpItNcMMZK7NXbBAS2QdQBQj17Vg4UICwQj9vRlELD7dv28fcqnklFSTR+DK1Ws9fusmsrRMzhrKrRpQkcNhX71x67M3GORX8sB89SoBWSkWdf78+Rs3/8EZ7GIXKe6Bhi9QmmKLmooW+uETiq3o50P2IcjLh2yLkSnm7u7esX178qJ7+uJNSVubx/QYGVnvy9h4PH/63rd6U/zR3ciIF1oVE8mIRuhMnGZHZ/Hshc6hsS8ILaHRslXpRHxKjFojL+4AmL9Hb+rA6K/cIg+Y4fV//72Tom894YZXKvj6JCcnvwsJN4xQaAiEjEJ/X9/cxrIOzX5bIIMiPiGpfPnyaL7y8jaEfF8l/73z4D/C0KtFkeev3tSuXYuMM0PPrqhNKvyK8WkPjwhPkyoMm0fG06MnwTWqV3dxdPgQEmqY5+LFS1ryPKJ5i+duM/l7XIK+d8/nclNSUk0egWs3/unWRd8zPXbyDPlKvTq1oqOj37z7YBikA1+oNDU/IjKa7Endu3fXkGL68bJiCyy+7/l5vlex5ct69uja0dbaKiw8nOxRkm0xMsVcnJ16du2k3HPg9fuQYoo1ZqJFJrKwbFS3LoPOpUtcZarMzLSo8IhgQitnEhyxkONQ1tXDxZmvVm9/eRcn6HK16s37Z7f+exOfGFf8HpkMmI9h4YRWI5FIaGxe7ui+gVgs+hgalv1MhsnQKiQ5OcXW2rrYzUASk1ONlxUI+CKR6ODubXnloqhOl30XhnyXaNm8SRk3V7KPRsNxFoupymkHFUYWRf67etli46KQrCcqit+k4mVKZcYbnJ6hv7fF4XDy71EePp/XukVTX29vS0sLOp1GpxU8xQWOQLpUdu/+PbItefzUWXLZiv5+Bw8dJiDFzKbkjtV/T4NfvX6VmpSk708Vm2LZBRZdrLuLc4kbRF50n1ps3iyf2iAraWuHDuxrIRTExsYeOnT4cXAwzuCQbTEyxWxtbYcN7r9y7cbQSJONgJLGyDhsbrvWnawktqmZCkZa6OPHt1V4prOHe/jHKO+yZdt06CSyEIpEwpD3oUxrDzu+jocnvo9+pFCkl3C/AzW9l7MXLldLU+fPmW140sIYmWKz5i3UquQoTiu8LGoq55+/eNGyeTN7e7vomNiiNqLAiGVmpjQ2Lm75ipXGM+qH0lHU3s524dyZ7z6E7N6zNy4+TqvRdO7UqXr1avlvQ+RtBlkU+e+cefNlMplxYTGJacWNhZl8Pe8HlM/jG8/GF+ifRJGSq8jdERTLnQHHsfmzpjEZjJ179oaHhSmVCn8/v+HDhmbPbOoIkL9f+vt6ndq1vct5OTs6kr/fuP0vjI6ZS2mek2jfqsX/alY7d/HKgaMnS5zZUPOLvKCmTihxk3oPHpF1TX1CsSTy/Z6m0Jq8a0l24HKL+YytTUlN3bJt28tXb3AWF6Mxnr58q9x7cNigfpYWFnNnTClma41fKTgHjtO4DGu1jv7x47P796/KZfoBICsnWwLDyLdrHy9PNgfHhXQ6t4zL5YMsBtl6kSmK/LuwBVdtEoNrgeEmbt+SbTEyxcipRRVY+KXLV683bdyIPATzl6ws5R23Z8+fV/T3VRF4THRMge318/FmMBjbtu+IjIkjsjZfJJYYz6JRa1hGf/Hy2fMX5L+2Dk7XrucbYCK+LBRcnB2FQkFaWrrh1yoBFRUKRWRUlMmZ7WxtyfzdtmPnvYePiKzeKN9CVOIqXr99HxERWbNaVWcnxydPnqSkZ36FuzO/rJJPv2EGrVqpU8lprBLb77ljGp+JbDowBZJCL5dQ7JzAWSWWbGrZkrd22bLlH0NCaWx+7uj+m/chq9ZumjNjcklbm6fgGNnoAcNSM5gvn/33z7+XlSqF4XUcw2wcrD38y7CtecmRUW9uPefbijk0GVLqIezi7xWT7TKVNJUo9Ce9CyexcYGFS4yOjd+xc9eggQNWLpp79cY/ZLuM7FhZScQYhv11/JTJ9u/f126QvarAqRPOnL8UGRVNJpedrU2mVPr3tZuRkZHkDFWrVYu/cJnLYTesX7d8ubJqjTp38ZDQ0KqVK1WrXCk9PSMuPiEsPPLa9esD+/Qko+TN2/c6nU4iFltZifcdPGJyF8g3HHJZ41ce/Pe48EbK5PIZE8ceP30uPSOjakCl6lUCjhw9plZrcpv5xu39pMREMsH9/Sv8++CxVqut4OfbqnkTpNBshd43sStXr7Zr28ZCKFy+as1XuHf16yrNUxJbdu3bsHGTVq3IGuYvuUC06GL7Dh2tTE/85K383sWS7ZUCFzvZo+wzeAQZC8UUa6xgUjx/FKJC5ZdunS7wOpkFr4JfBv87PS45A2Nx6jVpWPqdyVl5cRMZPItPLtDUOv6+8U94RETLFi0a169rYSEk0yQ+IfHq9ZtFLaBUawPnzu/cqWOLpo3IZJHrGzvRp86cJyeRbd3de/Y0b96ia8d2qWnpt27f+XPt2qFDf89ddufuPUMGDRw5dLBKrVq8fE1qWtrmrTvCwsIbNGzYokkjMkfiE5Nukd20IniUcZs4Jt8HYrv2Hlh4tkOHDuN0eo+uHclYTEpO2bf/wOlzF5EiHkFUKFXLV67q3r37xtXLVCr1k+Bnc+ctWL50scmZjd34506P37plZGQ8evqsxJnBpynF+wKNw6MhPLMUyxQWbr9QsliURiv9SguOkZ28fdj413yzMjl2bgG1yzh6uDuVcbcOfHaqlOtAsiPZnO/zaBEP5xEo7W1IxLu161FCZ3gelpyNfBHBaORF/luPngRGR/I/KyxV6XbvO7Bn717E8NEQcn5yBjIpUPzsxb/PXbhoeJ3AyFewwUOGIrTsr2+JTUydF7Qwa0WoDmfoH31A6ecvX71w6TJCZDVWUUx/B9PUo8kTJ03OnscYjV1gI6fNmGG4B3rxYtZmZO0LkVPgo8ePyZl1eL6Hwp++eBM8bXpW4fqnK8iievbuY5inqCNA0hIoGfo3b/2jf4wDGmTm85VqPhRb2ufICivn696lW3s2B6PjGNmdN+NmmRl59eIMk19yoKOZbrqT1zaBmHj6Tv83P/IfIoJm1BQiYwVnEiUtYpI+WYqaZLSRubOZLJPMOKLQHunDK3/h+Qos4gjUr1ubyWRevnajpA0H4Ef0CUFGwxBMo0qKUCYlJOs+8evjzP6n1eCvKpoFn8eztpa4ODn16tb58pUrsfFJcL/SvL5SzYdiC7zyCd+ilJac8fzRG5SgqVXK/17c/tSN02jUtGI+c/CJRSGQZebg5uo8dfzoTKns2vUbew8eNnlzHXyhr1TzoVjjFz+hRRYRFZKSkkyj0XAMjUsy9aBW0TCMppTLUTby5d+qqyZzVC7HsKI/cA9K7dnz5z1799GPX2A42R//3pvzE/pKNR+KLfD6JwSZUqUg//u81dNpNDJHM9LM89cUUBQzV7r/6lCcoHNKng18rq9U86HYAi9+6TeNlxJOtuMKfVYGgJ/eV6r5UGwBeWNkclnBbyEHAIAfFpuT9ymIfDF59dyJb70tAADwWVp17pn7M3T3AACUB0EGAKA8CDIAAOVBkAEAKA+CDABAeRBkAADKgyADAFAeBBkAgPIgyAAAlAdBBgCgPAgyAADlQZABACgPggwAQHkQZAAAyoMgAwBQHgQZAIDyIMgAAJQHQQYAoDwIMgAA5UGQAQAoD4IMAEB5EGQAAMozU5BpFBlyNZH/NTqLx6aj5in/S+jiT04dspX1x77ZjQXfZHPkH29eDndoWK8M73NWp46+d/EZr3YTH0vM7Fum+HB61fLt114n6XhOLaduHluTW/IyX4G+tmgZHC6z4PfeI1pFpoysR3Q2n1W4ZupUMqlCi9BYXA4999ho0mPCIpPkCNfa1dmaY1QgoZZnKjTGdRKjc3gs4zmUSRGhMek6nq2bs4RlnqOtizoyYcRu0dhDM+qxzVIgKB3zBJn88pTa4y/n/0J0Rq3Zl7d3lZTiWlanJ2TQxCKO+S9cA21aTGgoO137lYovSHV3y+RJFwIW3VzXnl+K2bXSxBSdhYSffSY0L/YETtsjHnduTz9nMx8Q9dMNY6YcRluNnTxCkpEhLvO9rjR9bZn0sf/B42N9CiSZ+t7i1gMPJaAev/91fFSBiUT6lcnNx59LxStNPL2/vxOmSw0+un719lN3wjO0+rhCmTZVegcuHlffJms5bdiu/q1WPNPkFYAKO6z7Z0E9hv5nXeKdDdNm7/wnUk6gCIGwHGv3m7NgeG3JFx9xQp0aHRKqziRKnhWYk/m6lrhdqykzO7jk1j7M0lNYmhYJkXZpWvuT9U5v6iL6AZpvZsCoMWTJ0ub2DXilmltxd2mX1fZbDwwpYzhyNN/ecxdV4tV0Mnusa8P/vR1Or71gRu9mAnOXbUaoSCwMPXfq6VCfAIbRy0TS3yduai3FrPTsFzRxdy88wBpO2tGprq89TxV9b9fsaZsnz3E/tbaTDXnsiJSUNMyt/dwJTa1zqhXdzs9Q3YnkC3PHb3pTafyund0CbNGkx4cCxy8bO9/twspWP0kd/PWYcYyM41Sxzv8KvseStUYjz1ThXA4D02bGhUUkawX2rg5Ces5kbdL1i/ekmmoZGel0FDXuU2gyYiNi0lFLRyervC6DvjQlxuUyMZ0sISwsEbFyd5MwC28MIU8KC4tTcexcnYUIaqJ2qtKiI2KlDCsnRxEr32SdIjkiPDaTYIsdnGx5+Y4PoUiJioqXYgIbOxuLrL6IVimVEUz9NqvTIkOiMnlOXvZ8hn1AfSucbSiV7CzJETbZpdFkRIdEpOJiFxcbbt7uZNy7eCtR0z6T3H08u9Mk8f1fTYydb5u0svjwyCQtx8bRId/WkoUrEDaXhevkieHh8Uq2jYuTmFXEtahLTU5DuGXZmoyMDMyoY1dM4YYtJxRJ4eGxKqGbhw1Hk/D6ZZpVeQ8x3fRKvhzNrUGD1JPnTz0cE1Arr82oiz5/8j6/cVvvC8dSDK8wyg7ZdnxIznSue70Rf7Q8MfDUnReaTjZkAurSUlJR+0qN69cTFzoe2vePgzMdWg3pWdVOf36tA3oMabGv14Un77Wtqpm6IFSpkWHRaWqmpaOzvSD/jheuEnpZFU6bERcem45ZODhacQpdFcDMvvpgP5F+ZnSD1baB03nHFux9GK8kEJRm6ddt9uopje1x2e3F3Uft+ZCpIxa0qLkAQZiNltz9sxUHUbw/tXTGimNP4lUEirHta/SZOX90XX2XIau0Da4bNla8MDHwyOt01Hv0sYPDPfLVEyLzxb5Zk1dcCpXqCJQmqth9dE2acV0mMp4fmBu4/tzrFA2B4nzXhkPmzh8QYIHq36nvrJ86Y/u/UXId2TVAaYIy7WbvnNPMiqyfqoiLq+Ys+et+lJTsx6Ao22/8wb2DPYngNZ37vxt4fGjawknrbkarOC1X/bus/qs1nXudqrbp6pw6dER1a26DCdJxq/yuBq6/FaPfe5Z9rcELFg2vLsK0zzf0HPrnsxQtsbFrrY1ki6HK1LN7eqh3D2i3xioo6zggWcNay6YvO/okQUUui/Oc6/SYPGdkPbusPdYXPlE2bpn3taAttyLJjUYxfpnWU1Yu6OBu3JjRDxNeCvpj4fFn8Rrd8VE1jyO4y4D9p8dXpJVU+GTtgqNtgqdO3/EokbDtteviZLsD47ssflpmxF9Hh3t9pYuT0Dk3bVPu9O5Tt8fXapzTN9eGnjsRbNNysF/ouWNFLaiWSpUIV8A1pIkyNVVJs7AwOUyJWtlaoSkhH1OIClb66URaWHgabu9oW6gVTGQ82z1z2p9/h2R1X1Gc69Bw4qbVXV31+26ySrjri8exxKsLey089CRRf1xZdjUGLFo2vIYlNPa+om9y11KXcHzu8jp/BJ1eVdEGT7i3Zcq4nbNXVKu+rAmvyvCteyzHdl1HG3dkaVvyTDP5bDKs/ln8+4xL9oNWX+xf00b9/uyisbPGT5Yc2dbH0G8l4m8tHve3Rd1ZOxf6WLAsXAoOpdxcPDroOr/rkuNjGrngicHHl85Ydl+N1MrZlriz04YtDvYft3Ntl4oWGc8OzRm1fPQsm2OrW1tpHmyYuum9/4xDh9p6cuUJoS8fvMQqiPWVW/5w9fAJ+1T1R69d16ysQBH77q3C3Z1cr34ERvNu/5ipSNm+q47WdmJzrE20DhU3F89WDJ1zdEllOzTm3y0zp60fM83m6Pou9l691h8Sz2gzJ6bPro29XHGUzrPEkHDjnUm7uXDI9IuiHguPD/yfKyv99YU/py8cNwzdcXC0P8swi/zG4tlp/WcdCKruxEp9tn/2uFXzF1aptambjfFFiYn/98f6CnX+7DnqStWlR8ZXpuNsC1ppCn+6fuRjZuWRW2ZUtmXy7Gmo3N5JwopwcSrVoMFnUhOOLdpW3LjmxI2URq0NV7/m9anT71xaLfDGVpoefNKmvTmzaPlFTcU/ugVkVWl985Ng0cJvXjidoUB51u7+lbxtc5q5uGuHER2Oj140dLpy+h8NWXc3zl700H3whs6FuvPat7sDl96zGbVra29/C3VS+Ov/nmSWd8qqcEVVCT3lzfWbmo7/8+x6b5Em8tqasdM3Td9Y48LUyl+tFQvMGGS6kC09qmzPreD0KtPObOqecznhVQbN61cza+Tfud7wgQ3+Ghv85KOmSQUmXyzi0RGUzhdLJIbxCTJpdpyK9xu5/Y+6LvqlvTtOGXLxypzDp971HFlO/wKhDlfX2btubCVTg9VE6rWD5+PtOi2c0tJTfzU6VOk9a+i/t2fczp6u/XBs51Xl/xbM61NVvzpOQO+Jfc+3X3PkckzLHpYpSWmIwK28u4RFR1j23rXbeRvKTLu260iYVafNSwbUyFqnjX0Zo/1OiLWbe2xRx9y3c6Px5extIsr3njmkjqN+BveG4wL7/dt5w8EzoR2HuPNFYj7ZdqJxLCUSieEqML4loT8UZ2K9Bm+c2NxTP5VbqcusOe8f9d2/42r/FS0Nt2AJnUePWX80cNNP51QdMLT1ob4nHr/SdLPJ1yYjg0tCF7IwFGUJyFXpryhdbMmFa6PTyq85Pr2+Rc5pZTVecO2/omqAmRA61K5p++qr5p/6O75lZ30NUj4+fjbKp2drT/xR/hwj0i7O7L7igVyaHJfB9usceGBCWw9DWhAEg8FMvbl5zitLliYtPiFdI/TrOW/FlIZZzU1UVH/mjtX4oFHz+hybh6AWNSbt/LN/ucL1SZeSnEpw/bw9rdk0lG3jWa2lZ86Ki6gS2qx1cxqMmdElIGuQ1LPFqD7HT855+jRaW9kFephfjfmCDLOqN2x0C4ecyxmT+Atz3+Bw14r+eS1ruqVYgMpkctNvrupXj5+rOeXjbhzYn728LkLO0kWGhKuRclntHcy9WSv/Im65aUNev1Fyq9TKaVPob1ZVCHDDs4OMSA9+8oHg24SdO7A3e3s04QSuDfsYoUPsanbt6v7HloHdPnbv27tz86qOnOxhrg/PXsq4Vf5nMjnJi7t622aFOyX5joyPT94MuHv1arbrD716p0LcS7hvqHn15KXaoXMNt7wLgFWhTlXB/juP3mhbVs06d5ikQgWn3OmohcgCVcrkuuILLnXh4nptalt8+y4RKm7crs7iaScvRHXs64TJ7p48nxowqgX5TvCowHwsz8a9+3irFGnR7x5ePTVncFTiqmX9K5D9Sdy515brXVCWYSBQGXd3y5QJ6yfPcj+xqTtZRYnM5/vnzT+RXK7TmNa2H88ePL96zFTa8vm9fAr0ROkVO/zmf2btyM6xXfv1/q11TXd+zrhisVWC5lXRP/fBFpQntmQgCVKZWY8QKMCMXUue1/9aty082K+Hcnkcoypi+LGIO9Sq9AwVoY56dPnSq7wXPSsHuObeasMEQn5RFxchzZQhfKHAaDMwnoCfEyNEZlomQcjC7lyW5rXz2f5VfB24KIIKakzZ91fVfVt3HFrQZ9ti17q9J0//vYE9nZBmZBYo03jf2AIBw+SU3DmYbONBdJQr4KFamVRBIOziM0KZkaFCecJ8T79hfAEfkWZIc6KKPLRc4+mmbmx8fuF8If9rPRRTLFRYt10j7piT50J6DZFcP3FVVWt6U2sMSS84H9O9fnf37J/HvtnUt/vqWbvqHBuRNX5HY+V285k2NYZN/u1il+3X7qf91sEi49aSkUtfVAo6tKS1PXkB9O7VY/uE4Qv/CHI4saBh/k4zy3fIzuN+h7Zu37ty+J5ltjW6jpkxumUZFlJClShQ3dEiKzswlx/vyX4Gn8dALRtN2TG5UuGNK7E+6K9rJDMjQ5u3a4RCRmYGL3uygItiTu2Dtg9yN1UJUa5b4yELGg+c9ObyzsWLN48agRz864+yHLLMjLR0zWceLiIzPYOMhpz1EalJKQTdXVBCipGYQiGLeEv2boxe06akkP1fC8EX58tXLfzLcWq0ayYedPrMi7aOx2/TGiyuZ4mWcPZZHv+r6bBu+5v3KsSrcEMJk9hY4TqFXEUgmqeXr8U7dx7Ywt5wOlGBb7+xXY53O3D5iaZhvYIDWUz7mn1m1ew1LvTmgZUL1k8ZrLI8O7MmvaQqAQP739h3DzIUwzGU0GhyR5bo5Sv70c/euvpsdKVKrOKWNAl39y7L2vffneeK+pUNSxMZz5580CAVDGsj+5keyKZrV8P6u5tMsuxShGWbj1qa8bz+gqcv0ojyZXy92fsf3PhP2qD25zwKr0t+/ChEWzP7Np/q5T93ErGyvmWzmnEohqGI0d7nQ/etWpF1+t9br9UBvtnXl+zBjfuZ/IDKnl984j63cEJ/c/QbXKfMym1bOvx1ev1C8QN+kw01S34qj0h99yYesawuMTWmTmQEP36jlTT3EJEhTaPhiEohN3pz0SccwmJl1zedTodh+cMc47nWH7xY867+mOBnUdqaZb6wSgBzM2OQZb6/feFsWG4Vx6386ldzMnETLz/UwslJqDt/+tDd2t29aFqatY1N6yFddw/ZM348d8rvzf1sWKrUiBd37itrDu1QtuTBUlTYoHsr29//mje33Jzh9ZxoSa/Ord3wryp3Ou7R5fdWh8etHT2VPrF/g7IimizxY/DdF+ymg5o6qf87sOm9bd0AL1d7SyTx6eGLr3W2bT0FKEpv2LeT84B9syfYTR3RvKyFNvnD0w/MOm1rWJXuwKBYyMG5y8tM7VHVhgi/uWH2vjDLRn+0zhr7R2iOLg7E1cuHrzcfWomrQYR2QuMFxS1/77F7wJ4psx1mD6nvztbfWJx9ItVnaP/6pfnMQAlb9RmFE0nnJ7Wd/rDSzP1rOth9WbMt8+2tM6c+5paBiX0b1nbLVxvpPq3buu9acyXedeD0KoXe0rQvD8w7raxcu6KHk60VR5P04f6RtStuqMv90UnfkNeGHF96KM2nTkUPR2sLPCPk/on1q86oq03tnXXn0L9pI9ujR4MW+84dXM/LEkl+e31z0NEY586tK5BT5bfntx9xznbkzu0DvZCXxzc84Fav7u3uKKalvT536pFcWNXTFidrbRFVQvRFBwV8NvMFmTbuyqpJV/J+139EqWrJQYYwqg+e2u7JrE2Dm2xAmLVm/b2lq1W18VvX8Bet2jeu+5/6D3CiDJFn3T9qlm4zUP7/Jq+dq56xPLDnUQ2CsRzqDZ0dZB04KeepBlTceO62xeJF69aO6BKkfwAIY1l5t57QjAxglEi8vW7phiQlkbVSiU+L6cuGVdTXfE61cRtX0oNW7hjTebV+GbqkwexqbUt7ZHCv3mPrhazq1yRCpkNwgWezKetmtcz+7BZevvekvnem7BrVZi9C8xl59K/B+c4Iu+LIzWuY85au7NsyUEOgNAvPRiPWzxroXfygXCl9euGEMiUxU5kSmyD70jEfbdzVNdOu5v2uf4auppt1vnnwMq3b+m5cqWjbxsdEI4svRF+tnbt3WbrhA0o429a/6aTN43t76+dFOXzlkzUz9y4zPBGI8xyqtAncOaZj1gNgCLfmxI3z0bl/zu56QKY/nTjfuWa3FStGZrXhNelJaYoMJF7/KSMUS3+6c/7mhfKsp8hoQo/6I1ZMrJfVOPyyKgHMzTxBxm6xKrhFEdOE7Tc/aZ9/nZWmXno6NfdX3KHV/ONNJsbFZWBCG6uswWeafd3ha+oOVaYnJqSp6AIrKyHT8N6NFi7NxNZ4dV5wuMO0xJhkFdfK1lL/vPWlpkbTWW4tJm9qMUGeEp+YqWNZWEv4hs+2M6uMPHxjaEZifLKMYFpY2QiZeT0oumOTceubjJYnxydlIhwraxFbf0lglSaefzGxwOppBV8klPRyA9af75MaG5+BW9hZ840POiqqM/ng9eFxsakI39paiKPIoINPB+VNx23qDFtbZ4h+xQqm2Maw3myM+kEPgvOtG3cfdCR4EGJSgcP+6YWT+2vfbdWpSikCL9cveZCgmNpSK/D6M6PNc+m/71n/vN/znX2nloE7W85QpCYmpisIOk9sLTZ6fh6zaRx4sPEMcscSM9U0nsRalP/hepZn2xl72k6VJcUlyhCO2EaSN5nffP5R1xHMMh76s1Su75ZrPaWJCclSDY1PnnXjz5ybrhKu+U8fidFw8b0Xn3J8wGf47mNkBihDaOskLPAixhRYO37uxwJxrsSx2NELnG1p52RZaEPofCuHIrtWOFtk5/jpvQciq4nHtLBzsjA9A41v41hsZzFrxZ+83lL6lMJxoYt3wfP0HeEsCxtHiyKnkjvmVMzpwjlie2dxwVdRroO3h9HvNK7Ejispbh2fUSWAmf0gQQYAAJ8PggwAQHkQZF8X43+zrt3W0uHPHwDwNUGQfWU4i/flj0oAAIoFQQYAoDwIMgAA5UGQAQAoD4IMAEB5EGQAAMqDIAMAUB4EGQCA8iDIAACUB0EGAKA8CDIAAOVBkAEAKA+CDABAeRBkAADKgyADAFCemYJMo8iQqw1fSIFidDaHRfseX+wn/3jzcrhDw3pleJ+19i9cHADwvZgnyOSXp9Qef1mZ/RuKsyycfGq26Nq/f6vywm/3Za+qu1smT7oQsOjmuval+RNgWmliis5CkvtVIJ+4OADgh2G+riXu0H72gq5uuE4tS456c//Ssd1Te5y8MmPr0s5lzPLlZSVj1BiyZGlz+wYlf5ernuLu0i6r7bceGFIG/5zFAQA/DjOOkbFsywVU9jGkQp1mHXt2Pzyh37ygCVvKHx5R3uh7CXWK5OiIBAXH1tlBmD/htLKEiIh4GcqzdnKUsPH8kxKjohIUDJGdvQ1fX5hWKZURTD6LhqjTIkOiMnlOXvZ8hn1AfSucbegYEhp5phLjcpmYKjUiNEpKt3F1kbBy2odExr2LtxI17TMzMtJxhMbicuhYvsWzadJjwqLTUYGto73x1uoLV+FcDgPTZsaFRSRrBfauDsK8vdSmfHgWy6vobfOlBxUAUApfb7Cf5dF55qgrbWYf2PvPgKAGbP1LuqR7m2bP23Y9NENLoDRL71ajgmZ29eaQU7RRV5ZOmn/4v3hl1retMsQ+vZZtH19L3ziSvTm2OPDPM0/jFTr91+ny6845ubGTOHhN5/7vBh4fmrZw0rqb0SpOy1X/Lqv/ak3nXqeqbbo6pw4dIdLPjG6wymZ2oPDwrB2PkzUEinFdm4xauKCXH1/3fEPPoX8+S9ESG7vW2mj4dtg9vW2CjRbXR93zg3NnrT33JlVDrlf/7bUDZs3sX1Wkj8KswlfbBk7nHVuw96F+o8nd8es2e/WUxvZkABNp52b9NvE6//Wzq8UcIACAuXzNu5aY1f/qlcfuPH7wVtOgAg3RhuwdN2p9QoPAAztbl2Ul3tsxecKCEUzHU7Nr8TKuLJtxILnpkrPjGzjTM2M+PrsXIvDRfyslkXJ1/u+Bl3htJ+4YUN+VmR71Lgz1scIQHTlN827/mKlI2b6rjtZ2YnOsTXynuS7xxNwVjcaturjOR6QO+XvttJlLRs+zP7q4kVev9YfEM9rMiemza2MvVxyl8ywNZeYtGnd6ytCFj72Grjv9W3U7PD74+OLpK4eNYxze1tvd0FbUJRyfu7zOH0GnV1W0wRPubZkybufsFdWqL2vCR1CmjbMth1/kdyECAMzrqz5+gYntbZnEq/gkfUaoHx3Y8ZjTZu3Mzr76iHKsM3RCp3M9/zp8Y3ytFrLkZAUmLlPeVcjAEZGzbz1n36wCdNGnd55P8Bi4Yc5v3vottbV19DJM0P8vIdZu7rFFHW1zuouawlvAqDkksHtlS31v0bvNlGlP/x145NDfExt2thKJ+WRPkcaxlEgk2Z1Y4yDTvjuy47q8+oyFQ+vb6It3qd530eSXzcft2P2g6+wa2ZmJVxk0r19Nib5w53rDBzb4a2zwk4+aJmRms6pNPP2o4DeQAwC+lq/7HBmh0eoQDNdHgTbyaXA8wVO9Obk3InuqNJ6GyMNDorWYZ8MezXeOX9aj68ue/Xt0aFLBJjsq1G+C32jtOtXxNLmZrOptm9kWe1MUd/EtL8gd82L516rE2X//9QcNYkUvbjGy6/g8OBTxbF1Tkls8KqhRpwLt4tMn4doanlmv4q4V/S1zC6dbigWoTCYnii0YAPA1fNUg08aERahQW3tbfZsnIz2TQNJe37oUlzeaLq5cxV4fWphNs6DDznV2b959YGqPDfPLNh00ZUr/amJclSlVoQILgcnnulC2QFDC/VCUxWIaLYvzBFxEJpWVGDZEJrmxGF/IN45JJrk64kOGNGdplMvjGBWefYuhpKIBAOb3NYNM8+HcxdeEbbea+lElLY/PRXGHfqs2dhaZyiVM6N165MrWQxODz2xctGzFiAmsY9t6WXO5dCI9Ne1z40GXrk/PXKqUpAyEx+eV+GgbyhcKMF1SSqoOEefcPSVkKSn6VBXC07IA/Gi+WpBpE/5ZMWPzK1aVqT0q69tNuFOlSjbaE5dvxHfsYFN0ktAl/h2mzk941H7Lk7eaXg5l/bzwc7dvvVFX8im+M2iaLuLR43hdOTvD+jIf3HikYPn4euqzCcUwFNFoTIyr6SfyA6qURdfe/Cd6YBknw8JEyj/Xn2hs2gU44qVqd+l0Ogz7dg8DA/BLM2OQycIe3biWgGkUaXEhz25fOHfjA+LTZ/Gy31wMbRp6pV5Da52ZvWjUXPXYHrXdBIQ07sOj26G2XfvUESff3PlXkkftCh7ONnx1zL2j10LxMi3ccARzaNOv+faxuyZOF00bWM+No4h7+zhK0rJ1BVYpt0n7dPvMzfYT2/uJFO/Orww6mWTftVdDC32biubo4kBcvXz4evOhlbgaRGgnMj4UuEunoe0PjV47aaloWs+aDrTEp8eWLr2G1JzRu2JpAlV+e377Eedsn/y76xOPIQDgc5gvyLQx5xeOPI+iOIMjlDiVq9Rlzqwe7Srb5I1i4Y5dlm1BVyzZtHTIwdlaAkFxjl3FbjO6k5NQbcTF5cv/TNF/XBPF2DaVOsydbXjMQdR41tb53Pnr1wzpuFBLoCjLruPS5q1Lu030aoNHed+f0+XPOCWB0kW+HectmFTT8ElKvHzvSX3vTNk1qs1ehOYz8uhfQ12Nl0Qt6s3csliwYNXs7nsydQjKFPu1nLptShdn3OSKCtCkJ6UpMkq7lQCAL2SeIGO3WBXcouTZUL53l8AdnadLkxNSpARbbC3mGtYvajDr+M3J6QkJqUqEZWljxafnDUSxPdvN2NV2ijQ5PkmGC6ysLLKezq808fyLgs830Aq9SKj4lcduvzI8OSZBxpTYSThGMYSK6kw+eH14XGwqwre2FuKFymS6NJu0uek4aVJ8ioYjsbZg5XUUUWH7zU/aF1j51EtPp2b/wm8+/6jrCBNPtgEAvobv8Gd8UBpXbMcVF3wZYwpsHAXFLGNfeJkSEQTZxsPYIgdnkcnpNL6NY7GfECdXLLHnfvJ6Ua6Dt8cnLwUA+Dzw98gAAJQHQQYAoLyfNshQQevVtxoRLC48AgHAT++nDTIEpbH58AcSAfgl/LxBBgD4ZUCQAQAoD4IMAEB55gkyqVRK/puQkIBnMUuZAICfmFarNfxrZWXF5X76s5r5mSfI4uLiyH8FAgGHwzF8VBpF4Y9EAABMIwhCp9P/KVO5XB4fH+/m5vaFBULXEgBAeeYJMjpd/zchyPYhg/GNvvoNAPATILtuMpnsy8sxT5AZxsWgOwkA+CRkaJhlVN2cXUsIMgDAJzFXaMAYGQCA8iDIAACUB0EGAKA8CDIAAOVBkAEAKA+CDABAeRBkAADKgyADAFDedwiye/fuffuVAgC+merVq3/jNX6HIPv2OwkA+Ga+S0vl+3Qt4W+WAQDMCMbIAACUB0EGAKA8CDIAAOVBkAEAKA+CDABAeRBkAADKgyADAFAeBBkAgPIgyAAAlPfDBBmhlmcqCBaXQ8cKTtIoMuRqBKNzuKzCHwjQKqUylQ6hs/msvH1RpUSGRacqaQJbF0cJy6hAnVIqVWmNFkcxBofLzCuWUCZFhMak63i2bs75lvxJaBWZMh2Dy2Fk75o6LTI0MlmJ8SSOTrZ8evZc+sOk1H99KoLhDDabiaPGJUhlah2R9TOKM/OKykKo0qLDIxNlCMvCxslBwjEc2ayTq86/JWj+U/ZNaN/vGTnmtMfMfeOq00uY89W2oROv+c/dOTLArNuovr+i+/z3bVb82dej6A+36Ou0hpavXoIS/ChBpov7a0izJboJZ/f0digQH/LLU2qPv6xiVpl2ekcfx/wTdbGHh7Wac1fBaBD0z7p2AkQTf2//qrV7zj2OkeuvNRRjO9QdsmDRkCqWWZei5uma9n12hhslGe4yYP/p8RX1h0GXeGfDtNk7/4mUEyhCICzH2v3mLBheW/LzpJku4fLk32bG9t6/s587pku6sylwzs6boRlafSqhOMemQr/Fm0dXZSPatxt7dF3/znCYUIwpdCpfq82AkYMbObMQ7ettfXtteC0jDy+KC2rPOLGxq+GE6VKfHV69Ysvp/6JkWQUiKE3o3nzS2iUdnFH9yV1wP1+SoeyWq+4va/yNvwZVmRIVEiaUEiXOSCiSI0PC7GUlz/lpCFlimP6do9iZ1G+39B1wPmD1X9NrCeCLyUrnRwmy4qEMkYgRfPJcaM8h7sbvUtrws8cfc8QidYbhd0IRevPiK3H7+Xvb1vKyYsnCrm+cPm3thCVepxc24JPTdWkpqZhPn0UjanFzSuY4GUokki/MHb/pTaXxu3Z2C7BFkx4fChy/bOx8twsrW4l+jspEpN9YtfAiv8eBHu408h3gxMxR6x+X6bXwQNdKNmhaTNjbx3cjXVyYubPTqwzfNKYmU6NIjXpx7dDuDWMeRaz8a3Fjkc+II3fqrenafYdoyvmtPW0NFYhIujG377hDcfZN+wcFNa7gJESl0a8f3PgP87Yjj25W2w737DZvUiNxzrFEcaty1Kh83x7Lb/CEtqeHB61veWRKAOt7bw01UKMuEZhfo0Zvjp8583rgKJ+8JNO+JV9xbNhedOqE4QWUV23ivuO50zllW44bcvnUhPv33mkakF0EQpGaqmS4Vm9crwGzwBrIXsfj4EyHVkN6VrXTHxPrgB5DWuzrdeHJe22rakUcJPJdOzw8XsmSOOb2oQxFkT0Dgkn2m7TSuNDwZJ3Awc1BULAMnSo9ISouA7e0N15Yp5JJtXQem46QZYfFKTl2rk4WhlaLKjUiNFrGtHYhu7w5aUBo5JlKjMtlYvqpUVK6jatLUR1ibfixTecza07v7qMvT/7w+j2pfddJ41tV0m+Zvb2rd+V6+ebHhK6VAgI4+h9rNW7qQ2839NiByxMadbNGETqHw0ARFjdnu4nUy4tnHY5y7rtp5+RqwuyNs3X0DGicrzz3KnXqFGxuF9zInEOnkyWEhidqhY7udnzDG408KSw8XmV0QEo+EdllSuPCIpK1Akc3e46ptySyMxwRK2VYOTmKWJ/wlqVKjQyLldEs7Zxs+EYnN/cMopr06JDodMzC0dWWV7iPqFPLpAqkQM9cv7BSf2C51Xt1L3ds49YLg9a1l/wc76NfGTWCDCFQ/+bN7p09e/LpUJ+AnHqsenridHi5zhNcb5wscjlFRqYG5fF5WZWBSElJQ4TOFqaGHlArWys0JeRjClHBSj8zkRYWnobbO9qavPI00VfXzJq/9160Qt/FYttV6TwucGIrt6x41ASv6dzvWefVLV8tWnohRE5Op0kq9ZizZHxj+6yjrYu5uHDKkhOPo6T6LhjKsqs9ZNHK36voOxHa8N0DOp2ssXBg0sYFJ96mawkUF1Xsv3hFm/g/Jy85+SZN/wLfs9PcdbOb2eP6NtaZ0Q1W2cwOFB6eteNxsoZAMa5rk1ELF/Ty4xes/dqQi+ee4TUWNjJcFziTRUfkmRnq0lUBjm8FL/xweGyCDrEudPR08Rf2X0kRt5o3MjfFPlPWoXvRZVWTZ4tWXgkju68ow7b2H6vmVg1eNG31lVCpLuuA9Fu8blyt7KZdcSeC3LLk+5unTdn8T5SCnMi0q9V/iAfTaAuJjOcH5gauP/c6RaM/sK4Nh8ydPyDAoqR90CU/2BI4Z/P10EzyBKIMiW+rPwKn/FY+q44ZzmD1oIGp2xYdf0mWS85gU23A4uV/1MzfsFc/XtVu4Bm/JedXtcg5aETq2YnNJ79os/Ps9GpMlxat/FavPHslod1v1pBkJaNKkGlQ7zat3fYfOfVgbEBtdtZr8vsnzydVHNbSXnrV9EiGOvHJgbkb7vDqzm1vGFkl0lLSCHrG++vnozJUmMC2bMVKXuLsWMRdO4zocHz0oqHTldP/aMi6u3H2oofugzd0djIRZIona0eM2attNX3vyKZlhfKP17fOmTV1qFr41+w62WMa6qfrp+t6BB64XseZmfTk4OxJf04YKzq8f7AXuR2YyKF87d/rTq7p427DiL+1evSY9Qv3NDw8wsuQENoPu2fv7TBjz7X6LrSYq8tHT94+vvMpq9ojNvzdvCwv7eGmCWO3L9jQuO68eoajoEs8MXdFo3GrLq7zEalD/l47beaS0fPsjy5uZJmv+hNJD+6+Q33aV83eQGbVpvVF50/PnVwmaFr36raFGqgFaCNCI7Q0O3trU7GuDP7vmYrboEE1romJn0z9eN1Mos+8wzdq2BEfT84dvmD10M5Wjs3H77tW35URd2Pl6Ak7g3Y0PTnBDy/pROjiTgeOWvfEbcC6HYNq2uqiH+xfMGXjay2rjGFFuriz04YtDvYft3Ntl4oWGc8OzRm1fPQsm2OrW1sVlxzaj7tG//FnbI2JWze09xdrou/vmz9z3u+ZvCMr2tgYjg55BgO3Nhu//nwzb5Em8tqasdO3zNhU68LUysY3GJiVO7Yvc2jHiSuJzTtZZb/N3jj3r8y5e9sA/dnAbKtVd9PsvvtY9lszsxzXnxxFggwhCNyrbRvvLTtO/TO+dhO+/t305sm/5TUmNbVFj+fPMV3E4VFDt7+SZSQmKkRVe64+8EejnA4NxqDjkedXLHhowVClxCVmIFY1By9aPrya/s0SFdWfuWM1PmjUvD7H5iGoRY1JO//sX45tYlsybuw8+MG687bAThX0Axj88q0mLwh/3HnD1jO/1+phb1iVzr7TlNFNvfSHl1Nj4PwR91rMP3Lkaf9p+ntgTN8OQ3yzy3Ku36tN+UNrX71TIl6c7D3lNx41oWXWmsu0GNxpz6nlHwJmz+xcQR9B/Dq/96q5d9rLF5Haep7ZTSNGzSGB3Stn5ZZ3mynTnv478Mihvyc27JzvctR8fPNRK2niaZV9JFCLRjM2TdVOWrm8b/Pt5eu369qjR4dqdibyTCtLDHlyccfS3aHipiMbmerm6FLiE5SolaNd8TcCNY+Wtq6wPPdXZpMl11c0NTUApLPvMHFEA3f9ofPpMrD17ms7lA0mTWzprd84t6aDO1c4vvL5y2TCzwot/kQgkWcP38rwGjp3VD0X/aFyrTNkRv+b7ZZ+zN6xD8d2XlX+b8G8PlX1p58T0Hti3/Pt1xy5HNMy5ySaonq4f9cTRrPl8/pUz3pPKFP/j0Ujn7ZcsPmvty3/KGd4vyS4DcfN7BKQlT+eLUb1OX5yztOn0drKLsaNWdyrfUf/rStPnY/qkHULi0j4++wdpefg1uUN1yTuUtaTpXjzOkzbrDzcvSwRVYKMhDm3bFtp3eqTN1Iat7ZEkq+euInWm99AjCQVmA+18G3dq081lSwl8vWdv/dNGBIzbfX8Lh7kdYD7/nH47mCcxdTXU0IW/veaCRM3jl/geXpZUwuUyHy+f978E8nlOo1pbfvx7MHzq8dMpS2f38uHV+Di1bx7+lzKq1LLP+8qxN1q13T888Dj56oe9oZXWeX8PHKPLWZdtYYH+vDNmyRdgOFdW5X08fnzd1GJaZmZCU9TCMJSrdF3M7Pmpnn6ls8pGhVaClDctbwXN2cjWBZCFvJRpshbt4tv+bx7Wyz/WpU4+++//qBBrIyDRZUYn4ZKrI2CCOX59Fh6svmAv48fOnD44Jz++7c3m7w2qKtXzqpVV6dW8ZtK6HRkn40u9u0wZ9PUJsXd9iBKuMGHubQYO6xObjsRt/MtIvjyHTqBfv+F5b1yhhMw8gWMSJGRfUVEW/yJQN+/fKez61zDLTcGcIdKFW0wQ5AR6cFPPhB8m7BzB/Zmb5MmnMC1YR8jdEjRQaaNCn6WgPvWqpbXd8esatYuh658HJxClJNkvULzquDHyZmM8sSWDCRBKit0QJxada69NvDE2Y89f/fAdXFXzv2n9R/VOvexDJrERkT8E5+kIze8qM0BOSgUZGRru2n7GqvmnbwS37KT9uKJO5xGa/9Hts0KBRm/fPPu5Q0/jxr1IKj7wAVBAbW3ds+qnXRWTqsD5Tg3Hju23cXfz157om5aT3FrycilLyoFHVrSWj+U1btXj+0Thi/8I8jhxIKG+Ud+CGlGJsLj8/PVLoGQh6ozM5UEknVVoUy28TNvGI/PwwipVH83XxVyeu7ERSdCWZ5+5ZythFwkWYHkg7K57HwrRBlMRv4EMQ4NlMUyHvfBeQIuIpMWeG6AUKnUBEpn0AskEU3k3Wzg7GZ9Rz7cMXX0mqDJnhWPDMvu4tL8ei0eXIVNY/Gtnct6Oha6W5G3c5ZWEgbxOipWhfiYasDmzCb2bdSmTQmD/fr9YXIKDNiT+880laAlnAgsU6pGBRbGDzCgfEFOABGZaZkEIQu7c1maF6hs/yq+Dtxih6QyMqQE3UXIyVeqkI/qUjMydYghyFAuL9908mdTKY+KG3VutHzU6dMvB471ib109glSdWrzvKEMlE6nI2q1ytxPgPycqBRkZO+vcds6i6aduhBRSXki2LrFqOpkamiLXYJfsV5li33X3oRoTb3N0qysxahartAimqeXr8U7dx7YwjAgj6AC335juxzvduDyE03DevnaDqhAKEDSU1I1RkePSElOI5iuFjm3vQhZun4cPfcB05SkFC0mEvAxXeS+2bOPSdtuuDijnlh/Beqidve6+LzgZn/CQdGlp2ca1XVVSlIGos/N/AWyOGyMiC+Yb7nHQVxlwPjfznXZ/PhZGuElynoNs/Jp0Kghx+T8+TF9KpSnXbx77YG0UV0zDOeUeudLOBEoj0sn4yrdeJflckX2ryhXwEUxp/ZB2we5f0qDR0gmozo1hTzkuc1TXWpKqg4nIxPLftKk1DvBq9Ophe25C2eChwmeXgxm1Jrf2GgQkiDfjhA2h/0pleHXRakgI6tu3baNeWOOLFutfufcep5/CY9nI/onZt99yEDFNlamWgK6pKePwxDXRmXIjguNhiMqhdyoHa9TyFUIi1VoGIfmWbWyxe47Nx9KG9XJvm7Vb2/ejmb4D/DJ3SD1i4fPFC2rGxbWRv57+yPiULe8Jaq98+aD2rJRk1ri7NVI37wK0yJ+n3Yc8u1ExKPH8bpydoYdzHxw45GC5ePrWeDipNs6WBH3ImM0iJfpy1YrzZQjTKHwM64bzK5Zx9rrp59dvb59pQlVCt0v/WpKOhFevl7Y+fv3Q7UVs7trurjg4Gid4WCjwgoBHsima1fD+rt/QpLhDpUDHLRHb9xO6dwmO8l0Mf9cf4t4DKnwGbdsmZU6tnc/fPLCRdHzl9x6SxsY9d0JaXRkCmprb/fzPJD9Nf1QQaZLev736dN5t9swu4AWVRzyzcKp0a6Z5MS+a3iFce0Kf8hD/WDz7Fuc/9X0c3e0FTEUcW9uHVi99imrxoyskQfN891Bl7DqNX3dHKz5RPLbfw6u/fM2r8myTmVwBPNv2sj26NGgxb5zB9fzskSS317fHHQ0xrlz6wqF0pJTe+DASpdXzZvqFjiqRTkLRci1LfN3hDh1mdoi7/0UTTy9aKHPzIH1XBlxD3bN3fiMWWVKZ29yIxxcHbCUu8dPvfBo6ozGPDy2YsUtJfpF17726faZm+0ntvcTKd6dXxl0Msm+a6+GBZ8hoJXx8WbtfhH8UVtPvxXatwfmH0ouV6W8i52NmKNLfndz37qDMQ6dZlUvxfOXWmlKqoIgpCnJCp2AjenHANtNmXytz6ztw3pE9O7fsY63gwCTJ0W+exlp2bR3w+zepC751Y1z53K3C6XZBzSpaPNFV2kJJ8K+5W/1Nk/dPn25S2Cfqja6uEfHlm9/jqLZtQb36PJ7q8Pj1o6eSp/Yv0FZEU2W+DH47gt200FNnYoJNrLHPbz+qelLJ6/lTuhUUaKLvrcnaN0jYfOVnct8zkgW7tmhk/+2rWv2plg0GV5bYDRF/frZK7VlPR8HGCArjR8qyLQhpxdPOp33O7PRkoZVHPJfkszKbVs4H9xn176lieqGCfmq/zbP2Bkjy/7YDd+patvAeWM7ZY08oFxuxq1lU7anKPVjTPpP0NTqunzJcEOt59acuHE+OvfP2V0P6BcmF3Wu2W3FipGVTVzZNI++qzeji4K2jWi9REWgOM+ldt9VM0dWz7stgNm2G9dFsXNY6+kZWgTnONcZvnb+b4Z7Z79NH/No4toZXc9NQzC2Y70/FqypsPj3p59/0OjVBo/yvj+ny59xSgKli3w7zlswqWbBGxRkL6ZG3cqMa7duhA331jdAWEzpf3sXHU5RZn1qklzOq97A1ZOG1SqxPaV9urJdz60hanKxpa1rXp9yekcv8uDiTu1X7LfesWrd/l2zL200HHyawKXBhAa9chf8eGLB+BO55eg/otSgos2XfUSp+BOBWbeaty4xcMaGiR13kmeB79F89NKZlkODcrZA3HjutsXiRevWjugSpD/lGMvKu/WEZiUcAfLULtqiXRa0dkKntQoCxdh2lTss3ja+2Wc+t4o5tOxY88/pN2x7tatmPMKofn7jn0RhzXoVv/GHuKjqRwkyzLbHnqc9TE9rsSq4Rd5vNL9xF56Ny/sddx108Omg7J+9ui/d110rS05IzlCSHSWJlYXRmDvu1mnp8Y4aaVJ8slTLEFqRE40bBCzPtjP2tJ0qS4pLlCEcsY2Jh8RzoRYBfRcd6TU7LTFJigutJbwCx5FQIM5dFp3uMj02NpUQ2NgKc0frUb5/vw0XuqfGxqejAhsboX4Y+68HJvbFMLew/eYn7Y1LpteZdzc436pU/Mpjt18ZnhyTIGNK7IraalTcpEvT1WNPHH02YGJFBu7cccmJjuSBStQfKJaFlbXAaDwdLzf6ZPBo03uOVxh75vlYExPodrWGLK41RCtLik/KVKMsoUQizD74xZ3cfGiVJp5/MdF4bQUPCMJvs+FxG6PdKvZEoIJK/Vae7ZkRF5eq4xvOQvcH7fKms9xaTN7UYoI8JT4xU8eysJbwc+6GFNoS41K5ZTsF7uowNSMxIR0RWFnxjW7FFN5ghNFw8b0Xub/UD3qQ7/SRi7BYOO7Wok2+yMr898i5GIfWC2rDM2Sl86MEmTnhHJEtR1TERJTGldhzJcUsLLZ3FpdyRSyhjYPQ5CQi68YinW/rxDe1EUwLOyeL0q2kRFmrwtgiB+ei9tmwTn69EUOrdlq94XjPDd0MNz7IA2VT5IH6TOTxs+OU8viZb6VFnwhEfxZsHE2dhdyl2ZZ2Tpafuk6Mwbd2KK7Y0tFFnj5wTeE3uoPxJ0+17w9tPqdtOG9AJfikZSn9jEEGTMOdu85bEPfnvbsf1R09Sr5PAr4mIj3ybWxG2usTy/58Yt1pYxdno4a0/NXdCNfBC8e1NvlBCmAKBNmvBLdrOiao6ffeCoDo/6LUpr7DjqXiluWaz1g7vka+QU22b6/ZC77bllETBJnZ0fxHHbk7DOd8/TYPKmi9+lYjgsWFN27Kof9v7j8Pp6ppbDYNHhQzAwgy88OZXH5Jn8I2D5TG5n/5MA34LlAaiwOXn7nAkQQAUB4EGQCA8iDIAACUB0EGAKA8CDIAAOVBkAEAKA+CDABAeRBkAADKgyADAFAeBBkAgPIgyAAAlAdBBgCgPAgyAADlQZABACgPggwAQHkQZAAAyoMgAwBQHgQZAIDyIMgAAJQHQQYAoDwIMgAA5UGQAQAoD4IMAEB5EGQAAMqDIAMAUB4EGQCA8iDIAACUB0EGAKA8CDIAAOVBkAEAKA+CDABAeRBkAADKgyADAFAeBBkAgPIgyAAAlAdBBgCgPAgyAADlQZABACgPggwAQHkQZAAAyoMgAwBQHgQZAIDyIMgAAJQHQQYAoDwIMgAA5UGQAQAoD4IMAEB5EGQAAMqDIAMAUB4EGQCA8iDIAACUB0EGAKA8CDIAAOVBkAEAKA+CDABAeRBkAADKgyADAFAeBBkAgPIgyAAAlAdBBgCgPAgyAADlQZABACgPggwAQHkQZAAAyoMgAwBQHgQZAIDyIMgAAJQHQQYAoDwIMgAA5UGQAQAoD4IMAEB5EGQAAMqDIAMAUB4EGQCA8iDIAACUB0EGAKA8CDIAAOVBkAEAKA+CDABAeRBkAADKgyADAFAeBBkAgPIgyAAAlAdBBgCgPAgyAADlQZABACgPggwAQHkQZAAAyoMgAwBQHgQZAIDyIMgAAJQHQQYAoDwIMgAA5UGQAQAoD4IMAEB5EGQAAMqDIAMAUB4EGQCA8iDIAACUB0EGAKA8CDIAAOVBkAEAKA+CDABAeRBkAADKgyADAFAeBBkAgPIgyAAAlAdBBgCgPAgyAADlQZABACgPggwAQHkQZAAAyoMgAwBQHgQZAIDyIMgAAJQHQQYAoDwIMgAA5UGQAQAoD4IMAEB5EGQAAMqDIAMAUB4EGQCA8iDIAACUB0EGAKA8CDIAAOVBkAEAKA+CDABAeRBkAADKgyADAFAeBBkAgPIgyAAAlAdBBgCgPAgyAADlQZABACgPggwAQHkQZAAAyoMgAwBQHgQZAIDyIMgAAJQHQQYAoDwIMgAA5UGQAQAoD4IMAEB5EGQAAMqDIAMAUB4EGQCA8iDIAACUB0EGAKA8CDIAAOVBkAEAKA+CDABAeRBkAADKgyADAFAeBBkAgPIgyAAAlAdBBgCgPAgyAADlQZABACgPggwAQHkQZAAAyoMgAwBQHgQZAIDyIMgAAJQHQQYAoDwIMgAA5UGQAQAoD4IMAEB5EGQAAMqDIAMAUB4EGQCA8iDIAACUB0EGAKA8CDIAAOVBkAEAKA+CDABAeRBkAADKgyADAFAeBBkAgPIgyAAAlAdBBgCgPAgyAADlQZABACgPggwAQHkQZAAAyoMgAwBQHgQZAIDyIMgAAJQHQQYAoDwIMgAA5UGQAQAoD4IMAEB5EGQAAMqDIAMAUB4EGQCA8iDIAACUB0EGAKA8CDIAAOVBkAEAKA+CDABAeRBkAADKgyADAFAeBBkAgPIgyAAAlAdBBgCgPAgyAADlQZABACgPggwAQHkQZAAAyoMgAwBQHgQZAIDyIMgAAJQHQQYAoDwIMgAA5UGQAQAoD4IMAEB5EGQAAMqDIAMAUB4EGQCA8iDIAACUB0EGAKA8CDIAAOVBkAEAKA+CDABAeRBkAADKgyADAFAeBBkAgPIgyAAAlAdBBgCgPAgyAADlQZABACgPggwAQHkQZAAAyoMgAwBQHgQZAIDyIMgAAJQHQQYAoDwIMgAA5UGQAQAoD4IMAEB5EGQAAMqDIAMAUB4EGQCA8iDIAACUB0EGAKA8CDIAAOVBkAEAKA+CDABAeRBkAADKgyADAFAeBBkAgPIgyAAAlAdBBgCgPAgyAADlQZABACgPggwAQHkQZAAAyoMgAwBQHgQZAIDyIMgAAJQHQQYAoDwIMgAA5UGQAQAoD4IMAEB5EGQAAMqDIAMAUB4EGQCA8r5DkN27d69WrVrffr0AgJ/V92mR/fvvv99lvQCAr6169erffqXfIci+y34CAH5iMEYGAKA8CDIAAOVBkAEAKA+CDABAeRBkAADKgyADAFAeBBkAgPIgyAAAlAdBBgCgPAgyAADlmTPICIIwY2kAgJ+euULDPEGm1WoRCDIAwCciQ8OQHl/IPEGm0WjIf2UyGblZGIaRP6MoapaSAQA/HzIodDodkhUaarX6ywuEMTIAAOWZJ8isra3JfxMSEsh8xXHcLGUCAH5ihh4l+a+Njc2Xl2aeIONyubn/AgDANwZdSwAA5UGQAQAoD4IMAEB5EGQAAMqDIAMAUB4EGQCA8iDIAACUZ54gS0hIiImJkcvlZikNUBeLxbK2trazsytqBgJBbkXLz4bKY6Sab7lh4AdkzcEbO7KbOXO+/AONZggyMsVCQkKcnZ3ZbDZ8xPJXRhCEUqmMiIggf7C3tzc5D5liu19ldvbkO3Bxw8dywa9Jp9MlyHVH3meodUQbty99lt4MQUa2xcgUK+ZNGPxScBwPDQ0tKsjItlhnT14LV8433irwY2LTkN2vM36IICN7lGRb7MvLAT8HsjIY/hqKSWSPkmyLfcvtAT8yex5NqtZ9eTlmG+yHP0YGSgnFMKgswABFzDMYZZ4gg6ExAMB3ZJ4gI7KYpShAdSXWBCLrPwAQ89UEeI4MAEB50CID3xpZU6C2gBw/0pePAADAd/RL3bXUadRaw1aiGI7j2Fe6Q6HNiIuWcuxs+b/mu0RpasKPX1eMaRWZMjXK4HKZ+R/g1allUgXG5rN+zRNtFjBG9skIeeidy8GJOc+sYHSOQOJQxruss8C8B0GX8Pbhwyhx5RY1nOlmLfinQbHRfvX9xa0GH073GrJ7/yg/Vt7rupgDv7dcY7v89tLGjM8vnVAkJ6h41oIvKILSzFQTfqExsqwNxITulf3tmYROLU9PCP/w4b9/0rX1qrtyzNg4QyVelas4cGxpP/4h+Sp+vruW+q0llG92zdveZO8wb0a+1790d7QvNvWfoAg8PTnAxKWoSk/T8oVs05VTm5Em4wj5FH+4GFpkn4nGtRCJs3LLytZBTLt+831IRIZLWQGK6LRqHUKj4SihUUilSoTF52V3JcjUk8nVCIPDZdGyKhU5q5bAabR8ndPcFzGO2IaF5q9gZBFSmQqhs7kchlH/hNBpNFoUp+N5rxFajYbAjMrO2hyFBqWxyb4N/lM8sEetKNNvKr1y64Zx57fN29Vo1yAvet7rhfZFp0iOjkhQcGydHYSGyCPU8kyFls7hsXKrhE4lkyoJsj4x1S8uXQ9TB2SmZ6TTEUz/ilG90cYeGdnvgmPP4b93r+tS8L2WkF6d1noHvevQYX2aegl++Q+tmq1Fhvzww2TZm2fUeET5lhY0Ik4m1xF8TBV5//IbXvUaltH/PQ1LUyPCcvXrluXrMiJePHkVnqwge6QozrFy96vobcNMe3vr5kdOxUbVnZk5pWvjn165F2NVtUmAdfrL6/9ESmo0qWCdVb3UqaHBT19Hpan0a0UZAjsPf/8yYoa+XhKZ7/+59pZVqVl1x5wToYt9cvFhqvv/GpQTogghi3nx6FlYksLwVcwY08K9cq3yVlR/98m69n/oupKfvr7gFQZNZjwZs2ne3gbb+5UxnIHsXSAMjX1El3Rv69x526+FZuoIlGZZruWoeTO6luPo4s5N/m3O27orD89vKNKfdeWLDX36bCcG7Jgv2TB00a14FfF26P8OkqsoM/jA8dHl85IMc+gwdYJsy7ZpHXY5teg3fEi3/znnxRnKazh+duLWrYu679tYr9fQob2bePGpGGc/VNeSogiFNFOLsjg5bXdCEffiYQzdxr9WgAUDo3NRdfyLu0+i2Z5VG5exYukyop4/fPLff6x6tdwcHIXv30bGyJ1cs5fVJETGqFj2TgVDhpBHPr73LJnvVb2Bm4SDKlLCnz9+dfcBVq+WO6/ExpU65uWTUKVdQMPytlyMfF9PTcykC3/pM/bdEEoVp+7YyS1uj984/1D9rT1dC/XodCH7x4/amNhgxoGdrbxYifd3TJu4YDTL8eisWg7tA6f802160NKGFYMaiZQvts7eHlpu2J7Bfu7qBfstl/024V79Vfv+8MdRGscif7GYRbkWI5Y37xd66/D2LbO77LJp2m/44G51nLMqHcpzazBgQYOeI+4d37l1Ze99m+r0JOOssScl4+yLmfOu5Y/fIstuN5K0KllaXMjLtym4xM+Bm9VaIyfqpDqr2tXKiQzViZCHvo9QWJSt6WWd9UYocPLxiI59FhqR7upl72T59kVkjMzZLWuSOi4yXs1xchJhBKEzWh+RHvY+ViPxq+RpzdLPxxG7V/JJvfrfhw+JLv6SnI8cGh86Q1PFsJEapVKLMPkCLh1FyY6t0NpZ+KO3e1EULeVdyx95L0zQqFWoqOGEiU3uTV4b9Ffdjb855uSFYV/Ujw7sfsJptWZmBx/9H3Kwrz10TMdz/Y4cvjm2Vgu+TYvpM/7pNn7BkgZlu7+ZvT2iwrgDfbwYBMKwEAtZGIqxLUQSSb5WnjGU61K3/5y6PYY9PLlrS9BvuywbD5s+sYtP9hsh077ab9Oqdf79+fk9W9f3b7mpRr8p0/pXFVFiCAKFMbLPpUt6cfXMS0MaoHS+fflqvkYj/SjfztEy902RSEtO09EEirjQkJwmm0yDE7JMqQ61s3cUv3wWGS119SArlCo+Kl7Dd3e0KPhmqE5NzUT4DhJmXr2iS6wt0JiUZCkh4Re/rSjT1tX+w6OX/9xKcy/j6mRnyfol32t/DFnpjEqaTRx/4f60PxeeqPtnR1ujydqop8HxBE/59uSByOyXpPE0RB4eGqNF+DgqbjQpsEOPUYE9biuI6tNXdHf79AsPxZlcociSlRnx6n2cAvHh5Z/I4AgsRRzVqzdvojMJhBpBZkbmvGv5Y7cVsqsi38mvrA0Tw2hMLtnU0Q+8542dISiNjufthUal1iI6eXJMTFpeKXyRiKu/H8mwdbR5+SQyKsPdi6+KjUrQCb0ceIay8hp+OrVKTeYlnWbcjsL0K8lUq3UEgRo1yYy3MucVpl2F/9Wx+vj+Y8jjf94+E9h5+JR3FzN/8DpaqruW1BojM/yrHwvDrFpMGX2+y5yVi87UWlkV09+RyXodyUjLJIi0N7cuxeedHnGlKvbWjOyKJ6zxWyu3YxvfW7bt0twBzT3PRoUXtXpl3OOLhw8ePHotjF+9fe+gE22r2rPQnJqiSX559diBg39deIX5t+o+ff/q/7nxMAoNQZorM361FhlKF0hsbUv3tAVOp+MIw7Z8jfIiE00hurWjLf1hdFS6h2tqdCIhKu9QuFSUxqCjhFKlJpC8+NGoVFqUTk4wuVKdhkw44+0VOpSt7OCpTI169+LVqwePsLo13Mz5sMh3Qa2eJZHvB8y23dSRF7vOX7nk/Poa9NzXuQIuSnPovXJDR8vCZ0ff9fywN2hvhHsV36SLK9a0rTKlWnbPsNhHOOTvL2zZsOPotXBe5Tbd5/7VvrYLD8tdShN1c/u6zX9deo36tOg2Ye+Khl45I2wUOrbIj/URJYq0yAwtryKaDLnvkHlTBZZCLCo+NtXL0tLE0zq4xMGOGRUXHc9MTcKs/G2ZuTdvc1ZHEDRLER99Gx8vc+fmpI8qPi6FYDlasvVzYDhOBp1CqSOyn6vQJielEQi94MFEGULH8v6K5JsfUtJ0ruwfuotZyufIfui6kl+BsEEdOk8dcbH7kuXrtHYEYpE1CXOoWNFae/LvGwnt2lsXPj3Kl1tnrH/tMXTv+tYfZnafGri09v7ZdS3QrI+YYIj+gRtTB0SX+OBKMLfZrEMdG3gKsbwtMWyO9OmV29paY3aubuIrzgtUqoExsq8PZTl4OIfcD330mO7jYSdkYTqVLC0xSSfxdBToYwcTOThwwmNehylo1pVsTD6ZjXKdPB3D/3v7+BXDx1XCQZUpka9exSESXzdLLGsNlpYc4kPY63DLcvobkxlx71/FqFE0+0ElZfzHcBXPyoLPZdF18sSIOCnKsyv5ZucPj1oxlitvszHnLtOHXuq+/O+nCMfB8Dq9Yq9BNc/OXzIqSD2mWy13AZEZ/+HxnTCbTr3qiOWPN8zYGuYzek9vTybNY/KU690nzV5U61BQUysMtXdywBJvHTv7yvV/Yo2Oaycxam5jjt2XbjFaez6ooMXcnS1MTqKUH61rSYEWWc7/F9EiKzRcRTa6ROWqBdBevg19dPtN1s1IjMG39pTkziKwt+d/eJvOdC4vyRtbM3pcjfyJbuVTtQLtxdtnt0P0f/4ZY1rYl6/m7cTObrgIyviXzXj6/tm/Mc+yJjp4VfCIfByV3a7RSWNevX6rylo1irMsHf18Xbk/+H3L0n7W8ofehyLkbTPNvdu0wZd6rX6Wuy+YY4clm5FVS7cvH3Jkro4g21ocuwpdZ3QhMu6unrk3LmDiyp5uNHJOVNRo8rTW3cYvnF/Lb2UbO/t2Y4bdGLchsOsZArPrse38pMq/VtsCWmSfDGW51GjuUuRkumPV5o6FF2Jbe1a29tCplQq1DqOzmHTjp/lRvkftlh4FF7EsV69lubzfMa6ddzW7chqlQkXgTCYj/8P5NAv3KvVcNQpyIo3Jypro1Cy7SIaN7/+sy2etmoxQFov2Q3cpf1r06jOu3S/8queg3fcGGb+C8rw7ztjeYYo0JSFFSrBF1mJu1uVVfeqZB1ON57OsN/fSw5zfuBUGb7rcMyk2Wc0WW1v+Qtejef1CY2RfAqUx2dnP+XzuTuIMFruoAlCcyS5qohlW/YPJqig/y84UhnMsbTmW+p9KvY8oW2Tn8ElL/ER+pMF+AAD4jn6VFtn5CxeKmdqiefNvtiU/vZ/srmVABb/SzPbo6bOvvSU/JRgj+zQQVeDzQEJRwq/SIgPfTGmf7IfKAlCzVYNfpUUGfhyQYMDszBBkKIrqdPpHnaBFBnIrQ1FwFNFlfQaLOh8HBF8LiqBaM4WGGYKMw+FkZmby+XwMg+ecfnXkm5lUKmUymUXN4MKnvU5R+YjoGEL9jyiAL0OG2NsUtZhlhj/XbYYgc3FxefXqlUajYbFY5BvylxcIKIpMMaVSmZ6e7uFR8CnhXL958Zc8Sk1VEnZcDIfa8gsj2+UJct3DBOUwP8GXl2aGICPbYr6+vtHR0eRbMfQuf3Hkm5m3tzdZJYqaoZwlPbCa5flQ2YvkfH/mA/yCbDi0SQEWZJX48qLMM9hP9i6LeRMGwBjZuxxqjjdhAHLBXUsAAOVBkAEAKA+CDABAeRBkAADKgyADAFAeBBkAgPLME2SRkZEhISFSqdQspQHq4nA4zs7OLi4uxTwaDbUFGJSmtpSSGYKMrJevXr3y8vLi8XjwKaVfmU6nk8vlb9++JX9wd3c3OQ/UFmBQmtpSemYIMvLdlayXX74p4OdAo9FevHhRVH2A2gKMFV9bPqGcL98Uso/A5XLhw0nAgKwMarW6qKlQW4Cx4mtL6ZlnjAz6CCBXieMdUFtALnP9mQm4awnMDP4CCig9CDIAAMgGQQYAoDwIMgAA5ZktyOA+FDAoTU2A2gIMzFUToEUGAKA8CDIjOkVyZHh0qgJhWzo4OViyvstTAtpX24ZOuOo/b9fIADg5PzStLCEiPDZdReNJHBztBAy4WfsdwbWSRRN/d8/KFTsvPk1QGJq6KENUvvOczTMaWX3r6kkokiNCwuxl0Pf6cSkjrm1duubA32+S1YbagrFtKvVdumlUda6Z10TWhgQVz1rAMHO5Px0IMvKdNeLExH7TLsnKtf9jTce6Pg5cbWrEi3vXX4m9xPAmCwpSvNk9ou+SB3jFblPXtanpZc1WJ30Mvn09ysuTY/Z1aV9s7D9WHnh+KrTOSwDHRxd1ZN68SxkVRu/aPsSbbXjN1s6lXLWW+WbTKlLiohPlDImjgyUzN9+0SqmMYPJZNESZEh4WK2NIXJyt2IW6pOr0mIiYdIJnZW8rYud9iR/ZlY0Kj1dy7ZwdhPCWSw2at7umrriP1p21f3UXl+xv/7G1d/WpY/iR0MgzlRiXy8R0soTQsETEyt1dkv0ln8WdbkKdmRgTm6Ll2zvb8HJriOLlxWth6srS9IwMGoIxOVwmXnJRv6ZfPsi0748fvCtz7Te1f06KFZrjw9Hpk/+89DxeoSPITgTXpfHY1Yt7eLPISZrgNZ36Pu+8qumrZasvfcjQktPZTvXHLF/Sz49rCDtt/O31cxbuvhGSRk4kO6yu/XaenFiFgeiS7m0KnLf1egi5EEqz9G41euGsrt7mf0sH5qX67/DhV4j/xMkdXUx9hxmRfnpU/Q1uGzZWvDgx8K/Xaaj3mOOHhnvgxZxuIvXOmonz994NTdPoawhdXLHX/JWT61sTIYeG9V94I05FvP29xgEEwcsMPXRinE9xRf3KzBNkRBazFPWNEUmPHn4k7H6r500rag9QiWOFxmPaL6jm7SwiIi4EDZuxbPHxBtt+s8Wy7h2rH6+fKus4ffvlBmX48vdnFoydv2z2ntqHfvfE9W/fW0eNXh9d4fflCztUEGsTQl6lWvvSCUITsmfsyHUJDQIP7GhdlpV4b8fkCfOHMx1Oza7Fy74fTd0jWjIK75s29OGjBNSzW10HzOQu6F8j4m8uHnfFou7MnQt9LFgWLhih+Vj06UYQno1H1e5Bf9Sp6GHHTX+yZcLIjXM3N6w1vZpjq0UHLBZ3nXC3waqDI/1pKI1jUVJRv7BfvUWmS4xP0GJ2jrZF36FEBdV++z3nF89WPZptvHDi9UctkrOIzrr9lIltfPQtfJ5vp5Fdjlze8PRZJuEpRJX3D+x5zmiyeOmoppb6BpqNnVvWEupHB3Y85rRZO7Ozr35w2LHO0AmdzvX86/CN8bVaFfnNtuAHoEuIS9DhFR3s8KLnIdTh6jp7142tlNPCVz8o9nTjbi0Hu2XPyqnar3PlLYFvXyfoqtlzLcVCFoZibAuJREIrTVG/sF89yAxKaiAQ8ri3z15+jE5Kz8yMeC0n1Gp13gJMn0rlc8cpMEuxJaaTyeQEItRFPn+RjPvVrWmR/56BNvJpcDzBU705uTci+yVpPA2Rh4dEa5Gy5tsrYH5ZZ7KE2oK5N2vlnzdOUfzpzkpETVrYy+dvwuNTMqQZwbE6hKXWmFxFKYr6Vf3qQYZJrCW4LjySrD0OJhtlhPTFvplTVv6dYFnOz8tBJOAoU1T5ZkBZXG4RVUiaKSPorkJuwXufGemZBJL2+taluLwp4spV7G2YX7Qv4KvDJDYSTBsbReaGR5G5gQmEfONTXuzp1sZcWzFh9v7niKt/eRdrIY+ZICUIVlFFQ80pyq8eZKjIr6Izcv/2jZfqyv4mhm+1L7dNX3iNPWjX5TEVs2qn9sWKJ9cO5iuiyMI5PA6qTk+TEkj+hyV5fC6KO/RbtbGzqPDCms/cE/AN4M4V/C11J27cjBro4VzaFlAxp5tIObdw6p7wmvPPLWnrkFX9pGdGnnmQ9BlF/eJ+9SBD8LJt2/vtWHFoye5WWwaWLXTjUv7hbTjh2K+pX/Z7LJH86mWMDqlQqqIdy3tbai9fv53SsbVxvcOdKlWy0Z64fCO+Ywcb+BuDlMKs2qGt69Ed25acbLKqo1Oprp7iTrcu6s07Ka1C48YO2W+iyjcv32sQy+zJKIZjiFajKU1Rv7hfPsgQ3L3nrNG3Bixd1b/n+379WlX3tOEgssTwNy+SXDp2ry5wcrFBbl878ndL25rWqrDbe5dte0Yr7Zshq3qPXj5n1ywatxwb07GCFZoa9uyFukKnei6Veg2tdWb2olFz1WN71HYTENK4D49uh9p27VNHAm+0PzaG/+C5A+4O2Tane//nA3s2rewmZmszY0NfPVP6DejgZ7KHRy/6dIttXZyYmsenD/8X0LEsMyn43PpFZ1LoaE6QYfYujljCraOnXrnUE2sJnp0Eak4RfvXHL/QYXv3X73XYvGrjkY2TTq3W7weKMiw92s1oRxB4hQEzB7+csWNsu/0EivM9Wk1YurTsuEkZWbuM5Oxy3t7n/GA4IDSvQWvWEAuX75nWa4uKQFBcUHH07o51Cdyh89LNyMqlm5cOPjhb/3QazrGr2G3Gb6bLpJgSt5vatQXhVRm9ba/rutXbTy8ffyjrpg+KsSTePYL65e5XgT3EijzdiLjlxCn3xi5d3rPRUgJl2lbvM2fD2N39TpK1QF8Aatdh7LBrYzdM63SGwO16bz8/vUoxNYeS4K9fmBXLtemoVU1HqjMS41NkWpxtaSXhMwxtd1HNMdsv/54ckyCjW9pY8/VdgIt3shejVZxw7vkE44JQUaeNwZ3yfsetag5dcWSwIi0xMV3DEtlIuIYjjvK9u8za3nmaNDkhRUqwxdbi7AkmygQ/GJRXvv3kTe0nqdIT4lPlOjpPZCXiGdrpwvabHrc3sUSRp5vp0WnR6bbT4+JStRwrW5H+DxXUu981b00VB2+/0jMpNllFLiSiFVvULw2OgRGUzrdyMPU4DsYWOTiLPr9gnCW0cRSaWCGNK7bjij+/YPAdoQyBtaPgUxYo6nTT+TaORT8GhnPEDgWf3IeaU8CvHmTlfHyLmfr6xfNvtiWA6grXJag/38yvHmQAgJ/Arx5k8J4JzAXq0ncEdy2Bmf3sdy2BOf1Ady1RFCW3xvDvl5cGKI2sBjqdrvgZoLYAgxJrS+mZIcgEAkFSUpJEIoHa+YszVIDk5GQ2u4i/7Qa1BeQoTW0pPTMEWdmyZR8+fKhUKnk8nrm+AB1QEVkv5XJ5TExMhQpFfoYLagswKE1tKT0zBJlIJKpRo0ZoaGh8fPyXlwYojcvlVqlShawSRc0AtQXkKrG2lJ55BvvJ/oK/v79ZigI/PagtwOx+9ccvAAA/AQgyAADlQZABACgPggwAQHkQZAAAyoMgAwBQHgQZAIDyIMgAAJQHQQYAoDwIMgAA5UGQAQAoD4IMAEB5EGQAAMqDIAMAUB4EGQCA8iDIAACUB0EGAKC8vCBjc7itOvf8jpsCAACfB1pkAADKKxhkESHvv8t2AADAJ3Fy88j9WR9kb188/X4bAwAAn8O41fV/q5Ht2TPxLcEAAAAASUVORK5CYII=;" vertex="1" parent="1">
          <mxGeometry x="191" y="182.5" width="408" height="546" as="geometry" />
        </mxCell>
        <mxCell id="KsgwyFIU3VjcIDYPL1_L-6" style="edgeStyle=orthogonalEdgeStyle;rounded=0;orthogonalLoop=1;jettySize=auto;html=1;exitX=1;exitY=0.5;exitDx=0;exitDy=0;entryX=0.5;entryY=0;entryDx=0;entryDy=0;strokeWidth=9;strokeColor=#FF0000;" edge="1" parent="1" source="KsgwyFIU3VjcIDYPL1_L-5" target="KsgwyFIU3VjcIDYPL1_L-2">
          <mxGeometry relative="1" as="geometry" />
        </mxCell>
        <mxCell id="KsgwyFIU3VjcIDYPL1_L-5" value="" style="rounded=0;whiteSpace=wrap;html=1;fillColor=none;strokeColor=#FF0000;strokeWidth=4;" vertex="1" parent="1">
          <mxGeometry x="201" y="260" width="370" height="360" as="geometry" />
        </mxCell>
        <mxCell id="KsgwyFIU3VjcIDYPL1_L-7" value="Long-form descriptions entered during the Library Creation process are visible in the bottom left of the QUCS-S window, whenever a Library component is selected for insertion into a schematic.&lt;div&gt;&lt;br&gt;&lt;/div&gt;&lt;div&gt;Use this to specify more information about the part, any limitations of the model, which simulation backends it is intended to work with, etc.&lt;/div&gt;" style="shape=callout;whiteSpace=wrap;html=1;perimeter=calloutPerimeter;fillColor=#f8cecc;strokeColor=#b85450;size=140;position=0.46;fontSize=18;base=59;position2=0.47;spacing=10;" vertex="1" parent="1">
          <mxGeometry x="183" y="-87.5" width="734.42" height="347.5" as="geometry" />
        </mxCell>
      </root>
    </mxGraphModel>
  </diagram>
</mxfile>
